<svg xmlns="http://www.w3.org/2000/svg" viewBox="0 0 256 256" role="img" aria-labelledby="title desc">
  <title id="title">Super Smart Mark</title>
  <desc id="desc">Blue graduation cap with golden book rays on rounded square background.</desc>
  <defs>
    <linearGradient id="bg" x1="0%" x2="100%" y1="0%" y2="100%">
      <stop offset="0%" stop-color="#1a2c75" />
      <stop offset="100%" stop-color="#253b9b" />
    </linearGradient>
  </defs>
  <rect width="256" height="256" rx="56" fill="url(#bg)" />
  <g transform="translate(28 24)">
    <polygon fill="#f4be18" opacity=".18" points="100,174 24,52 58,168" />
    <polygon fill="#f4be18" opacity=".3" points="100,174 42,40 72,165" />
    <polygon fill="#f4be18" opacity=".55" points="100,174 62,28 86,161" />
    <polygon fill="#f4be18" points="100,174 82,20 98,160" />
    <polygon fill="#f4be18" opacity=".85" points="100,174 118,20 102,160" />
    <polygon fill="#f4be18" opacity=".7" points="100,174 138,28 114,161" />
    <polygon fill="#f4be18" opacity=".45" points="100,174 158,40 128,165" />
    <polygon fill="#f4be18" opacity=".25" points="100,174 176,52 142,168" />
    <polygon fill="#253b9b" points="100,0 180,42 100,84 20,42" />
    <circle cx="100" cy="60" r="24" fill="#253b9b" />
    <path d="M66 70 Q100 90 134 70 L134 90 Q100 110 66 90 Z" fill="#253b9b" />
    <rect x="97" y="30" width="6" height="42" rx="3" fill="#253b9b" />
    <circle cx="100" cy="76" r="5.5" fill="#253b9b" />
    <polygon fill="#253b9b" points="4,144 100,94 196,144 100,168" />
    <polygon fill="#253b9b" points="22,154 100,180 178,154 178,168 100,194 22,168" />
  </g>
</svg>
