<svg width="243" height="158" viewBox="0 0 243 158" fill="none" xmlns="http://www.w3.org/2000/svg">
<g clip-path="url(#clip0_173_465)">
<path d="M152.942 52.0106C152.662 51.995 152.384 51.9696 152.104 51.9677C151.2 51.9618 150.296 51.9677 149.393 51.9677C148.947 51.9677 148.927 51.9277 149.091 51.4607C149.154 51.2852 149.222 51.1107 149.286 50.9362C149.33 50.8192 149.375 50.7032 149.417 50.5862C149.459 50.4693 149.396 50.3844 149.238 50.325C148.967 50.2275 148.954 50.207 149.015 50.0325C149.067 49.8853 149.119 49.74 149.173 49.5928C149.613 48.4275 150.053 47.2628 150.493 46.0988C150.538 45.9477 150.593 45.7998 150.658 45.6562C150.787 45.4164 150.711 45.2516 150.518 45.0917C150.256 44.8686 150.064 44.5739 149.966 44.2436C149.785 43.6918 149.913 43.2014 150.212 42.7335C150.247 42.6816 150.285 42.6326 150.328 42.5872C150.476 42.4313 150.627 42.2763 150.777 42.1212C150.792 41.8424 150.821 41.5636 150.821 41.2848C150.821 35.3022 150.821 29.3193 150.821 23.336C150.821 23.0582 150.798 22.7784 150.771 22.5015C150.771 22.4684 150.663 22.4108 150.624 22.4225C150.448 22.4777 150.275 22.5462 150.109 22.6273C148.296 23.5261 146.483 24.4273 144.671 25.3307L120.16 37.5168C119.965 37.6143 119.764 37.6991 119.575 37.8034C119.495 37.8506 119.404 37.8754 119.311 37.8754C119.218 37.8754 119.127 37.8506 119.046 37.8034C118.602 37.5773 118.151 37.3657 117.704 37.1434C105.937 31.2941 94.1706 25.4447 82.4042 19.5954C82.0982 19.4433 81.799 19.2766 81.4988 19.1138C81.4791 19.1043 81.4622 19.0898 81.4498 19.0717C81.4375 19.0537 81.4301 19.0326 81.4284 19.0108C81.4267 18.989 81.4308 18.9671 81.4403 18.9473C81.4497 18.9276 81.4642 18.9107 81.4823 18.8983C81.7288 18.7657 81.9744 18.6312 82.2249 18.5084L117.103 1.15915C117.773 0.82671 118.441 0.494271 119.107 0.154033C119.146 0.134535 119.152 0.0565438 119.173 0H119.36C119.377 0.0974893 119.452 0.146234 119.537 0.188154C122.297 1.5569 125.056 2.92728 127.815 4.29928L156.488 18.5483C156.712 18.6585 156.929 18.7803 157.148 18.8973C157.167 18.9078 157.183 18.9234 157.193 18.9424C157.203 18.9613 157.208 18.9828 157.206 19.0044C157.205 19.0259 157.197 19.0465 157.184 19.0638C157.171 19.0812 157.154 19.0944 157.134 19.1021C156.946 19.2093 156.758 19.3204 156.564 19.417C155.42 19.9863 154.277 20.554 153.136 21.1201C152.968 21.1983 152.805 21.2879 152.649 21.3882C152.611 21.414 152.579 21.4471 152.555 21.4854C152.531 21.5238 152.514 21.5666 152.506 21.6114C152.484 21.8903 152.483 22.171 152.483 22.4508C152.483 26.7482 152.483 31.0452 152.483 35.3418V41.1337C152.483 41.3833 152.483 41.6318 152.483 41.8814C152.477 41.9589 152.49 42.0367 152.523 42.1073C152.556 42.1779 152.606 42.2388 152.669 42.2841C152.745 42.3386 152.816 42.3992 152.883 42.4654C153.211 42.7822 153.405 43.2136 153.424 43.6698C153.444 44.1261 153.286 44.5721 152.985 44.9153C152.575 45.1951 152.595 45.5246 152.77 45.9613C153.258 47.1722 153.699 48.3986 154.157 49.6269C154.212 49.7722 154.268 49.9194 154.314 50.0657C154.328 50.1087 154.326 50.1556 154.308 50.1973C154.291 50.239 154.258 50.2726 154.217 50.2918C153.887 50.4868 153.875 50.5102 154.009 50.8358C154.04 50.8893 154.078 50.9387 154.121 50.983L154.316 51.6889C154.326 51.7173 154.329 51.7476 154.325 51.7775C154.321 51.8073 154.311 51.8358 154.294 51.8609C154.277 51.8859 154.255 51.9067 154.229 51.9217C154.203 51.9366 154.174 51.9454 154.144 51.9472C153.739 51.9774 153.336 51.9063 152.942 52.0106Z" fill="#293D98"/>
<path d="M117.834 117.007C115.592 116.909 113.539 116.812 111.484 116.714C110.801 116.685 110.113 116.656 109.427 116.656C108.961 116.655 108.501 116.542 108.086 116.328C106.553 115.563 105.01 114.82 103.473 114.067C90.6043 107.779 77.736 101.49 64.8677 95.1993L15.7696 71.2072C15.5191 71.0843 15.2765 70.9449 15.0328 70.8075C15.0197 70.7995 15.0089 70.7882 15.0014 70.7748C14.9939 70.7614 14.9899 70.7463 14.9899 70.7309C14.9899 70.7156 14.9939 70.7005 15.0014 70.6871C15.0089 70.6737 15.0197 70.6624 15.0328 70.6544C15.1795 70.5426 15.335 70.4429 15.4977 70.3561C17.0531 69.5664 18.6095 68.78 20.1669 67.9969C23.001 66.5625 25.8344 65.1274 28.6671 63.6917C28.8893 63.5796 29.1135 63.4714 29.3376 63.3632C29.3939 63.3357 29.4568 63.3252 29.5189 63.3328C29.581 63.3404 29.6396 63.3659 29.6875 63.4061C30.207 63.8038 30.7098 64.224 31.2468 64.6032C32.6181 65.5781 34.0526 66.4555 35.5028 67.3115C38.4324 69.0341 41.4711 70.5452 44.5576 71.9617C49.3154 74.1436 54.1893 76.0388 59.1236 77.778C62.3241 78.9049 65.5363 79.9968 68.7416 81.1121C75.3229 83.4041 81.8341 85.8978 88.2429 88.6597C93.5358 90.9371 98.7556 93.3704 103.823 96.1196C106.426 97.5312 108.989 99.0053 111.431 100.687C112.637 101.518 113.813 102.39 114.944 103.319C115.914 104.104 116.818 104.967 117.647 105.899C117.727 105.993 117.815 106.081 117.911 106.159C117.936 106.175 117.964 106.184 117.993 106.187C118.022 106.19 118.051 106.186 118.079 106.175C118.184 106.11 118.282 106.033 118.371 105.947C119.838 104.484 121.494 103.277 123.258 102.207C125.045 101.123 126.913 100.196 128.789 99.2822C132.796 97.3324 136.903 95.6195 141.077 94.0587C146.209 92.1401 151.4 90.3947 156.651 88.8225C161.865 87.2529 167.128 85.8364 172.407 84.4901C176.388 83.4752 180.375 82.4779 184.326 81.347C189.388 79.8974 194.374 78.2274 199.269 76.2893C201.182 75.5365 203.055 74.6862 204.881 73.7419C206.462 72.9333 207.989 72.0248 209.455 71.0219C209.702 70.8504 209.887 70.8708 210.129 71.0219C211.371 71.8019 212.621 72.5584 213.868 73.3266L222.854 78.8708C223.04 78.9849 223.228 79.097 223.404 79.2247C223.474 79.2791 223.526 79.3545 223.551 79.4402C223.578 79.5464 223.483 79.6059 223.399 79.642C223.141 79.7521 222.88 79.8564 222.619 79.9578C216.292 82.4165 209.966 84.8739 203.641 87.33C190.585 92.4072 177.53 97.4867 164.474 102.569C152.087 107.387 139.698 112.204 127.308 117.02L126.784 117.215C126.522 117.316 126.241 117.36 125.961 117.344C124.156 117.254 122.35 117.17 120.544 117.092C119.579 117.055 118.614 117.032 117.834 117.007Z" fill="#293D98"/>
<path d="M119.304 60.8334C118.681 60.8334 118.057 60.8148 117.434 60.8334C116.468 60.8554 115.503 60.7571 114.56 60.5409C111.21 59.8378 108.058 58.3992 105.332 56.329C102.606 54.2588 100.373 51.6087 98.7956 48.5702C97.6552 46.3867 96.8802 44.031 96.5014 41.5968C96.2851 40.2757 96.184 38.9383 96.1993 37.5997C96.2455 34.9171 96.7525 32.2625 97.6982 29.7518C97.7538 29.6066 97.8239 29.4681 97.8931 29.3268C97.9195 29.2893 97.9574 29.2616 98.0011 29.2478C98.0448 29.2341 98.0918 29.2351 98.1348 29.2507C98.3297 29.3482 98.5247 29.4389 98.7196 29.5364L103.485 31.9044L118.453 39.3418C118.648 39.4393 118.843 39.5319 119.038 39.6343C119.12 39.678 119.213 39.7009 119.306 39.7009C119.4 39.7009 119.493 39.678 119.575 39.6343C119.8 39.5271 120.021 39.412 120.243 39.3009C126.794 36.0467 133.345 32.7928 139.895 29.5393C140.732 29.125 140.64 29.0226 140.974 29.9292C141.585 31.5956 142.005 33.3261 142.225 35.0874C142.425 36.6957 142.457 38.3205 142.322 39.9356C142.117 42.4543 141.488 44.9203 140.462 47.2297C137.456 54.0354 131.593 58.5804 125.316 60.2289C124.594 60.419 123.865 60.5838 123.13 60.7164C122.669 60.791 122.203 60.8292 121.736 60.8304C120.924 60.8431 120.113 60.8334 119.304 60.8334Z" fill="#293D98"/>
<path d="M108.232 95.4626C108.037 95.3651 107.837 95.2783 107.648 95.1701C102.43 92.1168 97.0034 89.4797 91.4697 87.0658C87.1913 85.2018 82.8779 83.4246 78.5079 81.7819C74.6359 80.3264 70.7327 78.9547 66.8305 77.5899C63.517 76.4239 60.2067 75.244 56.8996 74.05C52.4828 72.4454 48.1431 70.6506 43.8988 68.6306C42.6913 68.0554 41.5023 67.4412 40.3055 66.8436C40.1389 66.7598 39.9771 66.6662 39.8182 66.5765C39.7498 66.5387 39.6904 66.4864 39.6443 66.4233C39.5981 66.3601 39.5664 66.2877 39.5512 66.2109C39.4801 65.9087 39.4138 65.6045 39.3485 65.3004C38.7365 62.4725 38.1251 59.6453 37.5143 56.8188C37.0017 54.4466 36.4904 52.0743 35.9804 49.7021C35.9632 49.5797 35.9583 49.4559 35.9657 49.3326C35.9676 49.3197 35.9724 49.3074 35.9798 49.2968C35.9873 49.2861 35.9972 49.2773 36.0086 49.2712C36.0229 49.2649 36.0383 49.2616 36.0539 49.2616C36.0695 49.2616 36.085 49.2649 36.0993 49.2712C36.2172 49.3703 36.3289 49.4768 36.4335 49.59C38.9333 52.4347 41.7752 54.9022 44.7944 57.1727C48.4236 59.9134 52.2479 62.3854 56.2369 64.5692C59.8243 66.5248 63.5569 68.1461 67.3909 69.547C69.1724 70.1982 70.9608 70.8319 72.7374 71.4968C78.7763 73.7575 84.5586 76.6522 89.9874 80.1324C95.5253 83.6735 100.698 87.7563 105.429 92.3205C106.306 93.1638 107.156 94.0285 108.013 94.8884C108.136 95.0266 108.251 95.1718 108.357 95.3232C108.311 95.3656 108.27 95.4123 108.232 95.4626Z" fill="#FFCD09"/>
<path d="M204.448 56.2611C204.467 56.3498 204.516 56.4444 204.498 56.5243C204.432 56.8275 204.353 57.1288 204.262 57.4251C203.182 60.9646 202.099 64.5042 201.015 68.0437C200.55 69.5593 200.085 71.0753 199.618 72.5915C199.581 72.7105 199.557 72.8343 199.511 72.9484C199.484 73.0217 199.443 73.0885 199.388 73.1446C199.334 73.2007 199.269 73.2448 199.196 73.274C199.023 73.3432 198.851 73.4153 198.679 73.4875C195.177 74.9498 191.603 76.2172 187.989 77.3714C184.494 78.4861 180.968 79.4935 177.411 80.3936C174.428 81.1531 171.437 81.8784 168.462 82.6583C161.576 84.4648 154.738 86.4409 147.986 88.7026C143.796 90.1055 139.643 91.5883 135.56 93.2729C133.375 94.1747 131.212 95.1252 129.081 96.1479C128.89 96.2504 128.692 96.3428 128.491 96.4248C128.371 96.4497 128.249 96.457 128.127 96.4462L128.143 96.4599C128.652 96.0026 129.15 95.5327 129.67 95.0882C135.825 89.8107 142.599 85.3027 149.844 81.6639C154.348 79.3954 159.036 77.5123 163.858 76.0349C165.794 75.4499 167.748 74.9274 169.706 74.4273C174.081 73.3238 178.364 71.8784 182.514 70.1046C186.864 68.2364 191.05 66.0061 195.027 63.4373C196.439 62.5228 197.836 61.585 199.196 60.5965C200.914 59.3553 202.549 58.0028 204.09 56.5477C204.201 56.4424 204.293 56.3108 204.462 56.2855L204.448 56.2611Z" fill="#FFCD09"/>
<path d="M117.498 97.5352C117.459 97.5713 117.442 97.5995 117.425 97.6005C117.407 97.6015 117.349 97.5937 117.339 97.5742C117.269 97.4357 117.201 97.2944 117.144 97.1511C115.301 92.7551 113.076 88.5296 110.493 84.5233C107.563 79.9614 104.263 75.6476 100.627 71.6254C98.3755 69.1219 96.0138 66.7272 93.5416 64.4415C91.3518 62.4039 89.0761 60.4639 86.7469 58.5921C84.3689 56.6761 82.0624 54.6772 79.8274 52.5955C77.7009 50.6262 75.6397 48.5913 73.6437 46.4907C72.8076 45.6133 71.9948 44.7057 71.1693 43.8147C70.9075 43.5497 70.7369 43.2082 70.682 42.8398C70.4793 41.4544 70.2269 40.0769 69.9998 38.6955C69.764 37.2838 69.5307 35.8715 69.3001 34.4586C69.0847 33.1376 68.8781 31.8157 68.6607 30.4957C68.4434 29.1757 68.2134 27.8576 67.9961 26.5376C67.7788 25.2176 67.5682 23.8956 67.3558 22.5737C67.3119 22.2988 67.2691 22.0229 67.2291 21.746C67.2291 21.7275 67.2496 21.6875 67.2603 21.6875C67.2895 21.6875 67.3324 21.6943 67.346 21.7148C67.4345 21.8405 67.5165 21.9707 67.5916 22.1048C70.1324 26.9042 73.1107 31.4257 76.3238 35.7962C79.002 39.4374 81.8721 42.9226 84.8942 46.2841C87.6659 49.3667 90.5624 52.3271 93.5835 55.1653C95.4918 56.9562 97.3629 58.7851 99.1669 60.6823C104.529 66.306 108.932 72.7711 112.203 79.8204C114.159 84.0295 115.659 88.4366 116.675 92.9659C116.975 94.3005 117.199 95.6527 117.455 96.998C117.479 97.1762 117.493 97.3555 117.498 97.5352Z" fill="#FFCD0B"/>
<path d="M152.942 52.0106C153.332 51.9063 153.739 51.9774 154.138 51.9472C154.168 51.9454 154.197 51.9367 154.223 51.9217C154.249 51.9067 154.271 51.8859 154.288 51.8609C154.305 51.8359 154.316 51.8073 154.319 51.7775C154.323 51.7476 154.32 51.7173 154.31 51.6889L154.115 50.983C154.648 50.5044 155.187 50.0354 155.713 49.5451C157.94 47.4542 160.103 45.2984 162.2 43.0776C166.646 38.3465 170.767 33.3521 174.383 27.9541C174.746 27.4111 175.105 26.8651 175.468 26.3212C175.482 26.3007 175.541 26.2802 175.549 26.288C175.585 26.3199 175.611 26.3621 175.622 26.4089C175.625 26.4709 175.617 26.5329 175.598 26.5922C175.148 28.3736 174.699 30.1541 174.249 31.9336C173.093 36.5215 171.938 41.1096 170.783 45.6981C170.669 46.1515 170.527 46.598 170.438 47.0552C170.38 47.3624 170.22 47.6411 169.983 47.8458C168.946 48.7895 167.925 49.7508 166.877 50.6828C163.782 53.4398 160.56 56.0411 157.21 58.4868C155.776 59.5338 154.324 60.5552 152.852 61.5509C149.29 63.9596 145.855 66.5524 142.562 69.3188C140.774 70.8247 139.039 72.3891 137.355 74.012C135.356 75.9377 133.435 77.9369 131.591 80.0095C126.932 85.2866 122.878 90.9849 119.619 97.2339C119.533 97.3997 119.438 97.5605 119.345 97.7214C119.331 97.7458 119.297 97.7575 119.271 97.775C119.248 97.735 119.198 97.6892 119.206 97.6561C119.346 97.0507 119.482 96.4433 119.642 95.8418C120.898 91.1446 122.68 86.6043 124.955 82.3073C126.927 78.5902 129.226 75.0562 131.825 71.7473C134.35 68.5364 137.13 65.535 140.139 62.7724C141.809 61.2272 143.572 59.7883 145.343 58.361C146.969 57.0508 148.597 55.7434 150.216 54.4205C150.987 53.7888 151.732 53.1249 152.484 52.4707C152.644 52.3284 152.789 52.1666 152.942 52.0106Z" fill="#FFCD0B"/>
<path d="M45.2895 36.4708C45.347 36.4874 45.4191 36.4874 45.4581 36.5234C45.5702 36.6313 45.6759 36.7456 45.7748 36.8656C48.4695 40.0633 51.3913 43.0445 54.4485 45.8951C56.9824 48.2553 59.5904 50.5239 62.25 52.7359C65.3414 55.3077 68.5107 57.78 71.8067 60.0847C73.8738 61.5304 75.9749 62.9294 78.0703 64.3342C80.6588 66.0695 83.217 67.8438 85.6856 69.7507C90.682 73.5834 95.3641 77.8093 99.6873 82.3883C100.818 83.5903 101.902 84.8382 103.001 86.0704C103.116 86.2154 103.22 86.3678 103.315 86.5267L103.157 86.6846C102.891 86.4711 102.617 86.2644 102.358 86.0422C98.2213 82.4892 93.7982 79.2845 89.1337 76.4609C84.7861 73.8287 80.265 71.5416 75.5149 69.7215C72.6107 68.6082 69.7078 67.4925 66.8061 66.3747C64.3103 65.4105 61.8426 64.3781 59.4432 63.1897C56.2391 61.5913 53.1442 59.7825 50.1789 57.7751C50.101 57.7235 50.0269 57.6669 49.948 57.6162C49.8694 57.5652 49.8021 57.4987 49.7501 57.4207C49.6982 57.3428 49.6627 57.2551 49.6458 57.1629C49.5055 56.5243 49.372 55.8848 49.2346 55.2463C48.77 53.0872 48.3055 50.9278 47.8409 48.7681C47.2373 45.9695 46.6338 43.1716 46.0302 40.3743C45.8128 39.3711 45.5828 38.3699 45.3674 37.3657C45.3031 37.0655 45.1979 36.7633 45.3061 36.4493L45.2895 36.4708Z" fill="#FFCD09"/>
<path d="M134.285 87.835C134.433 87.5523 134.69 87.3661 134.91 87.1526C137.808 84.3193 140.858 81.6477 144.049 79.1497C148.69 75.5124 153.553 72.2026 158.693 69.3033C160.512 68.279 162.334 67.2632 164.159 66.2558C169.006 63.5634 173.708 60.6178 178.246 57.431C181.515 55.1439 184.733 52.7896 187.832 50.2763C189.527 48.9027 191.194 47.4959 192.787 46.0043C193.788 45.0684 194.77 44.1111 195.763 43.1644C195.919 43.0153 196.084 42.872 196.25 42.7335C196.263 42.7243 196.277 42.7179 196.292 42.7147C196.308 42.7115 196.324 42.7116 196.339 42.715C196.349 42.7241 196.358 42.7355 196.363 42.7484C196.368 42.7613 196.37 42.7752 196.369 42.7891C196.353 42.9104 196.329 43.0306 196.298 43.1488C195.463 45.8883 194.626 48.6271 193.788 51.3652C192.622 55.1764 191.455 58.9857 190.287 62.7929C190.266 62.8517 190.251 62.912 190.24 62.9733C190.199 63.2492 190.018 63.4071 189.79 63.5309C189.489 63.6957 189.191 63.8663 188.891 64.0311C182.929 67.2832 176.596 69.8037 170.03 71.5377C168.558 71.9277 167.072 72.2728 165.604 72.6803C161.286 73.8869 157.063 75.4086 152.968 77.2331C146.677 80.0369 140.696 83.4916 135.123 87.5406C134.897 87.7044 134.656 87.8487 134.422 88.0027L134.285 87.835Z" fill="#FFCD09"/>
<path d="M121.948 97.7584C122.349 97.0204 122.727 96.2717 123.154 95.5454C125.382 91.7208 127.914 88.0824 130.728 84.6656C133.766 80.9889 137.069 77.539 140.61 74.3434C144.308 70.9984 148.221 67.8991 152.324 65.0654C154.397 63.6264 156.467 62.1816 158.504 60.694C162.651 57.6536 166.619 54.3754 170.388 50.8758C172.701 48.7379 174.944 46.5307 177.096 44.2339C179.783 41.3709 182.29 38.3428 184.6 35.1673C184.8 34.8914 185.018 34.6292 185.231 34.3631C185.244 34.3455 185.28 34.3465 185.306 34.3387C185.313 34.3689 185.334 34.4021 185.327 34.4284C185.276 34.639 185.23 34.8515 185.165 35.0582C183.375 40.9238 181.582 46.789 179.787 52.654C179.777 52.6836 179.769 52.7139 179.764 52.7447C179.69 53.1707 179.436 53.4515 179.088 53.701C176.28 55.7204 173.413 57.651 170.485 59.4929C167.269 61.5148 163.971 63.4022 160.626 65.2048C153.457 69.0526 146.685 73.5981 140.408 78.7753C135.72 82.6449 131.357 86.8935 127.365 91.4782C125.708 93.3831 124.12 95.3439 122.601 97.3607C122.451 97.5556 122.295 97.7506 122.142 97.9456L121.948 97.7584Z" fill="#FFCD0D"/>
<path d="M114.102 96.8664C113.184 95.4948 112.284 94.1114 111.345 92.7543C108.803 89.0951 106.031 85.6003 103.048 82.2908C100.859 79.8555 98.5714 77.5184 96.1837 75.2794C94.1404 73.3588 92.0288 71.5137 89.849 69.7439C86.589 67.0825 83.1897 64.6111 79.6998 62.2606C75.8755 59.685 72.0932 57.0498 68.4083 54.2782C66.1174 52.5553 63.8779 50.7679 61.6896 48.9163C61.5922 48.8354 61.5074 48.7447 61.406 48.6726C61.1341 48.4776 61.0327 48.2095 60.9645 47.8927C60.4928 45.6699 59.9997 43.452 59.5192 41.2322C59.0514 39.0728 58.5914 36.9115 58.1246 34.7521C57.725 32.8998 57.3196 31.0416 56.92 29.1864C56.9134 29.1251 56.9194 29.063 56.9376 29.0041C56.9493 28.9505 57.0536 29.0168 57.1325 29.1318C57.1666 29.1835 57.2056 29.2293 57.2368 29.2858C60.1128 34.0794 63.4409 38.5473 67.0371 42.8183C69.9694 46.2972 73.0778 49.6237 76.3501 52.7847C78.7703 55.1244 81.2779 57.3667 83.8729 59.5114C85.7938 61.0995 87.7098 62.6945 89.5966 64.3225C93.04 67.2964 96.2897 70.4875 99.3257 73.8765C102.304 77.1898 105.053 80.7027 107.552 84.3907C110.095 88.1247 112.326 92.0616 114.223 96.1616C114.327 96.3878 114.418 96.6198 114.515 96.8489L114.102 96.8664Z" fill="#FFCD0D"/>
<path d="M171.69 130.228C171.69 133.748 171.69 137.269 171.69 140.789C171.69 141.07 171.69 141.351 171.668 141.63C171.653 141.786 171.584 141.932 171.473 142.044C171.363 142.156 171.217 142.226 171.061 142.244C170.906 142.258 170.75 142.26 170.594 142.26C169.192 142.26 167.79 142.26 166.387 142.26C166.201 142.261 166.015 142.25 165.83 142.225C165.706 142.202 165.593 142.141 165.506 142.051C165.419 141.961 165.361 141.845 165.342 141.721C165.321 141.442 165.314 141.162 165.314 140.882C165.314 137.921 165.314 134.961 165.314 132.002C165.327 131.379 165.29 130.756 165.204 130.139C165.19 130.015 165.16 129.894 165.115 129.778C165.099 129.736 165.074 129.698 165.042 129.667C165.01 129.635 164.973 129.61 164.931 129.593C164.886 129.586 164.841 129.591 164.798 129.606C164.755 129.621 164.717 129.646 164.686 129.679C164.531 129.912 164.398 130.158 164.286 130.413C164.144 130.759 164.03 131.115 163.916 131.471C162.901 134.643 161.889 137.815 160.877 140.986C160.791 141.253 160.716 141.523 160.612 141.783C160.561 141.915 160.473 142.029 160.359 142.112C160.245 142.195 160.109 142.244 159.968 142.252C159.936 142.252 159.905 142.258 159.87 142.258C158.593 142.258 157.315 142.263 156.037 142.258C155.647 142.258 155.399 142.042 155.282 141.673C154.901 140.488 154.521 139.303 154.143 138.117C153.405 135.805 152.665 133.494 151.925 131.183C151.81 130.828 151.672 130.481 151.535 130.135C151.469 129.994 151.393 129.858 151.308 129.728C151.248 129.625 151.066 129.541 150.994 129.596C150.917 129.643 150.856 129.713 150.819 129.796C150.707 130.218 150.646 130.652 150.64 131.089C150.64 131.401 150.634 131.712 150.634 132.024C150.634 134.953 150.634 137.881 150.634 140.81C150.634 141.09 150.634 141.37 150.618 141.65C150.604 141.807 150.535 141.953 150.423 142.063C150.31 142.173 150.162 142.239 150.006 142.25C149.943 142.256 149.881 142.259 149.819 142.259H148.13C148.036 142.258 147.943 142.252 147.85 142.239C147.712 142.213 147.584 142.147 147.483 142.049C147.382 141.951 147.311 141.826 147.28 141.689C147.266 141.597 147.259 141.504 147.258 141.41C147.258 141.161 147.258 140.911 147.258 140.663C147.258 133.684 147.258 126.705 147.258 119.726C147.258 119.414 147.258 119.102 147.277 118.792C147.29 118.635 147.358 118.488 147.469 118.376C147.579 118.265 147.726 118.195 147.882 118.181C148.006 118.17 148.131 118.167 148.255 118.167C149.876 118.167 151.497 118.167 153.117 118.167C153.775 118.167 153.933 118.277 154.15 118.887C154.902 120.999 155.649 123.111 156.392 125.224C157.201 127.513 158.01 129.802 158.82 132.089C158.924 132.382 159.045 132.668 159.184 132.946C159.247 133.052 159.338 133.139 159.447 133.196C159.53 133.228 159.622 133.228 159.706 133.196C159.779 133.168 159.846 133.126 159.902 133.071C159.959 133.016 160.003 132.951 160.033 132.878C160.187 132.538 160.336 132.196 160.461 131.844C161.542 128.794 162.619 125.742 163.693 122.688C164.118 121.485 164.545 120.283 164.974 119.081C165.037 118.906 165.099 118.728 165.179 118.561C165.232 118.447 165.315 118.351 165.419 118.282C165.524 118.213 165.645 118.175 165.77 118.171C165.832 118.165 165.894 118.163 165.956 118.163C167.577 118.163 169.198 118.163 170.819 118.163C171.425 118.163 171.667 118.41 171.69 119.006C171.7 119.255 171.69 119.504 171.69 119.754V130.228Z" fill="#2A3E98"/>
<path d="M91.0321 130.158C91.0321 126.671 91.0321 123.183 91.0321 119.695C91.0321 119.384 91.0321 119.072 91.0584 118.762C91.069 118.603 91.1392 118.455 91.2547 118.347C91.3703 118.238 91.5227 118.177 91.6812 118.177C91.8673 118.165 92.0544 118.166 92.2415 118.166C95.6993 118.166 99.161 118.172 102.615 118.166C103.628 118.166 104.606 118.321 105.526 118.734C107.991 119.843 109.452 121.744 109.834 124.416C110.189 126.905 109.38 129.016 107.576 130.753C107.308 131.01 106.992 131.22 106.699 131.451C106.212 131.834 106.147 132.083 106.416 132.659C107.325 134.603 108.239 136.545 109.156 138.487C109.554 139.331 109.955 140.173 110.351 141.021C110.431 141.189 110.498 141.363 110.552 141.541C110.572 141.609 110.577 141.68 110.569 141.75C110.56 141.82 110.538 141.888 110.503 141.949C110.468 142.01 110.42 142.064 110.364 142.107C110.308 142.149 110.243 142.18 110.175 142.197C110.025 142.237 109.871 142.259 109.717 142.264C109.312 142.274 108.907 142.269 108.501 142.269H105.324C105.168 142.269 105.012 142.269 104.856 142.264C104.716 142.266 104.577 142.228 104.457 142.155C104.337 142.083 104.239 141.978 104.174 141.853C104.056 141.635 103.949 141.409 103.843 141.184C102.669 138.711 101.495 136.238 100.321 133.763C100.215 133.538 100.11 133.312 99.9962 133.091C99.945 132.976 99.8633 132.879 99.7602 132.808C99.657 132.737 99.5364 132.696 99.4115 132.689C98.9447 132.672 98.4769 132.664 98.011 132.689C97.6329 132.705 97.398 132.968 97.3707 133.365C97.3532 133.612 97.3571 133.863 97.3571 134.111C97.3571 136.354 97.3571 138.596 97.3571 140.838C97.3571 141.118 97.3571 141.399 97.3337 141.677C97.3206 141.834 97.25 141.981 97.1356 142.088C97.0213 142.196 96.8711 142.258 96.7139 142.262C96.5589 142.274 96.403 142.272 96.2471 142.272C94.8762 142.272 93.5053 142.272 92.1343 142.272C91.9478 142.274 91.7613 142.264 91.5759 142.244C91.4515 142.224 91.3366 142.166 91.2478 142.077C91.1589 141.987 91.1008 141.872 91.0818 141.748C91.0535 141.47 91.0409 141.19 91.0399 140.91C91.036 139.072 91.036 137.235 91.0399 135.398L91.0321 130.158ZM99.2838 129.565V129.57C99.6269 129.57 99.966 129.559 100.312 129.57C100.957 129.598 101.452 129.315 101.858 128.843C102.159 128.484 102.391 128.072 102.54 127.628C103.074 126.098 103.036 124.572 102.487 123.057C102.338 122.646 102.114 122.266 101.827 121.936C101.463 121.514 101.016 121.263 100.448 121.26C99.6688 121.26 98.8891 121.26 98.1095 121.26C98.0472 121.263 97.9853 121.271 97.9243 121.284C97.785 121.305 97.6564 121.372 97.558 121.473C97.4596 121.574 97.3967 121.704 97.3785 121.844C97.3566 122.061 97.3468 122.278 97.3493 122.495C97.3493 124.426 97.3493 126.356 97.3493 128.285C97.3493 128.472 97.3493 128.66 97.36 128.845C97.3893 129.277 97.6524 129.543 98.0705 129.557C98.474 129.573 98.8794 129.56 99.2838 129.56V129.565Z" fill="#293E98"/>
<path d="M199.985 130.176C199.985 126.656 199.985 123.137 199.985 119.617C199.985 119.336 199.985 119.055 200.002 118.776C200.017 118.619 200.088 118.473 200.201 118.364C200.315 118.255 200.463 118.189 200.62 118.18C200.837 118.166 201.056 118.166 201.274 118.166C204.671 118.166 208.067 118.166 211.463 118.166C211.993 118.151 212.522 118.193 213.043 118.29C215.736 118.867 217.555 120.461 218.477 123.034C219.535 125.99 218.531 129.246 216.056 131.158C215.861 131.31 215.648 131.451 215.472 131.615C215.362 131.704 215.284 131.827 215.249 131.965C215.214 132.102 215.223 132.247 215.277 132.379C215.374 132.639 215.494 132.895 215.613 133.147C216.792 135.654 217.972 138.16 219.154 140.664C219.286 140.945 219.41 141.232 219.52 141.522C219.617 141.78 219.436 142.107 219.159 142.185C219.011 142.229 218.857 142.253 218.702 142.255C217.113 142.26 215.524 142.255 213.935 142.255H213.837C213.488 142.255 213.253 142.071 213.095 141.777C212.997 141.582 212.909 141.387 212.816 141.186C211.653 138.741 210.49 136.296 209.327 133.85C209.207 133.597 209.082 133.346 208.959 133.095C208.91 132.978 208.829 132.877 208.726 132.804C208.622 132.731 208.5 132.689 208.374 132.682C207.877 132.664 207.378 132.666 206.882 132.691C206.74 132.702 206.607 132.764 206.507 132.865C206.408 132.967 206.348 133.101 206.339 133.243C206.32 133.491 206.319 133.741 206.319 133.989C206.319 136.264 206.319 138.539 206.319 140.814C206.319 141.063 206.319 141.313 206.312 141.561C206.292 141.983 206.028 142.234 205.589 142.259C205.492 142.264 205.402 142.259 205.31 142.259H201.016C200.86 142.261 200.705 142.254 200.55 142.236C200.412 142.209 200.285 142.14 200.188 142.039C200.09 141.937 200.026 141.808 200.005 141.669C199.986 141.389 199.985 141.108 199.985 140.828C199.984 137.278 199.984 133.727 199.985 130.176ZM206.325 125.456C206.325 126.451 206.325 127.446 206.325 128.441C206.325 128.627 206.325 128.815 206.345 129C206.366 129.123 206.422 129.238 206.506 129.33C206.59 129.422 206.7 129.488 206.82 129.519C206.973 129.546 207.128 129.56 207.283 129.561C207.936 129.561 208.59 129.549 209.242 129.567C209.963 129.589 210.494 129.267 210.916 128.717C211.197 128.344 211.411 127.924 211.548 127.477C211.96 126.195 211.977 124.819 211.595 123.528C211.466 123.047 211.256 122.591 210.974 122.18C210.554 121.585 210.011 121.233 209.247 121.259C208.565 121.284 207.883 121.259 207.194 121.268C207.07 121.271 206.947 121.285 206.825 121.31C206.702 121.333 206.59 121.395 206.504 121.487C206.419 121.578 206.365 121.694 206.35 121.819C206.331 122.035 206.326 122.253 206.325 122.47C206.324 123.466 206.324 124.461 206.325 125.456Z" fill="#2A3E98"/>
<path d="M47.6304 130.129C47.6304 126.641 47.6304 123.152 47.6304 119.664C47.6304 119.354 47.6372 119.042 47.6635 118.732C47.6779 118.592 47.7405 118.46 47.8407 118.361C47.9409 118.261 48.0725 118.199 48.2132 118.185C48.3993 118.17 48.5864 118.166 48.7735 118.166C52.1378 118.166 55.4981 118.181 58.8672 118.166C60.6408 118.158 62.3678 118.734 63.7829 119.803C65.1979 120.873 66.2228 122.378 66.6999 124.086C67.9356 128.488 65.3803 132.88 61.3105 134.118C60.5658 134.348 59.7909 134.466 59.0115 134.466C57.766 134.461 56.5195 134.466 55.274 134.466C55.0557 134.466 54.8373 134.466 54.62 134.486C54.4631 134.499 54.3164 134.568 54.2074 134.682C54.0985 134.796 54.0348 134.945 54.0285 135.103C54.0109 135.35 54.0099 135.6 54.0099 135.848C54.0099 137.5 54.0099 139.151 54.0099 140.801C54.0099 141.05 54.0099 141.299 53.9943 141.548C53.9602 141.992 53.7117 142.23 53.2839 142.26C53.2225 142.26 53.1601 142.26 53.0977 142.26C51.5706 142.26 50.0444 142.254 48.5172 142.26C47.7999 142.26 47.6499 141.899 47.6401 141.431C47.6313 141.151 47.6343 140.87 47.6343 140.589L47.6304 130.129ZM55.9211 121.269C55.578 121.269 55.2389 121.263 54.8919 121.269C54.7366 121.271 54.5821 121.293 54.4319 121.332C54.3401 121.356 54.2568 121.405 54.1917 121.474C54.1267 121.543 54.0826 121.629 54.0645 121.722C54.0303 121.874 54.013 122.029 54.0129 122.184C54.0129 124.957 54.0129 127.73 54.0129 130.502C54.014 130.627 54.0254 130.751 54.047 130.874C54.064 130.982 54.1123 131.083 54.1861 131.165C54.2599 131.246 54.3558 131.304 54.4621 131.332C54.5802 131.371 54.7033 131.392 54.8276 131.395C55.5423 131.401 56.2589 131.401 56.9775 131.395C57.2749 131.398 57.5693 131.336 57.8405 131.213C58.1117 131.091 58.3532 130.912 58.5485 130.687C58.756 130.456 58.9429 130.207 59.107 129.943C59.3642 129.515 59.5588 129.053 59.6849 128.57C60.0241 127.333 60.0804 126.036 59.8496 124.775C59.7517 124.19 59.5719 123.622 59.3155 123.088C59.0966 122.604 58.7858 122.168 58.4004 121.803C58.0593 121.474 57.6072 121.285 57.1335 121.273C56.731 121.263 56.3255 121.269 55.9211 121.269Z" fill="#2A3E98"/>
<path d="M134.261 117.582C136.344 117.568 138.193 117.935 139.96 118.707C140.762 119.052 141.513 119.506 142.192 120.054C142.337 120.173 142.473 120.301 142.6 120.437C142.689 120.547 142.74 120.682 142.745 120.822C142.751 120.963 142.711 121.101 142.631 121.217C142.598 121.27 142.561 121.321 142.521 121.368C142.052 121.868 141.588 122.373 141.109 122.863C140.816 123.155 140.448 123.162 140.103 122.891C139.811 122.661 139.527 122.414 139.226 122.192C138.244 121.465 137.076 121.03 135.857 120.939C135.018 120.867 134.175 120.867 133.337 120.939C132.934 120.98 132.535 121.055 132.145 121.163C131.781 121.253 131.438 121.411 131.132 121.628C130.9 121.788 130.713 122.004 130.587 122.257C130.319 122.82 130.427 123.347 130.737 123.854C130.942 124.169 131.203 124.443 131.507 124.662C132.006 125.036 132.541 125.358 133.106 125.623C133.807 125.959 134.517 126.279 135.227 126.598C136.391 127.12 137.566 127.625 138.684 128.239C139.533 128.704 140.356 129.208 141.094 129.837C141.405 130.096 141.698 130.375 141.971 130.673C143.731 132.655 144.095 134.906 143.189 137.369C142.702 138.691 141.825 139.737 140.728 140.596C139.665 141.419 138.445 142.016 137.144 142.351C134.288 143.113 131.472 143.007 128.715 141.906C127.144 141.281 125.748 140.284 124.649 138.998C124.488 138.809 124.336 138.612 124.196 138.407C124.116 138.29 124.081 138.148 124.099 138.008C124.117 137.868 124.186 137.739 124.293 137.647C124.337 137.603 124.384 137.562 124.434 137.524C124.898 137.209 125.363 136.896 125.828 136.584C125.879 136.549 125.935 136.52 125.993 136.5C126.245 136.415 126.487 136.42 126.693 136.607C126.854 136.754 127.003 136.913 127.154 137.071C128.268 138.235 129.643 138.923 131.202 139.255C132.303 139.482 133.43 139.547 134.55 139.45C134.953 139.413 135.352 139.34 135.743 139.231C136.012 139.155 136.269 139.041 136.508 138.894C137.26 138.444 137.442 137.693 137.23 136.954C137.088 136.506 136.832 136.103 136.487 135.784C136.11 135.413 135.684 135.095 135.22 134.84C134.595 134.493 133.953 134.163 133.313 133.855C132.386 133.411 131.441 133.008 130.517 132.56C129.761 132.194 129.015 131.803 128.282 131.39C127.681 131.059 127.115 130.667 126.593 130.22C126.26 129.94 125.944 129.639 125.647 129.321C123.874 127.379 123.623 124.783 124.7 122.538C125.14 121.64 125.759 120.842 126.519 120.193C127.786 119.081 129.28 118.399 130.899 117.984C131.995 117.693 133.127 117.557 134.261 117.582Z" fill="#2B3E98"/>
<path d="M10.1931 117.588C12.0077 117.549 13.8116 117.875 15.4987 118.544C16.4906 118.923 17.4128 119.465 18.2275 120.146C18.3676 120.268 18.4929 120.406 18.6008 120.557C18.6577 120.633 18.6908 120.723 18.6958 120.818C18.7009 120.912 18.6776 121.006 18.629 121.087C18.5743 121.198 18.5062 121.303 18.4263 121.398C17.9839 121.878 17.5336 122.354 17.0853 122.83C17.0424 122.875 16.9964 122.917 16.9479 122.956C16.8337 123.039 16.6975 123.086 16.5566 123.09C16.4157 123.095 16.2767 123.057 16.1575 122.982C15.907 122.798 15.6702 122.592 15.4295 122.397C14.5341 121.661 13.4567 121.179 12.3109 121.004C11.4468 120.875 10.5707 120.846 9.69998 120.918C9.17176 120.962 8.64548 121.006 8.13285 121.156C7.80229 121.246 7.48532 121.38 7.19045 121.555C6.28604 122.105 6.16422 123.1 6.68952 123.9C6.87669 124.189 7.11755 124.439 7.39901 124.637C7.77838 124.909 8.17237 125.161 8.57922 125.39C9.12595 125.682 9.69218 125.947 10.2574 126.207C11.078 126.583 11.9054 126.945 12.729 127.313C13.6398 127.717 14.5256 128.175 15.3817 128.685C16.273 129.201 17.0895 129.836 17.8084 130.573C18.4828 131.283 19.013 132.084 19.2966 133.026C19.857 134.885 19.6221 136.661 18.669 138.34C18.0911 139.359 17.2861 140.176 16.33 140.853C15.2831 141.59 14.1072 142.124 12.8634 142.428C10.4971 143.043 8.00704 142.993 5.66719 142.284C3.68013 141.703 1.90547 140.555 0.560412 138.981C0.39902 138.791 0.248374 138.593 0.109183 138.386C0.0467591 138.277 0.0217293 138.151 0.0379224 138.026C0.0541154 137.902 0.110643 137.786 0.198849 137.697C0.239165 137.65 0.283872 137.607 0.332365 137.568C0.819652 137.233 1.30693 136.893 1.80104 136.572C2.11583 136.37 2.45597 136.43 2.73469 136.702C2.8458 136.811 2.95007 136.927 3.0563 137.041C4.18388 138.24 5.5902 138.933 7.1807 139.271C8.25148 139.487 9.34696 139.552 10.4358 139.466C10.9661 139.442 11.4885 139.328 11.9815 139.131C12.2123 139.04 12.4307 138.919 12.6315 138.773C13.148 138.375 13.3205 137.833 13.2162 137.199C13.1462 136.798 12.9709 136.422 12.7085 136.111C12.4558 135.793 12.1557 135.516 11.8187 135.29C11.3815 134.992 10.9286 134.718 10.4621 134.468C9.54502 134.006 8.61041 133.586 7.68066 133.142C6.75092 132.699 5.82896 132.265 4.90994 131.797C4.19161 131.425 3.50685 130.991 2.86333 130.501C2.3851 130.147 1.94426 129.744 1.54766 129.3C0.920031 128.591 0.442489 127.796 0.207616 126.871C-0.199599 125.349 -0.0106553 123.729 0.73584 122.342C1.20403 121.459 1.84656 120.679 2.62457 120.051C3.87495 119.023 5.31049 118.372 6.87176 117.984C7.95592 117.702 9.0732 117.569 10.1931 117.588Z" fill="#2B3E98"/>
<path d="M23.2056 126.367C23.2056 124.092 23.2056 121.817 23.2056 119.542C23.2056 119.263 23.2056 118.982 23.231 118.703C23.2513 118.579 23.3088 118.464 23.3958 118.374C23.4828 118.283 23.5952 118.221 23.7182 118.196C23.8412 118.178 23.9653 118.168 24.0896 118.167C25.617 118.167 27.1439 118.167 28.6701 118.167C28.7675 118.167 28.8572 118.167 28.9498 118.18C29.1064 118.194 29.2531 118.263 29.3637 118.375C29.4743 118.486 29.5417 118.634 29.554 118.791C29.5735 119.07 29.5715 119.35 29.5715 119.631C29.5715 123.774 29.5715 127.918 29.5715 132.062C29.5715 132.53 29.5715 132.998 29.5891 133.464C29.6295 134.368 29.811 135.259 30.127 136.107C30.3512 136.723 30.681 137.296 31.1016 137.799C32.1522 139.033 33.5156 139.532 35.0974 139.41C36.8204 139.276 38.0689 138.38 38.8787 136.875C39.3193 136.048 39.5916 135.141 39.6798 134.208C39.7451 133.558 39.7773 132.902 39.7773 132.249C39.7864 128.073 39.788 123.898 39.7822 119.724C39.7822 119.413 39.7822 119.101 39.8026 118.79C39.8058 118.631 39.8699 118.48 39.9815 118.368C40.0931 118.256 40.2437 118.191 40.402 118.186C41.1183 118.174 41.8346 118.177 42.5461 118.186C42.6873 118.196 42.8209 118.254 42.925 118.35C43.0292 118.446 43.0976 118.575 43.1191 118.715C43.1412 118.837 43.1545 118.961 43.1591 119.085C43.1649 119.303 43.1591 119.521 43.1591 119.739C43.1591 123.82 43.1591 127.902 43.1591 131.984C43.1628 132.763 43.1251 133.541 43.046 134.316C42.9183 135.653 42.5306 136.952 41.9048 138.14C41.0117 139.839 39.5632 141.181 37.8008 141.942C36.7415 142.401 35.6151 142.688 34.4649 142.79C32.9424 142.958 31.4019 142.838 29.9234 142.438C26.6147 141.509 24.5174 139.356 23.6013 136.055C23.3267 135.063 23.1893 134.037 23.1929 133.008C23.1975 130.798 23.1975 128.586 23.1929 126.372L23.2056 126.367Z" fill="#2B3E98"/>
<path d="M193.141 142.261C192.425 142.261 191.709 142.261 190.992 142.261C190.806 142.266 190.619 142.261 190.433 142.246C190.307 142.237 190.186 142.194 190.083 142.122C189.98 142.05 189.899 141.951 189.848 141.835C189.774 141.664 189.709 141.489 189.653 141.311C189.169 139.866 188.686 138.421 188.204 136.975C188.146 136.799 188.08 136.624 188.018 136.448C187.921 136.183 187.711 136.058 187.457 136.012C187.303 135.989 187.147 135.981 186.992 135.987H181.573C181.476 135.987 181.386 135.987 181.292 135.987C180.877 135.999 180.58 136.182 180.444 136.586C180.346 136.878 180.244 137.17 180.145 137.469C179.722 138.738 179.3 140.005 178.878 141.271C178.82 141.448 178.764 141.627 178.691 141.798C178.637 141.928 178.546 142.04 178.43 142.12C178.314 142.2 178.177 142.245 178.036 142.249C177.974 142.255 177.912 142.255 177.849 142.255C177.227 142.255 176.604 142.255 175.981 142.255C175.857 142.252 175.733 142.236 175.613 142.207C175.494 142.168 175.391 142.093 175.317 141.992C175.244 141.891 175.204 141.77 175.203 141.645C175.235 141.367 175.304 141.095 175.409 140.835C176.019 139.105 176.619 137.37 177.226 135.639C179.127 130.209 181.029 124.781 182.934 119.352C183.017 119.087 183.114 118.827 183.226 118.572C183.277 118.457 183.359 118.359 183.463 118.289C183.568 118.219 183.69 118.179 183.816 118.176C183.94 118.169 184.064 118.166 184.189 118.166H187.459C187.583 118.166 187.708 118.166 187.832 118.177C187.957 118.18 188.079 118.219 188.182 118.29C188.286 118.36 188.367 118.459 188.417 118.574C188.532 118.829 188.627 119.092 188.719 119.354C189.55 121.732 190.381 124.11 191.21 126.489C192.842 131.154 194.477 135.82 196.113 140.486C196.195 140.721 196.29 140.952 196.36 141.19C196.401 141.34 196.426 141.493 196.434 141.648C196.44 141.774 196.402 141.897 196.326 141.998C196.251 142.099 196.143 142.17 196.021 142.201C195.839 142.237 195.654 142.256 195.468 142.256C194.699 142.264 193.92 142.261 193.141 142.261ZM181.957 132.285C181.968 132.57 182.111 132.76 182.287 132.814C182.402 132.858 182.523 132.887 182.646 132.898C183.736 132.904 184.825 132.903 185.914 132.898C186.007 132.893 186.099 132.878 186.189 132.852C186.457 132.788 186.676 132.473 186.614 132.214C186.558 131.972 186.485 131.733 186.408 131.498C186.179 130.788 185.945 130.08 185.711 129.371C185.468 128.634 185.224 127.895 184.973 127.161C184.876 126.869 184.779 126.57 184.59 126.315C184.554 126.265 184.506 126.224 184.451 126.196C184.396 126.167 184.336 126.152 184.274 126.15C184.212 126.149 184.151 126.162 184.095 126.188C184.038 126.214 183.989 126.252 183.95 126.3C183.755 126.553 183.658 126.85 183.56 127.144C183.277 128 183.009 128.859 182.731 129.717C182.511 130.4 182.28 131.073 182.064 131.756C182.018 131.93 181.982 132.107 181.957 132.285Z" fill="#2A3E98"/>
<path d="M70.6079 130.205C70.6079 126.717 70.6079 123.229 70.6079 119.74C70.6079 119.46 70.6079 119.179 70.6196 118.9C70.6309 118.776 70.6619 118.655 70.7112 118.541C70.7444 118.453 70.8001 118.375 70.8728 118.315C70.9455 118.255 71.0326 118.216 71.1254 118.2C71.3412 118.172 71.5589 118.16 71.7765 118.166C76.3894 118.166 81.0005 118.166 85.6096 118.166C85.7957 118.166 85.9838 118.172 86.169 118.187C86.2927 118.205 86.4083 118.26 86.5009 118.344C86.5936 118.428 86.6592 118.538 86.6894 118.659C86.717 118.748 86.7343 118.84 86.7411 118.933C86.7411 119.462 86.7469 119.992 86.7411 120.521C86.7321 120.645 86.7021 120.767 86.6524 120.881C86.6245 120.954 86.5801 121.02 86.5226 121.073C86.4651 121.125 86.3961 121.164 86.321 121.186C86.2026 121.225 86.0799 121.249 85.9555 121.258C85.707 121.271 85.4575 121.267 85.208 121.267C82.9029 121.267 80.5964 121.267 78.2886 121.267C78.0088 121.267 77.7294 121.287 77.4524 121.326C77.3581 121.34 77.2704 121.382 77.2008 121.447C77.1312 121.512 77.083 121.597 77.0625 121.69C77.0157 121.87 76.9906 122.055 76.9875 122.241C76.9787 122.923 76.9875 123.612 76.9875 124.297C76.9875 125.387 76.9875 126.477 76.9875 127.567C76.9881 127.784 77.0122 128 77.0596 128.211C77.0832 128.319 77.1405 128.417 77.2232 128.49C77.3059 128.563 77.4097 128.608 77.5196 128.618C77.7052 128.64 77.8922 128.649 78.079 128.645C79.0137 128.645 79.9483 128.645 80.8829 128.645C81.1002 128.645 81.3185 128.645 81.5368 128.652C81.9267 128.67 82.2239 128.905 82.2385 129.268C82.2648 129.889 82.2619 130.512 82.2385 131.133C82.2282 131.291 82.1612 131.439 82.05 131.552C81.9389 131.664 81.7909 131.732 81.6333 131.744C81.4162 131.763 81.1983 131.771 80.9803 131.768C80.0769 131.768 79.1735 131.768 78.27 131.768C78.0517 131.768 77.8334 131.768 77.6161 131.78C77.2701 131.802 77.0489 132.019 77.0051 132.372C76.99 132.495 76.9821 132.619 76.9817 132.743C76.9817 134.55 76.9817 136.357 76.9817 138.163C76.9815 138.287 76.9896 138.412 77.006 138.535C77.0518 138.886 77.276 139.104 77.6229 139.12C77.9026 139.132 78.1833 139.129 78.463 139.129H86.0433C86.2918 139.129 86.5422 139.129 86.7898 139.146C86.9472 139.156 87.0956 139.223 87.2072 139.334C87.3188 139.446 87.3859 139.594 87.396 139.752C87.4086 140.405 87.4038 141.058 87.3901 141.712C87.3901 141.939 87.1377 142.176 86.9028 142.219C86.8117 142.239 86.7191 142.25 86.6261 142.254C86.4077 142.259 86.1894 142.254 85.9711 142.254H72.0464C71.7667 142.254 71.4851 142.254 71.2063 142.231C71.066 142.214 70.9352 142.152 70.8341 142.053C70.7329 141.954 70.6672 141.825 70.6469 141.685C70.6195 141.407 70.6071 141.127 70.6099 140.847C70.6099 137.483 70.6099 134.12 70.6099 130.757L70.6079 130.205Z" fill="#2C4099"/>
<path d="M235.134 131.718C235.134 134.769 235.134 137.821 235.134 140.873C235.134 141.153 235.134 141.434 235.109 141.712C235.093 141.935 234.845 142.182 234.622 142.221C234.5 142.244 234.376 142.257 234.252 142.259C232.726 142.259 231.199 142.259 229.671 142.259C229.574 142.259 229.484 142.259 229.392 142.247C229.235 142.234 229.088 142.166 228.976 142.056C228.865 141.946 228.795 141.8 228.781 141.643C228.77 141.519 228.768 141.395 228.767 141.27C228.767 141.021 228.767 140.772 228.767 140.523V122.772C228.767 122.492 228.767 122.212 228.756 121.932C228.735 121.551 228.49 121.31 228.096 121.282C227.848 121.264 227.598 121.266 227.349 121.266C225.854 121.266 224.359 121.266 222.866 121.266C222.617 121.266 222.369 121.249 222.123 121.216C221.997 121.203 221.88 121.145 221.793 121.052C221.706 120.96 221.655 120.84 221.649 120.713C221.634 120.061 221.629 119.407 221.649 118.754C221.655 118.428 221.921 118.198 222.272 118.181C222.552 118.166 222.833 118.17 223.113 118.17H241.047C241.264 118.17 241.482 118.17 241.699 118.187C241.981 118.21 242.248 118.453 242.255 118.729C242.27 119.383 242.27 120.036 242.255 120.689C242.248 120.981 242.015 121.199 241.708 121.232C241.461 121.257 241.212 121.269 240.964 121.267C239.437 121.267 237.91 121.267 236.383 121.267C236.135 121.267 235.886 121.282 235.64 121.313C235.516 121.333 235.401 121.393 235.314 121.484C235.228 121.574 235.173 121.691 235.158 121.816C235.138 122.095 235.132 122.375 235.132 122.655C235.132 125.677 235.132 128.698 235.134 131.718Z" fill="#2B3E98"/>
<path d="M78.3685 153.827C78.3685 152.769 78.3685 151.71 78.3685 150.65C78.3633 150.464 78.3744 150.278 78.4016 150.095C78.4152 150.022 78.5078 149.955 78.579 149.907C78.6355 149.881 78.6982 149.871 78.7602 149.877C79.3206 149.877 79.881 149.877 80.4424 149.877C80.7649 149.877 80.8721 149.975 80.9628 150.299C81.1119 150.839 81.2551 151.381 81.3945 151.923C81.6583 152.915 81.9231 153.907 82.1888 154.899C82.2375 155.078 82.3048 155.253 82.3613 155.431C82.3876 155.512 82.4285 155.535 82.4929 155.498C82.5192 155.483 82.5611 155.476 82.5708 155.454C82.6249 155.344 82.6702 155.23 82.7063 155.112C83.0857 153.701 83.4635 152.288 83.8397 150.874C83.9118 150.604 83.984 150.333 84.0785 150.071C84.1058 149.998 84.211 149.951 84.2851 149.898C84.3137 149.884 84.3454 149.879 84.3767 149.883C84.9995 149.883 85.6222 149.873 86.245 149.883C86.514 149.883 86.6114 150.007 86.6202 150.3C86.6202 150.424 86.6202 150.549 86.6202 150.674C86.6202 152.791 86.6202 154.909 86.6202 157.027C86.6202 157.182 86.6202 157.338 86.6114 157.494C86.6046 157.68 86.5042 157.798 86.3366 157.802C86.026 157.808 85.7151 157.808 85.4039 157.802C85.2285 157.802 85.1281 157.689 85.1232 157.502C85.1154 157.222 85.1125 156.942 85.1125 156.661C85.1086 155.073 85.1063 153.485 85.1057 151.897C85.1057 151.8 85.0843 151.773 85.0082 151.805C84.9829 151.816 84.9468 151.828 84.9381 151.849C84.8729 151.99 84.8166 152.134 84.7695 152.281C84.326 153.869 83.8924 155.458 83.445 157.047C83.3865 157.256 83.3135 157.462 83.2355 157.665C83.2223 157.691 83.2035 157.715 83.1802 157.734C83.157 157.753 83.13 157.766 83.101 157.774C82.7015 157.837 82.2946 157.84 81.8945 157.781C81.8651 157.774 81.8375 157.762 81.8135 157.744C81.7895 157.726 81.7696 157.703 81.7551 157.676C81.6853 157.538 81.6283 157.395 81.5846 157.246C81.1453 155.687 80.7081 154.129 80.2728 152.574C80.2055 152.334 80.1295 152.097 80.0535 151.86C80.0467 151.84 80.0067 151.826 79.9804 151.816C79.9239 151.795 79.8937 151.831 79.8927 151.914C79.8868 152.193 79.8771 152.474 79.8771 152.754C79.8771 154.155 79.8771 155.557 79.8771 156.958C79.8801 157.176 79.8693 157.393 79.8449 157.61C79.8394 157.658 79.8165 157.702 79.7805 157.734C79.7445 157.765 79.6981 157.783 79.65 157.783C79.2777 157.783 78.9055 157.783 78.5341 157.772C78.5044 157.764 78.4771 157.748 78.4549 157.727C78.4328 157.705 78.4164 157.679 78.4074 157.649C78.3821 157.496 78.3694 157.34 78.3694 157.185C78.3694 156.064 78.3694 154.943 78.3694 153.822L78.3685 153.827Z" fill="#FFCE18"/>
<path d="M12.8293 153.579C12.9268 153.763 13.1109 153.803 13.2649 153.893C13.7912 154.199 14.0504 154.673 14.1109 155.265C14.1423 155.576 14.1168 155.89 14.0358 156.192C13.9749 156.45 13.8596 156.693 13.6974 156.904C13.5352 157.114 13.33 157.288 13.0954 157.413C12.6582 157.657 12.1681 157.791 11.6676 157.803C10.9211 157.81 10.1736 157.816 9.42608 157.816C9.02163 157.816 8.61718 157.806 8.21273 157.795C8.15238 157.787 8.09665 157.758 8.05444 157.714C8.01222 157.67 7.98595 157.613 7.97981 157.552C7.97201 157.455 7.96032 157.366 7.96032 157.274C7.96032 154.999 7.96032 152.726 7.96032 150.455C7.95441 150.331 7.96956 150.207 8.00515 150.089C8.02304 150.048 8.0488 150.012 8.08092 149.981C8.11304 149.951 8.15089 149.927 8.19227 149.911C8.31275 149.88 8.43729 149.867 8.56163 149.873C9.3715 149.873 10.1814 149.863 10.9903 149.873C11.3323 149.873 11.6725 149.913 12.0146 149.951C12.355 149.997 12.6803 150.12 12.9648 150.313C13.2885 150.51 13.5243 150.824 13.6236 151.19C13.7678 151.743 13.7639 152.297 13.5193 152.833C13.3673 153.16 13.107 153.376 12.8293 153.579ZM10.9474 154.411C9.31205 154.426 9.52549 154.257 9.506 155.665C9.506 155.851 9.51769 156.037 9.52939 156.223C9.53426 156.285 9.56096 156.343 9.6047 156.387C9.64845 156.43 9.70638 156.457 9.76815 156.463C10.2964 156.468 10.8246 156.484 11.3518 156.463C11.5672 156.437 11.7795 156.39 11.9853 156.322C12.0449 156.304 12.1024 156.28 12.1568 156.25C12.7416 155.958 12.6948 154.901 12.2689 154.641C12.1182 154.531 11.9418 154.46 11.7563 154.437C11.4152 154.424 11.0731 154.415 10.9474 154.411ZM10.4601 153.15V153.155C10.5839 153.155 10.7076 153.155 10.8314 153.155C11.0478 153.15 11.2638 153.135 11.4785 153.108C11.6624 153.073 11.8302 152.98 11.957 152.842C12.0838 152.705 12.1628 152.53 12.1822 152.344C12.2338 151.914 12.0769 151.601 11.7358 151.404C11.5152 151.288 11.2673 151.234 11.0185 151.249C9.23117 151.259 9.52548 150.978 9.51379 152.753C9.51379 153.046 9.62002 153.143 9.90362 153.15C10.0868 153.154 10.273 153.15 10.4591 153.15H10.4601Z" fill="#FFCF1B"/>
<path d="M36.3224 153.768C36.3224 152.646 36.3224 151.524 36.3224 150.404C36.3224 150.306 36.3312 150.217 36.338 150.125C36.3447 150.063 36.3734 150.005 36.4188 149.963C36.4642 149.92 36.5234 149.895 36.5856 149.893C36.9588 149.883 37.3331 149.88 37.7063 149.874C37.8 149.868 37.8935 149.889 37.9754 149.935C38.0574 149.981 38.1243 150.05 38.1683 150.133C38.588 150.86 39.0103 151.588 39.4352 152.316C39.9485 153.205 40.464 154.094 40.9819 154.982C41.0053 155.024 41.0725 155.044 41.1232 155.064C41.1446 155.071 41.1992 155.053 41.2002 155.04C41.23 154.889 41.2482 154.735 41.2548 154.581C41.2548 153.366 41.2548 152.152 41.2548 150.937C41.2548 149.767 41.168 149.864 42.4008 149.878C42.4632 149.874 42.5255 149.886 42.5821 149.912C42.6593 149.956 42.7235 150.019 42.7683 150.096C42.7995 150.183 42.8121 150.277 42.8053 150.369C42.8053 152.674 42.8053 154.979 42.8053 157.284C42.8035 157.407 42.7855 157.53 42.7517 157.648C42.7415 157.676 42.7251 157.701 42.7036 157.722C42.6821 157.742 42.6563 157.758 42.6279 157.767C42.3822 157.798 42.1349 157.814 41.8872 157.817C40.9478 157.817 41.1232 157.904 40.6632 157.107C39.8835 155.758 39.1243 154.401 38.3495 153.05C38.2443 152.866 38.1683 152.655 37.9704 152.534C37.9159 152.501 37.8886 152.499 37.8798 152.561C37.8574 152.678 37.843 152.796 37.8369 152.915C37.8369 154.223 37.8369 155.532 37.8369 156.84C37.8369 157.058 37.8369 157.276 37.8281 157.494C37.8223 157.682 37.7219 157.799 37.5562 157.802C37.245 157.809 36.9338 157.809 36.6226 157.802C36.5837 157.803 36.545 157.796 36.509 157.781C36.4731 157.766 36.4407 157.743 36.4139 157.715C36.3872 157.687 36.3667 157.653 36.3538 157.616C36.3409 157.58 36.3358 157.541 36.339 157.502C36.3318 156.879 36.3283 156.256 36.3283 155.634C36.3283 155.011 36.3283 154.388 36.3283 153.765L36.3224 153.768Z" fill="#FFCF1B"/>
<path d="M55.3491 155.648C55.3491 156.27 55.3491 156.892 55.3491 157.513C55.3491 157.59 55.3183 157.664 55.2634 157.719C55.2086 157.774 55.1342 157.805 55.0567 157.805C54.8394 157.812 54.622 157.816 54.4037 157.814C54.0782 157.814 54.0782 157.808 53.9291 157.396C53.893 157.298 53.7897 157.239 53.7215 157.281C53.6163 157.347 53.5139 157.417 53.4087 157.483C53.1744 157.636 52.9194 157.753 52.6514 157.832C51.6769 158.111 50.7364 157.999 49.8359 157.579C48.8067 157.098 48.2327 156.232 47.9442 155.163C47.7109 154.318 47.7059 153.427 47.9296 152.58C48.3097 151.135 49.18 150.155 50.6682 149.834C51.5609 149.639 52.4692 149.669 53.3307 150.017C54.2799 150.401 54.9202 151.081 55.1883 152.086C55.2224 152.213 55.1405 152.357 55.0245 152.361C54.7445 152.369 54.4648 152.375 54.1854 152.378C54.0613 152.384 53.9368 152.378 53.8141 152.358C53.7279 152.335 53.6484 152.291 53.5822 152.232C53.5414 152.184 53.5085 152.13 53.4847 152.073C52.976 151.195 52.1671 150.98 51.2432 151.118C50.4791 151.232 49.9314 151.689 49.6419 152.401C49.4522 152.847 49.3532 153.326 49.3507 153.81C49.3481 154.294 49.4422 154.774 49.6273 155.222C50.0298 156.211 50.7803 156.624 51.9381 156.596C52.1244 156.585 52.3094 156.556 52.4906 156.511C53.2264 156.352 53.6601 155.877 53.7722 155.102C53.7797 155.064 53.7789 155.025 53.7699 154.987C53.7608 154.95 53.7438 154.915 53.7198 154.885C53.6959 154.855 53.6657 154.83 53.6313 154.813C53.5969 154.796 53.5592 154.786 53.5208 154.785C53.1173 154.768 52.7138 154.763 52.3113 154.734C52.2683 154.724 52.2282 154.705 52.1943 154.677C52.1604 154.649 52.1337 154.613 52.1164 154.572C52.042 154.269 52.0397 153.953 52.1096 153.649C52.1193 153.602 52.1914 153.552 52.245 153.532C52.3028 153.508 52.3649 153.497 52.4273 153.499C53.2985 153.499 54.1688 153.499 55.0401 153.499C55.2438 153.499 55.3569 153.632 55.3578 153.869C55.3578 154.461 55.3578 155.052 55.3578 155.643L55.3491 155.648Z" fill="#FFCF1B"/>
<path d="M154.069 153.787C154.069 152.698 154.069 151.609 154.069 150.521C154.069 150.397 154.078 150.272 154.087 150.148C154.093 150.087 154.119 150.03 154.16 149.984C154.202 149.939 154.257 149.908 154.317 149.897C154.415 149.888 154.503 149.874 154.596 149.874C155.498 149.874 156.401 149.867 157.303 149.874C157.615 149.874 157.926 149.899 158.233 149.949C158.908 150.067 159.481 150.374 159.774 151.022C159.954 151.404 160.045 151.822 160.04 152.244C160.034 152.667 159.932 153.082 159.741 153.459C159.583 153.765 159.35 154.026 159.063 154.217C158.832 154.382 158.833 154.485 158.917 154.685C159.239 155.46 159.563 156.234 159.881 157.011C159.961 157.212 160.028 157.418 160.084 157.627C160.083 157.654 160.076 157.681 160.062 157.705C160.048 157.729 160.028 157.748 160.005 157.762C159.577 157.839 159.139 157.843 158.71 157.773C158.65 157.757 158.598 157.719 158.564 157.667C158.516 157.587 158.476 157.503 158.444 157.415C158.144 156.664 157.844 155.914 157.544 155.163C157.499 155.048 157.445 154.937 157.382 154.831C157.336 154.755 157.285 154.664 157.174 154.664C156.709 154.664 156.243 154.664 155.777 154.675C155.732 154.675 155.664 154.748 155.65 154.799C155.62 154.92 155.604 155.043 155.604 155.167C155.599 155.82 155.604 156.473 155.604 157.127C155.607 157.283 155.598 157.438 155.576 157.592C155.572 157.638 155.552 157.682 155.52 157.716C155.488 157.751 155.445 157.773 155.399 157.781C155.277 157.8 155.153 157.811 155.03 157.816C154.013 157.816 154.067 157.913 154.067 156.868L154.069 153.787ZM156.695 151.253V151.261C156.416 151.261 156.137 151.261 155.858 151.261C155.797 151.266 155.739 151.293 155.697 151.337C155.654 151.382 155.629 151.44 155.626 151.501C155.626 152.028 155.626 152.555 155.626 153.082C155.634 153.142 155.662 153.199 155.707 153.24C155.752 153.282 155.81 153.306 155.872 153.309C156.398 153.313 156.926 153.316 157.454 153.317C157.548 153.318 157.641 153.307 157.731 153.284C158.273 153.133 158.478 152.848 158.502 152.369C158.505 152.276 158.502 152.183 158.492 152.09C158.484 151.934 158.431 151.783 158.339 151.656C158.248 151.529 158.122 151.43 157.977 151.373C157.836 151.309 157.686 151.271 157.532 151.258C157.25 151.238 156.97 151.251 156.69 151.251L156.695 151.253Z" fill="#FFCE14"/>
<path d="M145.19 149.748C145.738 149.718 146.285 149.81 146.793 150.017C147.916 150.482 148.575 151.341 148.888 152.488C149.134 153.363 149.138 154.289 148.898 155.167C148.588 156.309 147.962 157.199 146.833 157.66C146.315 157.877 145.758 157.99 145.195 157.99C144.633 157.99 144.076 157.877 143.557 157.66C142.764 157.346 142.127 156.734 141.781 155.955C141.424 155.188 141.273 154.342 141.342 153.499C141.367 153.094 141.438 152.694 141.554 152.306C142.083 150.551 143.551 149.752 144.965 149.744L145.19 149.748ZM147.457 153.657C147.452 153.449 147.433 153.242 147.401 153.037C147.269 152.335 146.95 151.732 146.307 151.379C145.173 150.755 143.712 151.121 143.177 152.423C142.983 152.884 142.885 153.38 142.889 153.881C142.893 154.382 142.999 154.876 143.2 155.335C143.546 156.164 144.226 156.594 145.101 156.621C146.008 156.649 146.727 156.262 147.153 155.417C147.399 154.929 147.466 154.409 147.457 153.653V153.657Z" fill="#FFCF1B"/>
<path d="M105.318 149.851L107.184 149.927C107.528 149.948 107.862 150.05 108.158 150.225C108.494 150.398 108.761 150.68 108.916 151.025C109.265 151.839 109.286 152.655 108.881 153.456C108.793 153.621 108.684 153.772 108.555 153.907C108.431 154.045 108.275 154.153 108.14 154.282C108.091 154.321 108.057 154.375 108.041 154.436C108.026 154.496 108.03 154.56 108.053 154.618C108.141 154.85 108.228 155.083 108.321 155.314C108.532 155.833 108.738 156.353 108.958 156.868C109.412 157.927 109.386 157.807 108.285 157.815C108.161 157.822 108.037 157.813 107.916 157.787C107.827 157.765 107.75 157.71 107.7 157.633C107.586 157.414 107.493 157.182 107.4 156.951C107.134 156.286 106.875 155.62 106.61 154.955C106.536 154.771 106.415 154.64 106.196 154.642C105.822 154.642 105.448 154.642 105.075 154.642C104.861 154.642 104.756 154.762 104.754 155.006C104.747 155.566 104.754 156.126 104.746 156.687C104.746 156.967 104.739 157.246 104.731 157.526C104.73 157.588 104.708 157.647 104.668 157.694C104.628 157.742 104.573 157.773 104.512 157.784C104.141 157.784 103.769 157.784 103.397 157.773C103.354 157.773 103.291 157.695 103.276 157.642C103.251 157.552 103.24 157.459 103.243 157.365C103.243 155.03 103.243 152.696 103.243 150.362C103.235 150.269 103.246 150.176 103.275 150.088C103.311 150.007 103.377 149.942 103.458 149.906C103.578 149.876 103.702 149.864 103.825 149.87C104.324 149.87 104.822 149.87 105.32 149.87L105.318 149.851ZM105.867 153.311C106.116 153.311 106.365 153.322 106.613 153.311C107.366 153.266 107.727 152.823 107.63 152.067C107.621 152.005 107.607 151.944 107.59 151.884C107.549 151.734 107.46 151.601 107.336 151.505C107.172 151.358 106.964 151.271 106.744 151.258C106.16 151.251 105.565 151.258 104.975 151.258C104.914 151.266 104.858 151.297 104.818 151.345C104.779 151.392 104.757 151.452 104.759 151.514C104.754 152.011 104.752 152.507 104.752 153.004C104.749 153.042 104.754 153.08 104.766 153.117C104.779 153.153 104.799 153.186 104.825 153.215C104.851 153.243 104.882 153.266 104.918 153.281C104.953 153.297 104.991 153.305 105.029 153.305C105.309 153.315 105.588 153.312 105.867 153.312V153.311Z" fill="#FFCE14"/>
<path d="M215.655 153.858C215.655 152.801 215.655 151.743 215.655 150.685C215.65 150.499 215.661 150.313 215.688 150.129C215.701 150.087 215.722 150.048 215.752 150.016C215.781 149.983 215.818 149.958 215.859 149.942C215.978 149.908 216.102 149.895 216.226 149.902C217.16 149.902 218.093 149.902 219.026 149.902C219.244 149.902 219.461 149.914 219.678 149.938C220.683 150.051 221.318 150.642 221.53 151.626C221.618 152.021 221.618 152.431 221.53 152.826C221.44 153.288 221.206 153.708 220.86 154.026C220.768 154.11 220.665 154.184 220.575 154.267C220.516 154.318 220.476 154.387 220.461 154.463C220.447 154.539 220.458 154.619 220.495 154.687C220.67 155.119 220.841 155.553 221.015 155.985C221.225 156.504 221.436 157.021 221.644 157.54C221.653 157.568 221.656 157.599 221.653 157.629C221.649 157.658 221.639 157.687 221.622 157.712C221.606 157.738 221.584 157.759 221.559 157.775C221.533 157.79 221.504 157.8 221.474 157.803C219.972 157.803 220.27 158.06 219.732 156.714C219.489 156.109 219.251 155.5 219.003 154.897C218.976 154.823 218.927 154.759 218.863 154.715C218.798 154.67 218.721 154.646 218.643 154.647C218.239 154.647 217.835 154.651 217.431 154.657C217.369 154.661 217.311 154.686 217.267 154.728C217.222 154.771 217.194 154.827 217.187 154.888C217.177 155.073 217.165 155.26 217.164 155.446C217.164 156.005 217.164 156.565 217.164 157.126C217.171 157.28 217.161 157.436 217.135 157.589C217.12 157.662 217.028 157.77 216.966 157.773C216.595 157.792 216.223 157.794 215.853 157.773C215.793 157.773 215.701 157.655 215.691 157.578C215.667 157.362 215.657 157.144 215.662 156.927C215.656 155.908 215.654 154.885 215.655 153.858ZM218.317 151.257V151.248C218.037 151.248 217.756 151.248 217.475 151.248C217.437 151.245 217.398 151.249 217.362 151.262C217.325 151.275 217.291 151.295 217.263 151.321C217.235 151.347 217.212 151.379 217.196 151.414C217.181 151.45 217.173 151.488 217.173 151.527C217.164 151.931 217.158 152.336 217.16 152.741C217.16 153.288 217.194 153.317 217.744 153.326C218.119 153.326 218.493 153.326 218.867 153.326C219.023 153.329 219.178 153.313 219.33 153.28C219.453 153.255 219.57 153.205 219.673 153.135C219.777 153.065 219.866 152.974 219.934 152.869C220.349 152.187 219.957 151.319 219.162 151.265C218.878 151.24 218.597 151.257 218.317 151.257Z" fill="#FFCE14"/>
<path d="M210.418 152.785C210.418 153.502 210.418 154.218 210.418 154.935C210.417 155.309 210.365 155.681 210.262 156.04C210.165 156.437 209.967 156.803 209.689 157.102C209.41 157.4 209.06 157.623 208.671 157.748C207.692 158.095 206.623 158.086 205.65 157.722C204.823 157.43 204.318 156.819 204.106 155.979C204.021 155.647 203.975 155.307 203.97 154.964C203.956 153.404 203.965 151.845 203.97 150.291C203.964 150.229 203.975 150.166 204 150.109C204.045 150.036 204.108 149.938 204.179 149.923C204.547 149.855 204.923 149.85 205.292 149.909C205.353 149.923 205.407 149.957 205.448 150.004C205.488 150.051 205.513 150.11 205.517 150.172C205.525 150.421 205.53 150.67 205.53 150.919C205.53 152.165 205.53 153.411 205.53 154.657C205.523 154.937 205.54 155.217 205.58 155.495C205.677 156.034 205.997 156.382 206.536 156.522C206.991 156.641 207.469 156.635 207.921 156.503C208.118 156.451 208.298 156.349 208.444 156.207C208.59 156.065 208.696 155.887 208.753 155.691C208.849 155.362 208.892 155.019 208.879 154.677C208.879 153.586 208.879 152.496 208.879 151.405C208.879 151.28 208.879 151.156 208.879 151.031C208.886 149.7 208.747 149.874 210.11 149.887C210.148 149.885 210.187 149.892 210.224 149.905C210.26 149.919 210.294 149.94 210.322 149.966C210.35 149.993 210.373 150.025 210.389 150.061C210.404 150.096 210.413 150.135 210.414 150.174C210.414 151.045 210.414 151.918 210.414 152.79L210.418 152.785Z" fill="#FFCF1B"/>
<path d="M67.6998 155.224C67.8558 155.224 68.0107 155.224 68.1666 155.224C68.2288 155.224 68.2899 155.241 68.3428 155.274C68.3956 155.307 68.4383 155.354 68.4658 155.41C68.5233 155.52 68.5711 155.635 68.6266 155.746C68.7313 155.956 68.8807 156.141 69.0645 156.286C69.2482 156.432 69.4617 156.536 69.6899 156.59C70.2474 156.741 70.8009 156.734 71.3213 156.448C71.4738 156.366 71.6004 156.244 71.6865 156.094C71.7727 155.944 71.815 155.773 71.8086 155.6C71.8097 155.443 71.7679 155.288 71.6876 155.153C71.6074 155.018 71.4919 154.908 71.3535 154.834C71.0275 154.651 70.674 154.522 70.3068 154.452C69.9735 154.375 69.6373 154.312 69.3049 154.231C68.8803 154.133 68.4711 153.977 68.0887 153.768C67.7261 153.563 67.425 153.288 67.2856 152.891C66.9708 151.996 67.0907 150.812 68.1355 150.187C68.376 150.044 68.6365 149.937 68.9083 149.869C69.84 149.642 70.76 149.674 71.6371 150.118C72.0037 150.294 72.3242 150.553 72.5731 150.874C72.8219 151.196 72.9923 151.571 73.0707 151.97C73.0759 152 73.0743 152.031 73.0661 152.061C73.0579 152.091 73.0433 152.118 73.0232 152.141C73.0032 152.164 72.9783 152.183 72.9503 152.195C72.9222 152.208 72.8918 152.214 72.8612 152.213C72.5191 152.219 72.179 152.225 71.8359 152.213C71.7732 152.216 71.7109 152.2 71.6569 152.168C71.6029 152.136 71.5594 152.089 71.5318 152.033C71.1245 151.155 70.3926 150.96 69.5125 151.069C69.3272 151.096 69.151 151.167 68.9989 151.276C68.8947 151.345 68.8091 151.439 68.7496 151.549C68.6901 151.66 68.6586 151.783 68.6578 151.908C68.6495 152.033 68.6739 152.158 68.7286 152.27C68.7833 152.383 68.8664 152.479 68.9697 152.549C69.2278 152.725 69.5168 152.849 69.8215 152.917C70.1519 153.003 70.49 153.06 70.8224 153.14C71.3369 153.265 71.8437 153.409 72.3086 153.676C72.5422 153.802 72.7478 153.975 72.9127 154.183C73.0775 154.391 73.1983 154.631 73.2676 154.887C73.5034 155.742 73.291 156.929 72.2141 157.546C71.9425 157.698 71.6489 157.808 71.3438 157.871C70.3654 158.103 69.3368 157.99 68.4327 157.55C68.0617 157.383 67.7347 157.132 67.478 156.816C67.2213 156.501 67.0419 156.13 66.9543 155.732C66.8568 155.326 66.925 155.22 67.3314 155.213C67.4562 155.213 67.58 155.213 67.7047 155.213L67.6998 155.224Z" fill="#FFCF1B"/>
<path d="M19.1309 153.816C19.1309 152.728 19.1309 151.639 19.1309 150.55C19.1309 150.396 19.1504 150.242 19.1641 150.088C19.1738 149.973 19.2722 149.933 19.359 149.912C19.48 149.884 19.6041 149.871 19.7283 149.873C21.1291 149.873 22.5296 149.873 23.9297 149.873C24.0528 149.875 24.175 149.894 24.2932 149.928C24.3218 149.938 24.3477 149.955 24.3693 149.976C24.3908 149.997 24.4075 150.023 24.418 150.052C24.5031 150.383 24.5054 150.731 24.4248 151.064C24.4165 151.093 24.4012 151.121 24.3802 151.144C24.3591 151.166 24.333 151.184 24.304 151.194C24.1834 151.224 24.0597 151.238 23.9356 151.237C23.0643 151.237 22.193 151.237 21.3218 151.237C21.167 151.24 21.0125 151.251 20.8588 151.269C20.8121 151.273 20.768 151.292 20.734 151.325C20.7001 151.357 20.6784 151.4 20.6727 151.447C20.6519 151.85 20.6425 152.254 20.6444 152.659C20.6444 153.065 20.7263 153.146 21.1376 153.146C21.9172 153.151 22.6969 153.146 23.4707 153.146C23.595 153.148 23.719 153.158 23.842 153.175C23.8877 153.184 23.9296 153.206 23.962 153.24C23.9945 153.273 24.0159 153.316 24.0233 153.361C24.053 153.482 24.0687 153.605 24.0701 153.729C24.0788 154.467 24.0701 154.525 23.3021 154.517C22.6482 154.51 21.9952 154.517 21.3412 154.517C21.2175 154.517 21.0927 154.524 20.969 154.532C20.8919 154.538 20.8192 154.571 20.7632 154.624C20.7071 154.677 20.671 154.748 20.661 154.825C20.6503 155.041 20.6415 155.26 20.6425 155.477C20.6425 155.725 20.6532 155.973 20.6629 156.222C20.6714 156.283 20.7006 156.339 20.7457 156.381C20.7908 156.423 20.849 156.448 20.9105 156.452C21.0966 156.461 21.2828 156.468 21.4689 156.468C22.2486 156.468 23.0282 156.468 23.803 156.468C23.9576 156.463 24.1123 156.476 24.264 156.506C24.3057 156.52 24.3434 156.544 24.3739 156.576C24.4045 156.607 24.4269 156.646 24.4394 156.688C24.4618 156.966 24.457 157.245 24.456 157.524C24.453 157.586 24.4292 157.645 24.3885 157.691C24.3478 157.738 24.2926 157.769 24.2318 157.78C24.109 157.789 23.9853 157.803 23.8615 157.803C22.4925 157.803 21.1233 157.803 19.7537 157.803C19.5988 157.802 19.4444 157.786 19.2927 157.754C19.2636 157.744 19.2373 157.727 19.216 157.705C19.1946 157.683 19.1788 157.656 19.1699 157.627C19.1455 157.473 19.1338 157.318 19.1348 157.163C19.1309 156.052 19.1296 154.936 19.1309 153.816Z" fill="#FFCE18"/>
<path d="M188.374 152.781C188.374 153.529 188.374 154.276 188.374 155.024C188.374 155.398 188.316 155.769 188.202 156.125C188.095 156.502 187.897 156.847 187.625 157.129C187.353 157.411 187.016 157.622 186.643 157.743C185.695 158.083 184.659 158.087 183.708 157.755C182.745 157.421 182.175 156.718 182.021 155.708C181.969 155.338 181.944 154.965 181.946 154.591C181.938 153.191 181.946 151.79 181.946 150.389C181.939 150.296 181.947 150.203 181.973 150.113C182.003 150.036 182.07 149.935 182.14 149.918C182.508 149.852 182.884 149.849 183.252 149.908C183.312 149.923 183.366 149.955 183.406 150.002C183.446 150.048 183.471 150.106 183.476 150.168C183.481 150.416 183.486 150.666 183.486 150.914C183.486 152.159 183.486 153.404 183.486 154.649C183.477 154.929 183.493 155.21 183.534 155.487C183.57 155.735 183.68 155.967 183.851 156.151C184.021 156.336 184.243 156.464 184.488 156.519C184.939 156.652 185.419 156.648 185.867 156.507C186.062 156.453 186.241 156.352 186.388 156.214C186.536 156.075 186.649 155.904 186.717 155.713C186.827 155.388 186.875 155.045 186.859 154.703C186.859 153.427 186.859 152.151 186.859 150.875C186.859 150.626 186.865 150.377 186.874 150.129C186.879 150.066 186.906 150.008 186.951 149.965C186.997 149.922 187.056 149.897 187.118 149.895C187.459 149.895 187.801 149.901 188.142 149.908C188.202 149.922 188.256 149.954 188.297 150.001C188.337 150.048 188.36 150.107 188.364 150.169C188.364 150.355 188.374 150.542 188.374 150.728C188.374 151.411 188.374 152.093 188.374 152.782V152.781Z" fill="#FFCE18"/>
<path d="M97.6865 157.818H97.5891C96.8893 157.818 96.9673 157.818 96.75 157.194C96.3708 156.121 96.555 156.207 95.4119 156.204C94.8505 156.204 94.2898 156.207 93.7298 156.213C93.6353 156.211 93.5428 156.24 93.467 156.296C93.3912 156.353 93.3365 156.433 93.3117 156.524C93.1889 156.876 93.069 157.23 92.9462 157.582C92.9297 157.642 92.8942 157.696 92.8449 157.735C92.7955 157.774 92.7351 157.795 92.6723 157.797C92.2991 157.807 91.9258 157.803 91.5526 157.797C91.42 157.797 91.3518 157.677 91.3947 157.537C91.4375 157.397 91.4863 157.244 91.5379 157.092C92.3254 154.863 93.1135 152.634 93.9023 150.404C93.9364 150.285 93.9838 150.17 94.0436 150.061C94.0663 150.022 94.0966 149.988 94.1327 149.96C94.1689 149.933 94.2101 149.913 94.2541 149.902C94.6887 149.889 95.1234 149.889 95.5581 149.902C95.6029 149.91 95.6456 149.927 95.6837 149.952C95.7219 149.977 95.7547 150.009 95.7803 150.047C95.8462 150.152 95.8973 150.267 95.9323 150.386C96.7165 152.617 97.5001 154.848 98.283 157.08C98.3336 157.226 98.3804 157.372 98.4165 157.525C98.4235 157.554 98.4244 157.585 98.4194 157.614C98.4143 157.644 98.4032 157.672 98.3869 157.697C98.3706 157.722 98.3493 157.743 98.3244 157.76C98.2995 157.777 98.2715 157.788 98.242 157.793C98.0559 157.793 97.8688 157.793 97.6826 157.793L97.6865 157.818ZM94.9333 154.855H95.2121C95.9995 154.849 96.0015 154.848 95.7569 154.085C95.5678 153.495 95.3758 152.906 95.1809 152.317C95.1331 152.17 95.0834 152.025 95.023 151.881C95.0117 151.853 94.9936 151.828 94.9704 151.808C94.9236 151.832 94.8534 151.855 94.8398 151.895C94.5659 152.684 94.294 153.475 94.0319 154.267C93.8613 154.782 93.9139 154.846 94.4685 154.852C94.6195 154.857 94.7784 154.855 94.9333 154.855Z" fill="#FFCE18"/>
<path d="M226.713 153.874C226.713 152.786 226.713 151.698 226.713 150.61C226.713 150.455 226.725 150.299 226.736 150.145C226.749 150.085 226.78 150.03 226.827 149.99C226.873 149.949 226.931 149.924 226.992 149.919C227.054 149.913 227.116 149.902 227.177 149.902C228.639 149.902 230.101 149.902 231.563 149.902C231.655 149.902 231.747 149.918 231.834 149.949C231.889 149.976 231.933 150.022 231.958 150.078C231.982 150.135 231.993 150.197 231.991 150.259C232.01 151.279 232.068 151.241 231.058 151.234C230.278 151.234 229.501 151.234 228.725 151.234C228.632 151.234 228.54 151.25 228.447 151.259C228.401 151.264 228.358 151.283 228.324 151.313C228.289 151.344 228.264 151.384 228.252 151.428C228.227 151.518 228.217 151.612 228.223 151.705C228.251 153.369 227.946 153.124 229.626 153.147C230.186 153.155 230.746 153.155 231.306 153.162C231.382 153.164 231.456 153.195 231.51 153.25C231.564 153.304 231.596 153.377 231.598 153.454C231.605 153.671 231.608 153.889 231.604 154.106C231.604 154.349 231.506 154.462 231.287 154.473C230.915 154.492 230.542 154.506 230.168 154.511C229.702 154.518 229.236 154.511 228.769 154.511C228.671 154.511 228.584 154.525 228.492 154.535C228.431 154.546 228.375 154.575 228.331 154.617C228.287 154.66 228.256 154.715 228.242 154.775C228.236 155.24 228.23 155.706 228.232 156.172C228.23 156.211 228.237 156.25 228.252 156.286C228.267 156.322 228.289 156.354 228.317 156.381C228.345 156.407 228.379 156.428 228.416 156.441C228.452 156.453 228.491 156.458 228.53 156.455C229.153 156.462 229.775 156.462 230.396 156.465C230.832 156.465 231.267 156.471 231.702 156.479C231.741 156.479 231.778 156.486 231.814 156.5C231.849 156.515 231.881 156.537 231.908 156.564C231.935 156.591 231.956 156.624 231.97 156.659C231.984 156.695 231.99 156.733 231.989 156.772C231.989 157.02 231.987 157.268 231.983 157.517C231.983 157.684 231.865 157.782 231.678 157.791C231.58 157.796 231.492 157.801 231.399 157.801C230.03 157.801 228.662 157.801 227.293 157.801C227.169 157.808 227.045 157.796 226.924 157.766C226.883 157.752 226.845 157.728 226.814 157.698C226.783 157.667 226.759 157.63 226.745 157.589C226.718 157.404 226.707 157.218 226.712 157.032C226.712 155.984 226.712 154.932 226.713 153.874Z" fill="#FFCE14"/>
<path d="M171.831 153.788C171.831 152.699 171.831 151.609 171.831 150.52C171.831 150.396 171.841 150.272 171.85 150.148C171.856 150.087 171.881 150.029 171.923 149.983C171.965 149.938 172.02 149.907 172.081 149.896C172.204 149.886 172.328 149.872 172.452 149.872C173.791 149.872 175.13 149.872 176.469 149.872C176.624 149.873 176.779 149.886 176.932 149.911C176.978 149.917 177.021 149.938 177.055 149.97C177.089 150.002 177.112 150.044 177.121 150.09C177.139 150.181 177.148 150.273 177.149 150.366C177.149 151.243 177.224 151.243 176.296 151.243C175.549 151.243 174.802 151.243 174.054 151.243C173.899 151.237 173.743 151.248 173.59 151.274C173.549 151.287 173.51 151.309 173.479 151.339C173.447 151.369 173.423 151.407 173.409 151.448C173.378 151.632 173.365 151.818 173.371 152.004C173.385 153.283 173.213 153.146 174.51 153.155C175.133 153.155 175.756 153.155 176.379 153.161C176.649 153.161 176.755 153.281 176.759 153.572C176.759 153.789 176.759 154.008 176.751 154.225C176.746 154.303 176.71 154.376 176.652 154.429C176.593 154.481 176.517 154.508 176.439 154.505C176.19 154.517 175.942 154.524 175.693 154.525C175.102 154.525 174.51 154.525 173.918 154.525C173.82 154.525 173.733 154.542 173.64 154.552C173.579 154.56 173.522 154.587 173.478 154.63C173.435 154.674 173.406 154.73 173.397 154.791C173.385 155.07 173.374 155.35 173.37 155.63C173.363 156.252 173.364 156.874 173.357 157.497C173.36 157.575 173.332 157.651 173.279 157.709C173.226 157.766 173.153 157.801 173.075 157.805C172.982 157.811 172.889 157.815 172.795 157.815C171.778 157.815 171.83 157.912 171.83 156.867V153.786L171.831 153.788Z" fill="#FFCE18"/>
<path d="M131.437 153.829C131.437 152.772 131.437 151.713 131.437 150.654C131.432 150.468 131.444 150.282 131.473 150.098C131.487 150.025 131.576 149.956 131.647 149.903C131.703 149.876 131.766 149.865 131.828 149.872C133.322 149.872 134.816 149.872 136.311 149.872C136.404 149.874 136.496 149.893 136.582 149.928C136.609 149.938 136.634 149.954 136.655 149.975C136.676 149.995 136.693 150.02 136.705 150.047C136.781 150.38 136.781 150.727 136.705 151.061C136.695 151.089 136.679 151.115 136.658 151.136C136.636 151.158 136.61 151.174 136.582 151.183C136.431 151.214 136.277 151.229 136.123 151.23C135.282 151.23 134.441 151.23 133.6 151.23C133.445 151.231 133.291 151.244 133.139 151.27C133.108 151.282 133.082 151.301 133.06 151.325C133.039 151.35 133.025 151.379 133.018 151.411C132.99 151.532 132.977 151.656 132.979 151.78C132.979 152.153 132.989 152.526 132.998 152.899C133.004 152.96 133.031 153.017 133.075 153.061C133.118 153.104 133.175 153.131 133.236 153.137C133.422 153.146 133.608 153.157 133.794 153.157C134.418 153.157 135.041 153.157 135.664 153.157C135.819 153.157 135.974 153.169 136.129 153.18C136.189 153.194 136.243 153.226 136.284 153.272C136.325 153.318 136.35 153.376 136.356 153.437C136.356 153.717 136.363 153.997 136.342 154.275C136.331 154.319 136.311 154.359 136.281 154.393C136.251 154.427 136.214 154.453 136.172 154.47C136.023 154.51 135.869 154.529 135.714 154.526C135.06 154.532 134.407 154.526 133.753 154.532C133.566 154.532 133.381 154.555 133.196 154.573C133.15 154.58 133.107 154.601 133.074 154.635C133.041 154.668 133.02 154.711 133.014 154.757C132.987 154.942 132.975 155.128 132.977 155.315C132.977 155.969 132.977 156.622 132.977 157.277C132.977 157.4 132.962 157.523 132.934 157.643C132.925 157.672 132.909 157.698 132.888 157.72C132.868 157.742 132.842 157.759 132.814 157.77C132.418 157.85 132.01 157.852 131.613 157.776C131.585 157.767 131.56 157.751 131.539 157.73C131.519 157.709 131.503 157.684 131.494 157.656C131.464 157.473 131.447 157.288 131.444 157.103C131.435 156.009 131.437 154.92 131.437 153.829Z" fill="#FFCE18"/>
<path d="M116.104 154.544C116.104 153.704 116.104 152.864 116.104 152.025C116.104 151.84 116.082 151.653 116.07 151.468C116.063 151.355 115.972 151.307 115.893 151.273C115.803 151.247 115.71 151.236 115.617 151.241C115.275 151.237 114.933 151.237 114.59 151.241C113.636 151.241 113.713 151.268 113.713 150.297C113.708 150.235 113.714 150.172 113.73 150.112C113.761 150.029 113.792 149.932 113.902 149.917C114.024 149.895 114.147 149.881 114.27 149.876C116.012 149.876 117.755 149.876 119.496 149.876C119.62 149.87 119.744 149.886 119.862 149.924C119.903 149.941 119.94 149.968 119.969 150.002C119.999 150.036 120.02 150.076 120.032 150.119C120.055 150.396 120.051 150.676 120.048 150.954C120.043 151.032 120.007 151.105 119.949 151.157C119.891 151.21 119.815 151.238 119.737 151.235C119.333 151.241 118.928 151.235 118.524 151.244C118.306 151.241 118.089 151.251 117.873 151.274C117.83 151.285 117.791 151.305 117.759 151.334C117.726 151.363 117.701 151.4 117.686 151.441C117.657 151.656 117.644 151.873 117.648 152.09C117.648 153.676 117.648 155.262 117.648 156.848C117.648 157.096 117.648 157.346 117.621 157.592C117.618 157.639 117.599 157.684 117.567 157.718C117.535 157.753 117.492 157.775 117.446 157.783C117.355 157.802 117.263 157.813 117.17 157.818C116.02 157.811 116.113 157.96 116.11 156.784C116.102 156.037 116.104 155.29 116.104 154.544Z" fill="#FFCE18"/>
<path d="M196.268 149.871C197.077 149.871 197.886 149.871 198.695 149.871C198.851 149.866 199.006 149.88 199.157 149.914C199.2 149.929 199.238 149.953 199.269 149.986C199.3 150.018 199.322 150.057 199.335 150.1C199.36 150.347 199.371 150.595 199.366 150.842C199.366 151.127 199.258 151.232 198.968 151.232C198.408 151.24 197.847 151.238 197.287 151.245C197.072 151.245 196.967 151.368 196.959 151.601C196.959 151.698 196.954 151.787 196.954 151.88C196.954 152.098 196.954 152.316 196.954 152.534V156.921C196.954 157.107 196.954 157.294 196.944 157.48C196.935 157.699 196.824 157.801 196.582 157.806C196.341 157.811 196.084 157.813 195.835 157.806C195.543 157.8 195.451 157.708 195.445 157.416C195.439 156.636 195.44 155.856 195.439 155.082C195.439 154.055 195.439 153.029 195.439 152.001C195.443 151.815 195.433 151.629 195.407 151.445C195.4 151.397 195.377 151.354 195.341 151.322C195.306 151.29 195.26 151.271 195.212 151.269C194.84 151.258 194.468 151.248 194.095 151.238C193.816 151.23 193.535 151.238 193.256 151.211C193.213 151.202 193.173 151.182 193.139 151.154C193.105 151.126 193.078 151.09 193.061 151.05C192.978 150.718 192.978 150.371 193.061 150.04C193.072 150.012 193.088 149.987 193.11 149.967C193.131 149.946 193.157 149.931 193.185 149.922C193.336 149.891 193.49 149.874 193.644 149.871C194.521 149.869 195.391 149.871 196.268 149.871Z" fill="#FFCE18"/>
<path d="M31.0412 153.876C31.0412 154.934 31.0412 155.992 31.0412 157.051C31.045 157.237 31.0346 157.423 31.01 157.608C31.0039 157.655 30.9817 157.699 30.9472 157.731C30.9128 157.764 30.8682 157.783 30.8209 157.787C30.4798 157.797 30.1387 157.807 29.7976 157.808C29.629 157.808 29.5248 157.69 29.5131 157.509C29.5131 157.447 29.5033 157.385 29.5033 157.323C29.5033 154.989 29.5033 152.656 29.5033 150.322C29.5016 150.229 29.5148 150.136 29.5423 150.047C29.553 150.018 29.5699 149.992 29.5918 149.97C29.6137 149.949 29.6401 149.932 29.669 149.922C30.0647 149.837 30.4742 149.84 30.8687 149.931C30.8975 149.941 30.9236 149.957 30.9453 149.978C30.9669 150 30.9833 150.026 30.9934 150.055C31.022 150.207 31.037 150.361 31.0383 150.516C31.0422 151.636 31.0431 152.756 31.0412 153.876Z" fill="#FFCF1B"/>
</g>
<defs>
<clipPath id="clip0_173_465">
<rect width="242.267" height="158" fill="white"/>
</clipPath>
</defs>
</svg>
