<svg width="340" height="51" viewBox="0 0 340 51" fill="none" xmlns="http://www.w3.org/2000/svg">
<path d="M60.1428 22C60.021 21.9934 59.8997 21.9827 59.7778 21.9819C59.3844 21.9794 58.9906 21.9819 58.5971 21.9819C58.4032 21.9819 58.3943 21.9649 58.466 21.7674C58.4932 21.6932 58.5229 21.6194 58.5509 21.5456C58.57 21.4961 58.5895 21.447 58.6078 21.3975C58.626 21.348 58.5984 21.3122 58.5297 21.287C58.4117 21.2458 58.4062 21.2371 58.4329 21.1633C58.4554 21.101 58.4779 21.0396 58.5017 20.9773C58.6932 20.4844 58.8848 19.9918 59.0763 19.4994C59.0958 19.4355 59.1197 19.3729 59.148 19.3122C59.2045 19.2107 59.1714 19.141 59.0873 19.0734C58.973 18.979 58.8894 18.8544 58.8467 18.7146C58.7682 18.4812 58.8238 18.2738 58.9541 18.0759C58.9691 18.0539 58.986 18.0332 59.0046 18.014C59.0691 17.948 59.1349 17.8825 59.2002 17.8169C59.2066 17.699 59.2193 17.581 59.2193 17.4631C59.2193 14.9325 59.2193 12.4018 59.2193 9.87093C59.2193 9.7534 59.2091 9.63505 59.1973 9.51794C59.1973 9.50392 59.1506 9.47959 59.1336 9.48454C59.0566 9.50788 58.9816 9.53683 58.9091 9.57113C58.1194 9.95134 57.33 10.3325 56.5409 10.7146L45.8671 15.8693C45.7822 15.9105 45.6943 15.9464 45.6124 15.9905C45.5775 16.0105 45.5377 16.021 45.4972 16.021C45.4567 16.021 45.4169 16.0105 45.382 15.9905C45.1884 15.8948 44.9919 15.8054 44.7976 15.7113C39.6733 13.2371 34.5491 10.7629 29.4251 8.28866C29.2918 8.22433 29.1615 8.15381 29.0308 8.08495C29.0222 8.08094 29.0149 8.07481 29.0095 8.06717C29.0041 8.05952 29.0009 8.05064 29.0002 8.0414C28.9994 8.03217 29.0012 8.02291 29.0053 8.01456C29.0094 8.0062 29.0158 7.99905 29.0236 7.99381C29.131 7.93773 29.2379 7.88082 29.347 7.82887L44.5357 0.490309C44.8273 0.349691 45.1184 0.209072 45.4083 0.0651547C45.4253 0.0569073 45.4278 0.0239175 45.4371 0H45.5186C45.5258 0.0412371 45.5585 0.0618557 45.5959 0.0795876C46.7975 0.658557 47.999 1.23821 49.2003 1.81856L61.6873 7.84577C61.7844 7.89237 61.8791 7.94392 61.9746 7.9934C61.9828 7.99782 61.9896 8.00443 61.994 8.01245C61.9985 8.02047 62.0005 8.02957 61.9999 8.03868C61.9992 8.04778 61.9959 8.05651 61.9903 8.06383C61.9846 8.07116 61.977 8.07677 61.9682 8.08C61.8863 8.12536 61.8048 8.17237 61.7199 8.2132C61.222 8.45402 60.7244 8.69416 60.2273 8.93361C60.154 8.96671 60.0831 9.00459 60.0151 9.04701C59.9988 9.05795 59.9849 9.07193 59.9743 9.08815C59.9637 9.10437 59.9565 9.12249 59.9531 9.14144C59.9434 9.25938 59.9429 9.37814 59.9429 9.49649C59.9429 11.3142 59.9429 13.1318 59.9429 14.9493V17.3992C59.9429 17.5047 59.9429 17.6099 59.9429 17.7155C59.9401 17.7482 59.9461 17.7812 59.9603 17.811C59.9746 17.8409 59.9965 17.8666 60.024 17.8858C60.0571 17.9088 60.0882 17.9345 60.1169 17.9625C60.2601 18.0965 60.3446 18.2789 60.3529 18.4719C60.3612 18.6649 60.2927 18.8536 60.1615 18.9988C59.9828 19.1171 59.9917 19.2565 60.0681 19.4412C60.2803 19.9534 60.4726 20.4722 60.6721 20.9918C60.6958 21.0532 60.7205 21.1155 60.7404 21.1773C60.7466 21.1955 60.7457 21.2154 60.7379 21.233C60.7301 21.2506 60.7159 21.2649 60.698 21.273C60.5545 21.3555 60.549 21.3654 60.6076 21.5031C60.6211 21.5257 60.6375 21.5466 60.6564 21.5654L60.7413 21.8639C60.7455 21.8759 60.7469 21.8888 60.7452 21.9014C60.7435 21.914 60.7389 21.9261 60.7316 21.9367C60.7243 21.9473 60.7146 21.9561 60.7033 21.9624C60.6919 21.9687 60.6792 21.9724 60.6661 21.9732C60.49 21.986 60.3143 21.9559 60.1428 22Z" fill="#293D98"/>
<path d="M44.8722 50.8551C43.8942 50.8136 42.9982 50.772 42.1015 50.7305C41.8038 50.7181 41.5036 50.7056 41.2042 50.7056C41.0006 50.7052 40.8001 50.6574 40.6191 50.5662C39.9503 50.2403 39.2771 49.924 38.6062 49.6035C32.9915 46.9261 27.3769 44.2481 21.7623 41.5696L0.340186 31.3539C0.230905 31.3016 0.125023 31.2422 0.0187176 31.1837C0.0129996 31.1803 0.00827651 31.1755 0.00499862 31.1698C0.00172073 31.1641 0 31.1577 0 31.1511C0 31.1446 0.00172073 31.1381 0.00499862 31.1324C0.00827651 31.1267 0.0129996 31.1219 0.0187176 31.1185C0.0827131 31.0709 0.150545 31.0284 0.221548 30.9915C0.900199 30.6553 1.57928 30.3204 2.25878 29.987C3.49532 29.3762 4.73157 28.7652 5.96755 28.1539C6.0645 28.1061 6.1623 28.06 6.2601 28.014C6.28463 28.0023 6.3121 27.9978 6.33919 28.001C6.36629 28.0043 6.39184 28.0151 6.41275 28.0322C6.63939 28.2016 6.85881 28.3805 7.0931 28.542C7.69139 28.9571 8.31731 29.3307 8.95004 29.6951C10.2282 30.4286 11.5541 31.072 12.9008 31.6752C14.9767 32.6042 17.1032 33.4112 19.2561 34.1517C20.6525 34.6316 22.054 35.0965 23.4526 35.5714C26.3241 36.5473 29.165 37.6091 31.9612 38.7851C34.2706 39.7548 36.5481 40.7909 38.7592 41.9615C39.8946 42.5625 41.0129 43.1902 42.0785 43.9062C42.6049 44.2599 43.1177 44.6314 43.6114 45.027C44.0345 45.3611 44.4289 45.7284 44.7906 46.1254C44.8254 46.1657 44.864 46.2028 44.9058 46.2362C44.9166 46.2429 44.9288 46.247 44.9415 46.2482C44.9543 46.2493 44.9671 46.2475 44.9789 46.2428C45.0251 46.2153 45.0679 46.1827 45.1065 46.1457C45.7464 45.5231 46.4693 45.0092 47.239 44.5534C48.0184 44.0918 48.8335 43.697 49.6521 43.3081C51.4002 42.4779 53.1925 41.7485 55.0133 41.0839C57.2525 40.267 59.5176 39.5238 61.8087 38.8544C64.0836 38.1861 66.3798 37.5829 68.6832 37.0097C70.4203 36.5776 72.1598 36.1529 73.8837 35.6714C76.0923 35.0541 78.2677 34.3431 80.4036 33.5178C81.2381 33.1973 82.0553 32.8353 82.852 32.4332C83.5417 32.0889 84.2082 31.702 84.8475 31.275C84.9555 31.202 85.0363 31.2107 85.1418 31.275C85.6835 31.6071 86.2291 31.9292 86.7729 32.2563L90.6939 34.617C90.7751 34.6656 90.8572 34.7133 90.9337 34.7677C90.9646 34.7909 90.987 34.823 90.9979 34.8594C91.0098 34.9047 90.9682 34.93 90.9316 34.9454C90.8189 34.9923 90.7054 35.0367 90.5914 35.0799C87.8306 36.1268 85.0705 37.1731 82.3111 38.2189C76.6146 40.3807 70.9182 42.5436 65.2219 44.7074C59.8171 46.7591 54.4117 48.8103 49.0058 50.8609L48.7774 50.9439C48.6629 50.9866 48.5405 51.0053 48.4181 50.9987C47.6306 50.9602 46.8428 50.9245 46.0547 50.8916C45.6338 50.8758 45.2124 50.8659 44.8722 50.8551Z" fill="#293D98"/>
<path d="M45.0012 26.9983C44.7317 26.9983 44.4617 26.9895 44.1921 26.9983C43.7738 27.0087 43.3559 26.9621 42.9481 26.8595C41.4981 26.5258 40.1338 25.843 38.9538 24.8604C37.7737 23.8779 36.8073 22.6201 36.1244 21.1779C35.6308 20.1416 35.2954 19.0235 35.1314 17.8682C35.0378 17.2412 34.994 16.6064 35.0007 15.9711C35.0206 14.6979 35.2401 13.4379 35.6494 12.2463C35.6735 12.1773 35.7039 12.1116 35.7338 12.0445C35.7452 12.0268 35.7616 12.0136 35.7806 12.0071C35.7995 12.0006 35.8198 12.001 35.8384 12.0085C35.9228 12.0547 36.0072 12.0978 36.0915 12.144L38.1543 13.2679L44.6329 16.7979C44.7173 16.8442 44.8017 16.8882 44.8861 16.9367C44.9219 16.9575 44.9619 16.9683 45.0025 16.9683C45.0431 16.9683 45.083 16.9575 45.1189 16.9367C45.2159 16.8858 45.3117 16.8312 45.4079 16.7785C48.2435 15.234 51.0789 13.6896 53.9143 12.1454C54.2762 11.9488 54.2366 11.9002 54.3812 12.3305C54.6458 13.1214 54.8274 13.9427 54.9225 14.7787C55.009 15.542 55.0231 16.3132 54.9647 17.0797C54.8757 18.2752 54.6034 19.4456 54.1594 20.5417C52.8584 23.7718 50.3206 25.929 47.6035 26.7114C47.291 26.8017 46.9754 26.8798 46.6574 26.9428C46.4579 26.9782 46.2562 26.9963 46.0541 26.9969C45.7027 27.0029 45.3518 26.9983 45.0012 26.9983Z" fill="#293D98"/>
<path d="M40.524 41.4889C40.4393 41.4465 40.352 41.4088 40.2698 41.3618C38.0021 40.0348 35.6437 38.8887 33.2388 37.8396C31.3793 37.0295 29.5047 36.2571 27.6054 35.5432C25.9226 34.9106 24.2263 34.3144 22.5304 33.7213C21.0903 33.2145 19.6516 32.7017 18.2143 32.1828C16.2947 31.4854 14.4086 30.7054 12.564 29.8275C12.0392 29.5775 11.5225 29.3106 11.0024 29.0508C10.9299 29.0144 10.8596 28.9737 10.7906 28.9348C10.7608 28.9183 10.735 28.8956 10.715 28.8682C10.6949 28.8407 10.6811 28.8092 10.6745 28.7759C10.6436 28.6445 10.6148 28.5123 10.5864 28.3801C10.3204 27.1511 10.0547 25.9224 9.78929 24.694C9.5665 23.663 9.34428 22.632 9.12261 21.601C9.11517 21.5478 9.11304 21.494 9.11626 21.4404C9.11705 21.4348 9.11915 21.4295 9.12239 21.4248C9.12562 21.4202 9.12991 21.4164 9.13489 21.4137C9.1411 21.411 9.1478 21.4095 9.15459 21.4095C9.16137 21.4095 9.16808 21.411 9.17429 21.4137C9.22556 21.4568 9.27408 21.5031 9.31956 21.5523C10.406 22.7886 11.6411 23.861 12.9533 24.8478C14.5306 26.0389 16.1926 27.1133 17.9263 28.0624C19.4854 28.9123 21.1076 29.6169 22.7739 30.2258C23.5482 30.5088 24.3254 30.7842 25.0975 31.0732C27.7221 32.0557 30.2351 33.3137 32.5945 34.8263C35.0013 36.3652 37.2493 38.1396 39.3054 40.1233C39.6866 40.4898 40.0559 40.8656 40.4287 41.2393C40.4821 41.2994 40.532 41.3625 40.5782 41.4283C40.5582 41.4468 40.5401 41.467 40.524 41.4889Z" fill="#FFCD09"/>
<path d="M82.3402 24.4515C82.3483 24.4901 82.3694 24.5312 82.3618 24.5659C82.333 24.6977 82.2987 24.8286 82.2593 24.9574C81.7897 26.4957 81.3193 28.034 80.848 29.5723C80.6461 30.231 80.4438 30.8899 80.2411 31.5489C80.225 31.6006 80.2144 31.6544 80.1945 31.704C80.1829 31.7358 80.1647 31.7649 80.1411 31.7893C80.1175 31.8136 80.0891 31.8328 80.0577 31.8455C79.9823 31.8756 79.9077 31.9069 79.8327 31.9383C78.3109 32.5738 76.7577 33.1246 75.1867 33.6263C73.6679 34.1107 72.1354 34.5485 70.5894 34.9397C69.2933 35.2698 67.9934 35.585 66.7003 35.924C63.7075 36.7091 60.7358 37.5679 57.8014 38.5509C55.9801 39.1606 54.1753 39.805 52.401 40.5372C51.4514 40.9291 50.5111 41.3422 49.5852 41.7867C49.5018 41.8312 49.4161 41.8714 49.3285 41.907C49.2766 41.9179 49.2233 41.921 49.1705 41.9163L49.1773 41.9223C49.3984 41.7235 49.6148 41.5193 49.841 41.3261C52.5159 39.0325 55.4601 37.0733 58.6087 35.4918C60.5663 34.5059 62.6038 33.6875 64.6994 33.0454C65.5406 32.7912 66.3898 32.5641 67.2408 32.3467C69.1425 31.8671 71.0037 31.239 72.8072 30.468C74.6979 29.6561 76.5171 28.6868 78.2457 27.5704C78.8594 27.1729 79.4664 26.7653 80.0577 26.3357C80.8042 25.7963 81.5146 25.2085 82.1843 24.5761C82.2326 24.5303 82.2729 24.4731 82.3461 24.4621L82.3402 24.4515Z" fill="#FFCD09"/>
<path d="M44.5508 42.3896C44.5338 42.4053 44.5266 42.4175 44.519 42.418C44.5114 42.4184 44.486 42.415 44.4817 42.4065C44.4512 42.3464 44.422 42.2849 44.397 42.2226C43.5961 40.3121 42.6289 38.4757 41.5066 36.7345C40.2329 34.7518 38.7987 32.8771 37.2185 31.129C36.2401 30.0409 35.2137 29.0002 34.1393 28.0068C33.1875 27.1212 32.1985 26.2781 31.1862 25.4646C30.1527 24.6319 29.1503 23.7632 28.179 22.8584C27.2547 22.0026 26.3589 21.1182 25.4915 20.2052C25.1281 19.8239 24.7748 19.4294 24.4161 19.0422C24.3023 18.927 24.2281 18.7786 24.2043 18.6185C24.1162 18.0164 24.0065 17.4177 23.9078 16.8174C23.8053 16.2038 23.7039 15.59 23.6037 14.976C23.5101 14.4019 23.4203 13.8273 23.3258 13.2536C23.2314 12.68 23.1314 12.1071 23.037 11.5334C22.9425 10.9597 22.851 10.3852 22.7587 9.81068C22.7396 9.69119 22.721 9.57129 22.7036 9.45096C22.7036 9.44291 22.7125 9.42554 22.7172 9.42554C22.7299 9.42554 22.7485 9.4285 22.7544 9.4374C22.7929 9.49203 22.8285 9.5486 22.8612 9.60688C23.9654 11.6927 25.2598 13.6578 26.6563 15.5573C27.8202 17.1398 29.0676 18.6545 30.381 20.1154C31.5856 21.4551 32.8444 22.7418 34.1575 23.9753C34.9868 24.7536 35.8 25.5485 36.584 26.373C38.9143 28.8171 40.8282 31.6269 42.2496 34.6906C43.0999 36.5199 43.7516 38.4353 44.1933 40.4037C44.3237 40.9838 44.4211 41.5714 44.5321 42.1561C44.5425 42.2336 44.5487 42.3115 44.5508 42.3896Z" fill="#FFCD0B"/>
<path d="M59.9551 22.6042C60.1246 22.5588 60.3016 22.5898 60.4748 22.5766C60.4879 22.5758 60.5006 22.5721 60.5119 22.5655C60.5233 22.559 60.5329 22.55 60.5402 22.5391C60.5475 22.5282 60.5521 22.5158 60.5538 22.5029C60.5554 22.4899 60.5541 22.4767 60.5498 22.4644L60.4651 22.1576C60.6968 21.9496 60.931 21.7458 61.1593 21.5326C62.1273 20.624 63.0672 19.687 63.9789 18.7218C65.9112 16.6656 67.702 14.495 69.2734 12.149C69.4314 11.913 69.5873 11.6758 69.7453 11.4393C69.7512 11.4304 69.777 11.4215 69.7804 11.4249C69.7961 11.4388 69.8072 11.4571 69.8122 11.4775C69.8133 11.5044 69.8097 11.5314 69.8016 11.5571C69.6062 12.3314 69.4108 13.1052 69.2154 13.8786C68.7131 15.8725 68.2109 17.8665 67.7088 19.8607C67.6592 20.0578 67.5978 20.2518 67.5589 20.4505C67.5337 20.5841 67.4641 20.7051 67.3615 20.7941C66.9108 21.2043 66.4669 21.622 66.0116 22.0271C64.6664 23.2253 63.2658 24.3559 61.8099 25.4188C61.187 25.8738 60.5557 26.3177 59.9162 26.7505C58.3678 27.7973 56.875 28.9242 55.4438 30.1265C54.667 30.781 53.9126 31.4609 53.1807 32.1662C52.3122 33.0031 51.4772 33.872 50.6758 34.7727C48.6508 37.0662 46.8892 39.5427 45.4728 42.2586C45.4351 42.3307 45.394 42.4006 45.3534 42.4705C45.3475 42.4811 45.3326 42.4862 45.3216 42.4938C45.3114 42.4764 45.2898 42.4565 45.2932 42.4421C45.3542 42.179 45.4131 41.915 45.4826 41.6536C46.0285 39.6121 46.8031 37.6389 47.7918 35.7714C48.6488 34.1559 49.6479 32.62 50.7775 31.1819C51.8749 29.7865 53.0833 28.482 54.3908 27.2814C55.1168 26.6098 55.883 25.9844 56.6526 25.3641C57.3591 24.7947 58.0669 24.2265 58.7704 23.6516C59.1055 23.377 59.4291 23.0885 59.7561 22.8042C59.8255 22.7423 59.8886 22.672 59.9551 22.6042Z" fill="#FFCD0B"/>
<path d="M13.1684 15.8505C13.1934 15.8577 13.2247 15.8577 13.2417 15.8734C13.2904 15.9203 13.3364 15.9699 13.3793 16.0221C14.5505 17.4118 15.8203 18.7075 17.149 19.9464C18.2503 20.9722 19.3837 21.9581 20.5396 22.9195C21.8831 24.0372 23.2605 25.1117 24.693 26.1133C25.5914 26.7416 26.5046 27.3496 27.4152 27.9602C28.5402 28.7144 29.652 29.4855 30.7249 30.3142C32.8964 31.9799 34.9313 33.8166 36.8102 35.8066C37.3015 36.3291 37.7725 36.8714 38.2503 37.4069C38.3001 37.4699 38.3457 37.5362 38.3867 37.6052L38.318 37.6739C38.2024 37.5811 38.0834 37.4913 37.9707 37.3946C36.173 35.8505 34.2507 34.4577 32.2235 33.2306C30.334 32.0866 28.3691 31.0926 26.3046 30.3015C25.0424 29.8177 23.7808 29.3328 22.5197 28.847C21.435 28.428 20.3625 27.9793 19.3197 27.4628C17.9272 26.7681 16.5821 25.982 15.2934 25.1096C15.2595 25.0871 15.2273 25.0625 15.193 25.0405C15.1589 25.0183 15.1296 24.9894 15.1071 24.9555C15.0845 24.9217 15.069 24.8835 15.0617 24.8435C15.0007 24.566 14.9427 24.288 14.883 24.0105C14.6811 23.0721 14.4792 22.1337 14.2773 21.195C14.015 19.9787 13.7526 18.7627 13.4903 17.547C13.3959 17.111 13.2959 16.6759 13.2023 16.2395C13.1743 16.109 13.1286 15.9776 13.1756 15.8412L13.1684 15.8505Z" fill="#FFCD09"/>
<path d="M51.8465 38.1738C51.9109 38.0509 52.0227 37.97 52.1185 37.8772C53.3776 36.6458 54.7035 35.4847 56.0902 34.3991C58.1071 32.8183 60.2207 31.3798 62.4545 30.1197C63.2452 29.6746 64.0371 29.2331 64.8303 28.7953C66.9368 27.6251 68.9804 26.3449 70.9524 24.9599C72.373 23.966 73.7716 22.9427 75.1185 21.8504C75.8551 21.2534 76.5798 20.6421 77.2723 19.9938C77.7073 19.587 78.1338 19.171 78.5654 18.7596C78.6332 18.6947 78.7052 18.6325 78.7772 18.5723C78.7827 18.5683 78.789 18.5655 78.7956 18.5641C78.8023 18.5627 78.8091 18.5628 78.8158 18.5642C78.8203 18.5682 78.8239 18.5732 78.8262 18.5788C78.8285 18.5844 78.8294 18.5904 78.8289 18.5964C78.822 18.6492 78.8117 18.7014 78.798 18.7528C78.4351 19.9434 78.0716 21.1337 77.7073 22.3237C77.2005 23.9801 76.6932 25.6356 76.1855 27.2903C76.1766 27.3158 76.1698 27.342 76.1651 27.3687C76.1473 27.4886 76.0686 27.5572 75.9695 27.611C75.8386 27.6826 75.7094 27.7568 75.5789 27.8284C72.9877 29.2418 70.2354 30.3372 67.3818 31.0908C66.7418 31.2603 66.0963 31.4103 65.458 31.5874C63.5816 32.1118 61.7462 32.7731 59.9666 33.5661C57.2322 34.7847 54.6328 36.2861 52.2108 38.0458C52.1125 38.117 52.0079 38.1797 51.9062 38.2467L51.8465 38.1738Z" fill="#FFCD09"/>
<path d="M46.4847 42.4866C46.6592 42.1658 46.8236 41.8404 47.0091 41.5248C47.9772 39.8626 49.0779 38.2813 50.3005 36.7963C51.6211 35.1984 53.0566 33.699 54.5954 32.3102C56.2027 30.8564 57.9034 29.5095 59.6866 28.2779C60.5875 27.6525 61.4872 27.0246 62.3724 26.3781C64.175 25.0567 65.8995 23.632 67.5373 22.111C68.5424 21.1818 69.5174 20.2226 70.4526 19.2244C71.6207 17.9801 72.7099 16.6641 73.714 15.284C73.8008 15.1641 73.8957 15.0501 73.9881 14.9344C73.994 14.9268 74.0097 14.9272 74.0207 14.9238C74.0241 14.937 74.033 14.9514 74.03 14.9628C74.008 15.0543 73.9876 15.1467 73.9597 15.2365C73.1815 17.7858 72.4023 20.3349 71.6221 22.8838C71.6178 22.8967 71.6145 22.9099 71.6123 22.9232C71.5801 23.1084 71.4696 23.2304 71.3184 23.3389C70.0982 24.2165 68.852 25.0556 67.5796 25.8561C66.1819 26.7348 64.7486 27.5551 63.2945 28.3385C60.1789 30.0108 57.2358 31.9863 54.5078 34.2364C52.4702 35.9181 50.5743 37.7646 48.8393 39.7571C48.1189 40.585 47.4287 41.4372 46.7685 42.3137C46.7037 42.3985 46.6359 42.4832 46.5694 42.5679L46.4847 42.4866Z" fill="#FFCD0D"/>
<path d="M43.075 42.0989C42.676 41.5028 42.2847 40.9015 41.8768 40.3118C40.7717 38.7214 39.5673 37.2025 38.2706 35.7642C37.3196 34.7058 36.3252 33.6901 35.2875 32.717C34.3994 31.8823 33.4817 31.0804 32.5343 30.3112C31.1175 29.1545 29.6402 28.0805 28.1234 27.0589C26.4614 25.9395 24.8175 24.7943 23.2161 23.5897C22.2204 22.8409 21.2471 22.0641 20.2961 21.2594C20.2537 21.2242 20.2168 21.1848 20.1728 21.1535C20.0546 21.0687 20.0106 20.9522 19.9809 20.8145C19.7759 19.8485 19.5616 18.8846 19.3528 17.9198C19.1495 16.9813 18.9496 16.042 18.7467 15.1035C18.573 14.2985 18.3968 13.4909 18.2232 12.6846C18.2203 12.6579 18.2229 12.631 18.2308 12.6054C18.2359 12.5821 18.2812 12.6109 18.3155 12.6609C18.3303 12.6833 18.3473 12.7032 18.3608 12.7278C19.6107 14.8111 21.0572 16.7529 22.6201 18.6092C23.8945 20.1211 25.2455 21.5668 26.6676 22.9406C27.7195 23.9575 28.8093 24.932 29.9371 25.8641C30.7719 26.5543 31.6046 27.2475 32.4246 27.9551C33.9212 29.2475 35.3335 30.6344 36.653 32.1073C37.9474 33.5473 39.1419 35.074 40.2283 36.6769C41.3333 38.2997 42.303 40.0107 43.1275 41.7926C43.1729 41.8909 43.2123 41.9917 43.2546 42.0913L43.075 42.0989Z" fill="#FFCD0D"/>
<path d="M268.692 17.6491C268.692 21.1692 268.692 24.6895 268.692 28.2102C268.692 28.4909 268.692 28.7717 268.671 29.0505C268.655 29.2069 268.586 29.353 268.476 29.4648C268.365 29.5765 268.22 29.647 268.064 29.6647C267.909 29.6793 267.753 29.6813 267.597 29.6813C266.195 29.6813 264.792 29.6813 263.39 29.6813C263.203 29.6823 263.017 29.6706 262.832 29.6462C262.709 29.623 262.596 29.5621 262.508 29.4718C262.421 29.3815 262.364 29.2663 262.345 29.1422C262.324 28.8633 262.317 28.5826 262.317 28.3028C262.317 25.3417 262.317 22.3816 262.317 19.4225C262.33 18.7995 262.293 18.1765 262.207 17.5595C262.193 17.4359 262.163 17.3147 262.118 17.1987C262.101 17.1571 262.076 17.1193 262.045 17.0875C262.013 17.0557 261.975 17.0305 261.934 17.0135C261.889 17.0072 261.843 17.0118 261.8 17.0269C261.758 17.042 261.719 17.0672 261.688 17.1003C261.534 17.3328 261.4 17.5785 261.289 17.8344C261.146 18.1795 261.032 18.5363 260.918 18.8921C259.904 22.0638 258.891 25.2354 257.88 28.4071C257.794 28.6742 257.719 28.9443 257.614 29.2036C257.564 29.3355 257.476 29.4499 257.361 29.5331C257.247 29.6163 257.111 29.6647 256.97 29.6725C256.939 29.6725 256.908 29.6793 256.873 29.6793C255.595 29.6793 254.317 29.6842 253.04 29.6793C252.65 29.6793 252.401 29.4629 252.284 29.0944C251.903 27.9089 251.523 26.7235 251.145 25.538C250.407 23.2262 249.668 20.9147 248.927 18.6036C248.812 18.2487 248.675 17.9016 248.537 17.5556C248.471 17.4148 248.395 17.279 248.31 17.149C248.251 17.0457 248.068 16.9618 247.996 17.0164C247.919 17.0643 247.859 17.1343 247.822 17.2173C247.709 17.6392 247.649 18.0733 247.643 18.51C247.643 18.8219 247.637 19.1329 247.637 19.4449C247.637 22.3735 247.637 25.3021 247.637 28.2306C247.637 28.5104 247.637 28.7912 247.62 29.071C247.607 29.2276 247.537 29.3741 247.425 29.4841C247.313 29.5941 247.165 29.6602 247.008 29.6706C246.946 29.6764 246.883 29.6803 246.822 29.6803H245.132C245.039 29.6793 244.945 29.6725 244.852 29.6598C244.714 29.6336 244.587 29.5676 244.485 29.4699C244.384 29.3723 244.314 29.2472 244.282 29.11C244.269 29.0176 244.262 28.9245 244.261 28.8312C244.261 28.5816 244.261 28.332 244.261 28.0834C244.261 21.1045 244.261 14.1256 244.261 7.14662C244.261 6.83465 244.261 6.52269 244.279 6.21268C244.293 6.05605 244.361 5.90909 244.471 5.79739C244.582 5.6857 244.728 5.61636 244.885 5.60142C245.008 5.59069 245.134 5.58777 245.258 5.58777C246.879 5.58777 248.499 5.58777 250.12 5.58777C250.778 5.58777 250.936 5.69793 251.153 6.30821C251.904 8.41983 252.651 10.5321 253.395 12.645C254.203 14.9341 255.013 17.2225 255.822 19.5102C255.926 19.803 256.048 20.0892 256.187 20.3671C256.249 20.4734 256.34 20.5599 256.45 20.6167C256.533 20.649 256.625 20.649 256.708 20.6167C256.782 20.5891 256.849 20.5466 256.905 20.4919C256.961 20.4373 257.006 20.3716 257.036 20.2989C257.19 19.9587 257.339 19.6165 257.463 19.2645C258.544 16.2144 259.622 13.1627 260.696 10.1093C261.121 8.9063 261.548 7.70393 261.977 6.50222C262.04 6.32674 262.101 6.14931 262.181 5.98163C262.234 5.8682 262.317 5.77167 262.422 5.70282C262.526 5.63397 262.648 5.59549 262.773 5.59167C262.834 5.58582 262.897 5.58386 262.959 5.58386C264.58 5.58386 266.2 5.58386 267.821 5.58386C268.427 5.58386 268.67 5.83051 268.692 6.42715C268.702 6.67575 268.692 6.92532 268.692 7.1749V17.6491Z" fill="#2A3E98"/>
<path d="M188.035 17.579C188.035 14.0921 188.035 10.6043 188.035 7.11545C188.035 6.80446 188.035 6.49249 188.061 6.18247C188.072 6.02426 188.142 5.87594 188.257 5.7674C188.373 5.65886 188.525 5.59817 188.684 5.59753C188.87 5.58584 189.057 5.58681 189.244 5.58681C192.702 5.58681 196.164 5.59266 199.617 5.58681C200.63 5.58681 201.609 5.74182 202.529 6.15517C204.993 7.26362 206.454 9.16467 206.836 11.8369C207.192 14.3258 206.383 16.4364 204.579 18.1737C204.311 18.431 203.994 18.6406 203.702 18.8717C203.215 19.2548 203.149 19.5034 203.418 20.0796C204.328 22.0235 205.241 23.9662 206.159 25.9075C206.556 26.7518 206.958 27.5941 207.354 28.4422C207.434 28.6101 207.501 28.7838 207.554 28.9618C207.574 29.0297 207.58 29.1008 207.571 29.171C207.563 29.2411 207.54 29.3088 207.505 29.3701C207.47 29.4313 207.423 29.4849 207.367 29.5274C207.31 29.57 207.246 29.6008 207.177 29.6179C207.028 29.6578 206.874 29.6804 206.719 29.6852C206.315 29.695 205.909 29.6901 205.504 29.6901H202.327C202.171 29.6901 202.015 29.6901 201.859 29.6852C201.718 29.6867 201.58 29.649 201.46 29.5763C201.339 29.5037 201.241 29.3989 201.177 29.2738C201.059 29.0554 200.952 28.8302 200.845 28.605C199.671 26.132 198.497 23.6584 197.323 21.1841C197.217 20.9589 197.113 20.7328 196.999 20.5115C196.948 20.3973 196.866 20.2995 196.763 20.2286C196.66 20.1578 196.539 20.1167 196.414 20.1098C195.947 20.0932 195.479 20.0844 195.014 20.1098C194.635 20.1264 194.401 20.3886 194.373 20.7854C194.356 21.033 194.36 21.2836 194.36 21.5322C194.36 23.7744 194.36 26.0167 194.36 28.2589C194.36 28.5387 194.36 28.8195 194.336 29.0983C194.323 29.2551 194.253 29.4014 194.138 29.5094C194.024 29.6173 193.874 29.6792 193.716 29.6833C193.561 29.695 193.406 29.693 193.25 29.693C191.879 29.693 190.508 29.693 189.137 29.693C188.95 29.6948 188.764 29.6854 188.578 29.6647C188.454 29.6452 188.339 29.5867 188.25 29.4974C188.161 29.4082 188.103 29.293 188.084 29.1685C188.056 28.8907 188.043 28.6109 188.042 28.3311C188.039 26.4931 188.039 24.6557 188.042 22.819L188.035 17.579ZM196.286 16.9862V16.9911C196.629 16.9911 196.969 16.9794 197.315 16.9911C197.96 17.0184 198.455 16.7357 198.86 16.2638C199.162 15.9053 199.393 15.4932 199.542 15.0491C200.077 13.5186 200.039 11.9928 199.49 10.4779C199.34 10.067 199.116 9.68705 198.83 9.35673C198.466 8.9346 198.018 8.68405 197.451 8.68112C196.671 8.68112 195.892 8.68112 195.112 8.68112C195.05 8.68411 194.988 8.69193 194.927 8.70452C194.788 8.72634 194.659 8.79276 194.561 8.89383C194.462 8.9949 194.399 9.12517 194.381 9.26508C194.359 9.48144 194.349 9.69886 194.352 9.91632C194.352 11.8466 194.352 13.7766 194.352 15.7062C194.352 15.8934 194.352 16.0806 194.363 16.2658C194.392 16.6977 194.655 16.9638 195.073 16.9775C195.477 16.994 195.882 16.9814 196.286 16.9814V16.9862Z" fill="#293E98"/>
<path d="M296.987 17.5965C296.987 14.0771 296.987 10.5574 296.987 7.03741C296.987 6.75664 296.987 6.47587 297.005 6.19705C297.02 6.04034 297.091 5.8942 297.204 5.78485C297.317 5.6755 297.466 5.61011 297.623 5.60041C297.84 5.58677 298.058 5.58676 298.277 5.58676C301.673 5.58676 305.07 5.58676 308.466 5.58676C308.995 5.57201 309.525 5.61352 310.046 5.71058C312.738 6.28771 314.558 7.88167 315.48 10.4554C316.537 13.4113 315.533 16.6664 313.059 18.5792C312.864 18.7313 312.651 18.8716 312.474 19.0354C312.364 19.1253 312.286 19.248 312.251 19.3855C312.216 19.5231 312.226 19.6682 312.279 19.7997C312.377 20.06 312.497 20.3155 312.616 20.568C313.795 23.0747 314.975 25.5805 316.156 28.0854C316.289 28.3661 316.412 28.6527 316.523 28.9433C316.62 29.2006 316.439 29.5282 316.162 29.6062C316.013 29.6499 315.86 29.6735 315.705 29.6764C314.115 29.6813 312.527 29.6764 310.937 29.6764H310.84C310.491 29.6764 310.255 29.4921 310.097 29.1977C310 29.0027 309.911 28.8078 309.818 28.6069C308.655 26.1619 307.493 23.7165 306.33 21.2709C306.21 21.0184 306.085 20.7668 305.961 20.5163C305.913 20.3992 305.832 20.2982 305.729 20.225C305.625 20.1518 305.503 20.1095 305.376 20.1029C304.879 20.0854 304.38 20.0873 303.884 20.1117C303.743 20.1229 303.61 20.1849 303.51 20.2863C303.41 20.3876 303.35 20.5216 303.341 20.6635C303.323 20.9121 303.322 21.1617 303.322 21.4103C303.322 23.685 303.322 25.9598 303.322 28.2345C303.322 28.4841 303.322 28.7337 303.314 28.9823C303.295 29.4034 303.031 29.6549 302.592 29.6803C302.495 29.6852 302.405 29.6803 302.312 29.6803H298.018C297.863 29.6822 297.707 29.6744 297.552 29.6569C297.414 29.6301 297.288 29.5612 297.19 29.4596C297.093 29.358 297.029 29.2287 297.008 29.0895C296.988 28.8097 296.987 28.5289 296.987 28.2491C296.987 24.6986 296.987 21.1477 296.987 17.5965ZM303.328 12.877C303.328 13.8714 303.328 14.8665 303.328 15.8621C303.328 16.0483 303.328 16.2355 303.347 16.4208C303.368 16.5439 303.424 16.6584 303.509 16.7506C303.593 16.8427 303.702 16.9086 303.823 16.9404C303.976 16.967 304.131 16.9811 304.286 16.9823C304.939 16.9823 305.593 16.9696 306.245 16.9881C306.966 17.0096 307.496 16.6879 307.918 16.138C308.2 15.7647 308.414 15.345 308.551 14.898C308.963 13.6162 308.979 12.2398 308.597 10.9487C308.468 10.4677 308.258 10.0121 307.977 9.60138C307.557 9.00572 307.014 8.65378 306.25 8.6801C305.567 8.70447 304.885 8.68011 304.196 8.68888C304.072 8.69219 303.949 8.70621 303.828 8.7308C303.705 8.75412 303.592 8.81601 303.507 8.90751C303.421 8.999 303.367 9.11534 303.352 9.23969C303.334 9.45611 303.329 9.67352 303.328 9.89092C303.327 10.8866 303.327 11.882 303.328 12.877Z" fill="#2A3E98"/>
<path d="M144.633 17.5497C144.633 14.0615 144.633 10.5733 144.633 7.08515C144.633 6.77514 144.64 6.46318 144.666 6.15316C144.68 6.01254 144.743 5.88123 144.843 5.78154C144.943 5.68185 145.075 5.6199 145.216 5.60624C145.402 5.59064 145.589 5.58674 145.776 5.58674C149.14 5.58674 152.501 5.60234 155.87 5.58674C157.643 5.57921 159.37 6.15445 160.785 7.22406C162.201 8.29367 163.225 9.79848 163.702 11.5073C164.938 15.9089 162.383 20.3008 158.313 21.5389C157.568 21.7692 156.793 21.8866 156.014 21.887C154.769 21.8821 153.522 21.887 152.277 21.887C152.058 21.887 151.84 21.887 151.623 21.9065C151.466 21.9194 151.319 21.9893 151.21 22.103C151.101 22.2166 151.037 22.3662 151.031 22.5236C151.013 22.7712 151.013 23.0208 151.013 23.2694C151.013 24.9208 151.013 26.5717 151.013 28.2218C151.013 28.4704 151.013 28.72 150.997 28.9686C150.963 29.4131 150.714 29.651 150.286 29.6812C150.225 29.6812 150.163 29.6812 150.1 29.6812C148.573 29.6812 147.047 29.6744 145.52 29.6812C144.803 29.6812 144.652 29.3195 144.643 28.8516C144.634 28.5718 144.637 28.291 144.637 28.0103L144.633 17.5497ZM152.924 8.68982C152.581 8.68982 152.241 8.68397 151.894 8.68982C151.739 8.6923 151.585 8.71358 151.434 8.75319C151.343 8.77674 151.259 8.82589 151.194 8.89492C151.129 8.96395 151.085 9.05003 151.067 9.14315C151.033 9.29481 151.016 9.44979 151.015 9.60525C151.015 12.3778 151.015 15.1505 151.015 17.923C151.017 18.0476 151.028 18.1718 151.05 18.2945C151.067 18.403 151.115 18.5042 151.189 18.5856C151.262 18.667 151.358 18.7251 151.465 18.7527C151.583 18.7916 151.706 18.813 151.83 18.816C152.545 18.8219 153.261 18.8219 153.98 18.816C154.277 18.8184 154.572 18.7564 154.843 18.6342C155.114 18.5121 155.356 18.3326 155.551 18.1083C155.759 17.8767 155.945 17.6275 156.11 17.3635C156.367 16.9359 156.561 16.4736 156.687 15.9908C157.027 14.7542 157.083 13.457 156.852 12.1955C156.754 11.6111 156.574 11.0433 156.318 10.509C156.099 10.0254 155.788 9.58899 155.403 9.22408C155.062 8.89501 154.61 8.70578 154.136 8.69373C153.734 8.68398 153.328 8.68982 152.924 8.68982Z" fill="#2A3E98"/>
<path d="M231.264 5.00285C233.347 4.9892 235.195 5.35576 236.962 6.12788C237.764 6.47339 238.515 6.92666 239.195 7.47518C239.339 7.59345 239.476 7.72146 239.602 7.85831C239.691 7.96743 239.742 8.10244 239.748 8.24307C239.754 8.3837 239.713 8.52237 239.634 8.63823C239.6 8.69101 239.564 8.74149 239.523 8.78933C239.055 9.28848 238.591 9.79348 238.111 10.2839C237.819 10.5763 237.451 10.5831 237.106 10.3121C236.813 10.082 236.53 9.83442 236.228 9.61312C235.246 8.88553 234.078 8.45117 232.859 8.36038C232.021 8.28824 231.178 8.28824 230.339 8.36038C229.936 8.40075 229.537 8.47544 229.147 8.58363C228.784 8.67422 228.44 8.83193 228.135 9.04866C227.903 9.20901 227.716 9.4253 227.59 9.67746C227.322 10.2409 227.43 10.7684 227.74 11.2753C227.944 11.5898 228.205 11.8636 228.51 12.0825C229.008 12.457 229.544 12.7791 230.108 13.0438C230.81 13.3801 231.519 13.6999 232.23 14.0187C233.393 14.5412 234.569 15.0462 235.687 15.6604C236.535 16.1244 237.359 16.6284 238.097 17.2582C238.407 17.5168 238.7 17.7959 238.974 18.0937C240.734 20.0757 241.097 22.3267 240.192 24.7903C239.705 26.1122 238.828 27.1583 237.73 28.0172C236.667 28.8394 235.448 29.4365 234.147 29.772C231.29 30.5343 228.475 30.4281 225.718 29.3264C224.146 28.7022 222.751 27.7044 221.652 26.4193C221.49 26.2304 221.339 26.0328 221.199 25.8275C221.118 25.7113 221.084 25.5693 221.102 25.4291C221.12 25.2889 221.189 25.1603 221.296 25.0681C221.339 25.0236 221.386 24.9825 221.436 24.9453C221.9 24.6301 222.365 24.3165 222.831 24.0045C222.882 23.9695 222.937 23.9413 222.996 23.9207C223.247 23.8358 223.49 23.8407 223.695 24.0279C223.856 24.1751 224.005 24.334 224.156 24.4919C225.27 25.656 226.645 26.3442 228.205 26.6757C229.305 26.9027 230.433 26.9684 231.552 26.8707C231.956 26.834 232.355 26.7609 232.745 26.6523C233.015 26.5754 233.272 26.4619 233.51 26.315C234.263 25.8646 234.445 25.1139 234.232 24.375C234.09 23.9273 233.834 23.5242 233.49 23.2051C233.113 22.8337 232.686 22.5159 232.223 22.2604C231.597 21.9143 230.956 21.5838 230.316 21.2758C229.389 20.8322 228.444 20.4286 227.52 19.9811C226.763 19.6146 226.018 19.2236 225.285 18.8112C224.684 18.4794 224.118 18.0875 223.596 17.6414C223.263 17.3607 222.947 17.0602 222.65 16.7415C220.877 14.7996 220.625 12.2044 221.702 9.9592C222.142 9.06109 222.761 8.26278 223.522 7.61362C224.789 6.50224 226.283 5.81981 227.902 5.4045C228.998 5.11343 230.13 4.97822 231.264 5.00285Z" fill="#2B3E98"/>
<path d="M107.196 5.00866C109.01 4.97025 110.814 5.29541 112.501 5.96503C113.493 6.34426 114.415 6.88553 115.23 7.56678C115.37 7.68884 115.495 7.82691 115.603 7.97818C115.66 8.05355 115.693 8.14422 115.698 8.23854C115.703 8.33287 115.68 8.42654 115.632 8.50754C115.577 8.61902 115.509 8.72345 115.429 8.81854C114.986 9.29916 114.536 9.77491 114.088 10.2507C114.045 10.2959 113.999 10.3382 113.95 10.3774C113.836 10.4601 113.7 10.5067 113.559 10.5112C113.418 10.5158 113.279 10.478 113.16 10.4027C112.91 10.2185 112.673 10.0128 112.432 9.81781C111.537 9.08141 110.459 8.60014 109.313 8.42468C108.449 8.29569 107.573 8.2669 106.703 8.33889C106.174 8.38276 105.648 8.42664 105.135 8.57677C104.805 8.66687 104.488 8.80098 104.193 8.9755C103.289 9.52631 103.167 10.5207 103.692 11.3211C103.879 11.6099 104.12 11.8601 104.402 12.0581C104.781 12.3304 105.175 12.5816 105.582 12.8107C106.129 13.1032 106.695 13.3684 107.26 13.6277C108.081 14.004 108.908 14.3657 109.732 14.7342C110.642 15.1381 111.528 15.5962 112.384 16.1059C113.276 16.6216 114.092 17.2569 114.811 17.9942C115.485 18.704 116.016 19.5053 116.299 20.4471C116.86 22.3062 116.625 24.0815 115.672 25.7612C115.094 26.78 114.289 27.5969 113.333 28.2735C112.286 29.0108 111.11 29.5451 109.866 29.8489C107.5 30.4637 105.01 30.4138 102.67 29.7047C100.683 29.1237 98.908 27.9759 97.563 26.4017C97.4016 26.2121 97.2509 26.0135 97.1117 25.807C97.0493 25.6981 97.0243 25.5718 97.0405 25.4473C97.0567 25.3228 97.1132 25.2071 97.2014 25.1178C97.2417 25.0707 97.2864 25.0277 97.3349 24.9891C97.8222 24.6537 98.3095 24.3135 98.8036 23.9928C99.1184 23.791 99.4585 23.8504 99.7373 24.1234C99.8484 24.2316 99.9526 24.3476 100.059 24.4617C101.186 25.6608 102.593 26.3539 104.183 26.6922C105.254 26.9076 106.35 26.9732 107.438 26.8872C107.969 26.8625 108.491 26.7491 108.984 26.5519C109.215 26.4604 109.433 26.3402 109.634 26.1941C110.151 25.7963 110.323 25.2543 110.219 24.6196C110.149 24.2184 109.974 23.843 109.711 23.5316C109.458 23.2139 109.158 22.9371 108.821 22.7108C108.384 22.4128 107.931 22.1384 107.465 21.8889C106.548 21.4268 105.613 21.0067 104.683 20.5631C103.753 20.1195 102.832 19.6857 101.913 19.2177C101.194 18.8458 100.509 18.4123 99.8659 17.9221C99.3877 17.5675 98.9468 17.1651 98.5502 16.721C97.9226 16.0123 97.4451 15.2168 97.2102 14.2916C96.803 12.77 96.9919 11.1502 97.7384 9.76321C98.2066 8.87961 98.8491 8.10022 99.6271 7.47221C100.878 6.4437 102.313 5.79247 103.874 5.40446C104.958 5.12306 106.076 4.98992 107.196 5.00866Z" fill="#2B3E98"/>
<path d="M120.208 13.7876C120.208 11.5128 120.208 9.23809 120.208 6.96334C120.208 6.68355 120.208 6.40278 120.234 6.12396C120.254 6.00004 120.311 5.88522 120.398 5.7947C120.485 5.70417 120.598 5.64221 120.721 5.61702C120.844 5.59901 120.968 5.58923 121.092 5.58777C122.62 5.58777 124.146 5.58777 125.673 5.58777C125.77 5.58777 125.86 5.58777 125.952 5.60044C126.109 5.61448 126.256 5.68356 126.366 5.79546C126.477 5.90735 126.544 6.05482 126.557 6.2117C126.576 6.49052 126.574 6.77129 126.574 7.05206C126.574 11.1954 126.574 15.339 126.574 19.4829C126.574 19.9509 126.574 20.4188 126.592 20.8848C126.632 21.7885 126.814 22.6803 127.13 23.5278C127.354 24.1442 127.684 24.7169 128.104 25.2202C129.155 26.4544 130.518 26.9526 132.1 26.8307C133.823 26.6971 135.071 25.8012 135.881 24.296C136.322 23.4685 136.594 22.562 136.682 21.6287C136.748 20.9784 136.78 20.3233 136.78 19.6701C136.789 15.4943 136.791 11.3192 136.785 7.14467C136.785 6.83368 136.785 6.52172 136.805 6.21073C136.808 6.05235 136.872 5.9013 136.984 5.78892C137.096 5.67655 137.246 5.61149 137.405 5.60726C138.121 5.59459 138.837 5.59751 139.549 5.60726C139.69 5.61733 139.823 5.6751 139.928 5.77111C140.032 5.86711 140.1 5.99565 140.122 6.13566C140.144 6.25804 140.157 6.38184 140.162 6.50612C140.167 6.72352 140.162 6.9419 140.162 7.16027C140.162 11.2412 140.162 15.3227 140.162 19.4049C140.165 20.1837 140.128 20.9621 140.049 21.7369C139.921 23.0736 139.533 24.3725 138.907 25.5604C138.014 27.26 136.566 28.6019 134.803 29.3625C133.744 29.8224 132.618 30.1087 131.467 30.2106C129.945 30.3786 128.404 30.2592 126.926 29.8587C123.617 28.9296 121.52 26.7771 120.604 23.4761C120.329 22.4837 120.192 21.4583 120.196 20.4286C120.2 18.2188 120.2 16.0068 120.196 13.7925L120.208 13.7876Z" fill="#2B3E98"/>
<path d="M290.144 29.6823C289.428 29.6823 288.711 29.6823 287.995 29.6823C287.808 29.6873 287.622 29.6821 287.436 29.6667C287.31 29.6581 287.189 29.6154 287.086 29.543C286.983 29.4707 286.902 29.3715 286.851 29.2562C286.777 29.0848 286.712 28.9097 286.656 28.7317C286.172 27.2869 285.689 25.8418 285.207 24.3964C285.148 24.2199 285.083 24.0445 285.021 23.869C284.923 23.6038 284.714 23.479 284.459 23.4332C284.305 23.4101 284.15 23.4016 283.994 23.4078H278.576C278.478 23.4078 278.389 23.4078 278.295 23.4078C277.88 23.4195 277.583 23.6028 277.446 24.0064C277.349 24.2989 277.246 24.5914 277.148 24.8897C276.725 26.159 276.303 27.4264 275.881 28.6918C275.823 28.8692 275.767 29.0476 275.694 29.2192C275.64 29.3493 275.549 29.461 275.433 29.5409C275.317 29.6208 275.18 29.6655 275.039 29.6696C274.977 29.6754 274.914 29.6754 274.852 29.6754C274.229 29.6754 273.606 29.6754 272.984 29.6754C272.859 29.6726 272.736 29.6566 272.615 29.6277C272.497 29.5889 272.393 29.5139 272.32 29.4131C272.246 29.3123 272.206 29.1909 272.206 29.0661C272.238 28.7881 272.307 28.5156 272.412 28.256C273.022 26.5256 273.622 24.7912 274.228 23.0598C276.129 17.6303 278.032 12.2014 279.936 6.77324C280.019 6.50809 280.117 6.24772 280.229 5.99333C280.279 5.87823 280.362 5.77986 280.466 5.70964C280.57 5.63942 280.692 5.6002 280.818 5.59654C280.943 5.58971 281.067 5.58679 281.191 5.58679H284.461C284.586 5.58679 284.711 5.58679 284.834 5.59751C284.96 5.60089 285.081 5.64016 285.185 5.71066C285.289 5.78117 285.37 5.87995 285.419 5.99528C285.534 6.24973 285.63 6.51295 285.721 6.77519C286.553 9.15263 287.383 11.5307 288.212 13.9095C289.845 18.5753 291.479 23.2411 293.115 27.907C293.197 28.1419 293.293 28.373 293.363 28.6109C293.404 28.7605 293.429 28.9141 293.437 29.069C293.442 29.1947 293.404 29.3183 293.329 29.419C293.253 29.5198 293.146 29.5914 293.024 29.6218C292.841 29.6579 292.656 29.6765 292.47 29.6774C291.701 29.6852 290.923 29.6823 290.144 29.6823ZM278.96 19.7062C278.97 19.9908 279.114 20.1809 279.289 20.2346C279.404 20.2792 279.525 20.3075 279.649 20.3184C280.738 20.3252 281.828 20.3243 282.916 20.3184C283.01 20.3138 283.102 20.2984 283.191 20.2726C283.459 20.2092 283.679 19.8943 283.616 19.635C283.561 19.3932 283.488 19.1544 283.411 18.9185C283.182 18.2087 282.948 17.501 282.714 16.7922C282.47 16.0552 282.226 15.3162 281.976 14.5821C281.879 14.2897 281.781 13.9913 281.593 13.7359C281.556 13.6861 281.509 13.6453 281.454 13.6168C281.399 13.5882 281.338 13.5726 281.276 13.5712C281.215 13.5698 281.153 13.5826 281.097 13.6086C281.041 13.6346 280.992 13.6732 280.953 13.7213C280.758 13.9738 280.66 14.2711 280.563 14.5646C280.279 15.4205 280.011 16.2804 279.733 17.1383C279.513 17.8207 279.282 18.4944 279.067 19.1768C279.02 19.3509 278.985 19.5277 278.96 19.7062Z" fill="#2A3E98"/>
<path d="M167.611 17.6257C167.611 14.1376 167.611 10.6494 167.611 7.16123C167.611 6.88046 167.611 6.59969 167.622 6.32088C167.634 6.19718 167.664 6.07607 167.714 5.96211C167.747 5.87395 167.803 5.79604 167.875 5.73617C167.948 5.67629 168.035 5.63654 168.128 5.6209C168.344 5.59242 168.561 5.58102 168.779 5.58678C173.392 5.58678 178.003 5.58678 182.612 5.58678C182.798 5.58678 182.986 5.59262 183.172 5.60822C183.295 5.62637 183.411 5.68093 183.504 5.76495C183.596 5.84897 183.662 5.95867 183.692 6.08008C183.72 6.16913 183.737 6.26103 183.744 6.35402C183.744 6.88339 183.749 7.41276 183.744 7.94212C183.735 8.06621 183.705 8.18785 183.655 8.30185C183.627 8.3749 183.583 8.44049 183.525 8.49344C183.468 8.54639 183.399 8.58526 183.324 8.607C183.205 8.64596 183.082 8.67019 182.958 8.67914C182.71 8.69181 182.46 8.68792 182.211 8.68792C179.905 8.68792 177.599 8.68792 175.291 8.68792C175.011 8.68789 174.732 8.70743 174.455 8.74641C174.361 8.76057 174.273 8.803 174.203 8.86811C174.134 8.93321 174.086 9.01792 174.065 9.11102C174.018 9.29099 173.993 9.4759 173.99 9.66184C173.981 10.3443 173.99 11.0325 173.99 11.7179C173.99 12.8078 173.99 13.8977 173.99 14.9877C173.991 15.2045 174.015 15.4205 174.062 15.6321C174.086 15.7399 174.143 15.8375 174.226 15.9106C174.308 15.9837 174.412 16.0285 174.522 16.0386C174.708 16.0609 174.895 16.07 175.082 16.0659C176.016 16.0659 176.951 16.0659 177.885 16.0659C178.103 16.0659 178.321 16.0659 178.539 16.0727C178.929 16.0913 179.226 16.3262 179.241 16.6889C179.267 17.3099 179.264 17.9328 179.241 18.5538C179.231 18.7116 179.164 18.8602 179.053 18.9725C178.941 19.0848 178.793 19.1532 178.636 19.1651C178.419 19.1841 178.201 19.1919 177.983 19.1885C177.079 19.1885 176.176 19.1885 175.273 19.1885C175.054 19.1885 174.836 19.1885 174.619 19.2012C174.273 19.2226 174.051 19.44 174.008 19.7929C173.993 19.9162 173.985 20.0402 173.984 20.1644C173.984 21.9712 173.984 23.7776 173.984 25.5838C173.984 25.7083 173.992 25.8328 174.009 25.9562C174.054 26.3072 174.279 26.5246 174.625 26.5411C174.905 26.5528 175.186 26.5499 175.466 26.5499H183.046C183.294 26.5499 183.545 26.5499 183.792 26.5665C183.95 26.5766 184.098 26.6437 184.21 26.7553C184.321 26.8669 184.388 27.0154 184.399 27.1729C184.411 27.8261 184.406 28.4792 184.393 29.1324C184.393 29.3596 184.14 29.5965 183.905 29.6403C183.814 29.6594 183.722 29.6708 183.629 29.6744C183.41 29.6803 183.192 29.6744 182.974 29.6744H169.049C168.769 29.6744 168.488 29.6744 168.209 29.652C168.069 29.6352 167.938 29.5727 167.837 29.474C167.735 29.3753 167.67 29.246 167.649 29.1061C167.622 28.8275 167.61 28.5476 167.612 28.2677C167.612 24.9043 167.612 21.5409 167.612 18.1775L167.611 17.6257Z" fill="#2C4099"/>
<path d="M332.136 19.1388C332.136 22.1902 332.136 25.2419 332.136 28.294C332.136 28.5738 332.136 28.8546 332.112 29.1334C332.095 29.3557 331.848 29.6033 331.625 29.6423C331.502 29.6652 331.379 29.6779 331.254 29.6803C329.728 29.6803 328.201 29.6803 326.674 29.6803C326.576 29.6803 326.487 29.6803 326.394 29.6676C326.238 29.6548 326.091 29.5873 325.979 29.477C325.867 29.3667 325.798 29.2205 325.783 29.0642C325.772 28.9404 325.77 28.8156 325.769 28.6908C325.769 28.4422 325.769 28.1926 325.769 27.944V10.1932C325.769 9.91336 325.769 9.63259 325.759 9.35279C325.737 8.97161 325.493 8.73081 325.099 8.70253C324.85 8.68499 324.601 8.68694 324.351 8.68694C322.856 8.68694 321.361 8.68694 319.868 8.68694C319.62 8.68695 319.372 8.67034 319.126 8.63722C319 8.62367 318.883 8.56555 318.796 8.47333C318.709 8.38111 318.657 8.26083 318.651 8.13418C318.637 7.48197 318.632 6.82782 318.651 6.17464C318.658 5.84903 318.924 5.61895 319.275 5.6014C319.555 5.58678 319.835 5.59068 320.116 5.59068H338.049C338.266 5.59068 338.485 5.59068 338.702 5.60822C338.984 5.63065 339.251 5.87438 339.258 6.15027C339.272 6.80345 339.272 7.45662 339.258 8.1098C339.251 8.40227 339.018 8.61967 338.711 8.65281C338.463 8.67815 338.215 8.68987 337.966 8.68792C336.439 8.68792 334.913 8.68792 333.386 8.68792C333.137 8.68804 332.889 8.70334 332.642 8.73374C332.518 8.7537 332.404 8.81364 332.317 8.90444C332.23 8.99524 332.175 9.11193 332.161 9.23679C332.14 9.51561 332.134 9.79637 332.134 10.0762C332.134 13.0977 332.135 16.1186 332.136 19.1388Z" fill="#2B3E98"/>
<path d="M175.371 41.2483C175.371 40.1896 175.371 39.1305 175.371 38.0711C175.366 37.8853 175.377 37.6993 175.404 37.5154C175.418 37.4433 175.51 37.376 175.582 37.3282C175.638 37.302 175.701 37.2915 175.763 37.298C176.323 37.298 176.884 37.298 177.445 37.298C177.768 37.298 177.875 37.3955 177.965 37.7201C178.114 38.2602 178.258 38.8023 178.397 39.3443C178.661 40.3361 178.926 41.3279 179.191 42.3197C179.24 42.4991 179.307 42.6736 179.364 42.852C179.39 42.9329 179.431 42.9563 179.495 42.9193C179.522 42.9037 179.564 42.8968 179.573 42.8754C179.627 42.7651 179.673 42.6506 179.709 42.5332C180.088 41.1216 180.466 39.7089 180.842 38.2953C180.914 38.0253 180.987 37.7543 181.081 37.492C181.108 37.4189 181.214 37.3721 181.288 37.3185C181.316 37.3054 181.348 37.3003 181.379 37.3039C182.002 37.3039 182.625 37.2941 183.248 37.3039C183.517 37.3039 183.614 37.4277 183.623 37.7211C183.623 37.8449 183.623 37.9697 183.623 38.0945C183.623 40.212 183.623 42.3298 183.623 44.4479C183.623 44.6029 183.623 44.7589 183.614 44.9149C183.607 45.1011 183.507 45.219 183.339 45.2229C183.029 45.2288 182.718 45.2288 182.406 45.2229C182.231 45.2229 182.131 45.1098 182.126 44.9227C182.118 44.6429 182.115 44.3631 182.115 44.0823C182.111 42.4939 182.109 40.9058 182.108 39.318C182.108 39.2205 182.087 39.1942 182.011 39.2264C181.985 39.2371 181.949 39.2488 181.941 39.2702C181.875 39.4105 181.819 39.5548 181.772 39.7021C181.329 41.2902 180.895 42.8793 180.448 44.4684C180.389 44.677 180.316 44.8827 180.238 45.0855C180.225 45.1123 180.206 45.136 180.183 45.1548C180.16 45.1737 180.133 45.1873 180.104 45.1947C179.704 45.2583 179.297 45.2606 178.897 45.2015C178.868 45.195 178.84 45.1824 178.816 45.1644C178.792 45.1464 178.772 45.1235 178.758 45.0972C178.688 44.9593 178.631 44.8154 178.587 44.6672C178.148 43.1074 177.711 41.5499 177.275 39.9946C177.208 39.7548 177.132 39.5179 177.056 39.281C177.049 39.2605 177.009 39.2468 176.983 39.2371C176.926 39.2156 176.896 39.2517 176.895 39.3346C176.889 39.6144 176.88 39.8951 176.88 40.1749C176.88 41.5759 176.88 42.9778 176.88 44.3787C176.883 44.5965 176.872 44.8144 176.848 45.0309C176.842 45.0786 176.819 45.1226 176.783 45.1545C176.747 45.1863 176.701 45.2038 176.653 45.2034C176.28 45.2034 175.908 45.2034 175.537 45.1927C175.507 45.1846 175.48 45.1691 175.458 45.1477C175.435 45.1262 175.419 45.0994 175.41 45.0699C175.385 44.9165 175.372 44.7613 175.372 44.6058C175.372 43.4847 175.372 42.3636 175.372 41.2424L175.371 41.2483Z" fill="#FFCE18"/>
<path d="M109.832 40.9997C109.929 41.184 110.114 41.2239 110.267 41.3136C110.794 41.6197 111.053 42.0935 111.113 42.6863C111.145 42.997 111.119 43.3108 111.038 43.6124C110.978 43.8712 110.862 44.1141 110.7 44.3247C110.538 44.5354 110.333 44.709 110.098 44.8339C109.661 45.0781 109.171 45.2119 108.67 45.2239C107.924 45.2307 107.176 45.2366 106.429 45.2366C106.024 45.2366 105.62 45.2268 105.215 45.2161C105.155 45.2075 105.099 45.1789 105.057 45.1349C105.015 45.0909 104.989 45.034 104.982 44.9734C104.975 44.8759 104.963 44.7872 104.963 44.6945C104.963 42.4198 104.963 40.147 104.963 37.8761C104.957 37.7523 104.972 37.6283 105.008 37.5096C105.026 37.4691 105.051 37.4325 105.083 37.4021C105.116 37.3716 105.153 37.3479 105.195 37.3322C105.315 37.3008 105.44 37.288 105.564 37.2941C106.374 37.2941 107.184 37.2844 107.993 37.2941C108.335 37.2941 108.675 37.3341 109.017 37.3721C109.358 37.4174 109.683 37.5412 109.967 37.7338C110.291 37.9312 110.527 38.2452 110.626 38.6112C110.77 39.164 110.766 39.7177 110.522 40.2539C110.37 40.5805 110.11 40.7969 109.832 40.9997ZM107.95 41.8323C106.315 41.8469 106.528 41.6782 106.509 43.086C106.509 43.2722 106.52 43.4584 106.532 43.6436C106.537 43.7054 106.564 43.7635 106.607 43.8074C106.651 43.8514 106.709 43.8783 106.771 43.8834C107.299 43.8893 107.827 43.9049 108.354 43.8834C108.57 43.8583 108.782 43.8113 108.988 43.743C109.047 43.7252 109.105 43.701 109.159 43.6709C109.744 43.3784 109.697 42.3217 109.271 42.0623C109.121 41.9516 108.944 41.8811 108.759 41.8576C108.418 41.8449 108.076 41.8362 107.95 41.8323ZM107.463 40.5707V40.5756C107.586 40.5756 107.71 40.5756 107.834 40.5756C108.05 40.5713 108.266 40.5557 108.481 40.5288C108.665 40.4942 108.833 40.4011 108.96 40.2634C109.086 40.1256 109.165 39.9507 109.185 39.7645C109.236 39.3346 109.079 39.0216 108.738 38.8247C108.518 38.7088 108.27 38.6552 108.021 38.6697C106.234 38.6794 106.528 38.3987 106.516 40.174C106.516 40.4664 106.623 40.5639 106.906 40.5707C107.089 40.5746 107.276 40.5707 107.462 40.5707H107.463Z" fill="#FFCF1B"/>
<path d="M133.325 41.1888C133.325 40.0664 133.325 38.945 133.325 37.8245C133.325 37.727 133.334 37.6383 133.341 37.5457C133.347 37.4838 133.376 37.4263 133.421 37.3838C133.467 37.3412 133.526 37.3163 133.588 37.3136C133.961 37.3039 134.336 37.301 134.709 37.2951C134.803 37.2891 134.896 37.3103 134.978 37.3561C135.06 37.4019 135.127 37.4705 135.171 37.5535C135.591 38.2814 136.013 39.0093 136.438 39.7372C136.951 40.6263 137.467 41.5148 137.984 42.4026C138.008 42.4445 138.075 42.465 138.126 42.4845C138.147 42.4923 138.202 42.4738 138.203 42.4611C138.233 42.3096 138.251 42.1561 138.257 42.0019C138.257 40.7872 138.257 39.5725 138.257 38.3578C138.257 37.1879 138.171 37.2854 139.403 37.299C139.466 37.2949 139.528 37.3067 139.585 37.3331C139.662 37.3767 139.726 37.44 139.771 37.5164C139.802 37.6042 139.815 37.6975 139.808 37.7904C139.808 40.095 139.808 42.4 139.808 44.7053C139.806 44.8283 139.788 44.9506 139.754 45.0689C139.744 45.0969 139.728 45.1221 139.706 45.1427C139.685 45.1634 139.659 45.1788 139.63 45.1879C139.385 45.2185 139.137 45.2351 138.89 45.2376C137.95 45.2376 138.126 45.3253 137.666 44.5279C136.886 43.1786 136.127 41.8215 135.352 40.4713C135.247 40.2871 135.171 40.0755 134.973 39.9546C134.918 39.9215 134.891 39.9195 134.882 39.9819C134.86 40.0988 134.846 40.217 134.839 40.3358C134.839 41.6441 134.839 42.9524 134.839 44.2607C134.839 44.4791 134.839 44.6965 134.831 44.9149C134.825 45.103 134.724 45.22 134.559 45.223C134.248 45.2301 133.936 45.2301 133.625 45.223C133.586 45.2239 133.548 45.2166 133.512 45.2017C133.476 45.1867 133.443 45.1643 133.417 45.136C133.39 45.1077 133.369 45.0741 133.356 45.0373C133.343 45.0006 133.338 44.9615 133.342 44.9227C133.334 44.2994 133.331 43.6768 133.331 43.0548C133.331 42.4318 133.331 41.8089 133.331 41.1859L133.325 41.1888Z" fill="#FFCF1B"/>
<path d="M152.352 43.0684C152.352 43.6904 152.352 44.3124 152.352 44.9334C152.352 45.011 152.321 45.0854 152.266 45.1402C152.211 45.1951 152.137 45.2259 152.059 45.2259C151.842 45.2327 151.625 45.2366 151.406 45.2347C151.081 45.2347 151.081 45.2288 150.932 44.8164C150.896 44.7189 150.792 44.6595 150.724 44.7024C150.619 44.7677 150.516 44.8379 150.411 44.9042C150.177 45.0565 149.922 45.174 149.654 45.2532C148.679 45.532 147.739 45.4199 146.838 44.9997C145.809 44.5191 145.235 43.6534 144.947 42.5839C144.713 41.7392 144.708 40.8477 144.932 40.0004C145.312 38.5557 146.183 37.5759 147.671 37.2551C148.563 37.0602 149.472 37.0904 150.333 37.4374C151.283 37.8216 151.923 38.502 152.191 39.5072C152.225 39.6339 152.143 39.7782 152.027 39.7821C151.747 39.7899 151.467 39.7954 151.188 39.7987C151.064 39.8054 150.939 39.7989 150.817 39.7791C150.73 39.7558 150.651 39.7124 150.585 39.6524C150.544 39.605 150.511 39.5513 150.487 39.4935C149.979 38.6161 149.17 38.4006 148.246 38.5391C147.482 38.6531 146.934 39.1104 146.645 39.822C146.455 40.2676 146.356 40.7465 146.353 41.2308C146.351 41.715 146.445 42.1949 146.63 42.6424C147.032 43.6319 147.783 44.0453 148.941 44.017C149.127 44.0057 149.312 43.9773 149.493 43.9322C150.229 43.7733 150.663 43.2975 150.775 42.5225C150.782 42.4847 150.781 42.4458 150.772 42.4084C150.763 42.371 150.746 42.336 150.722 42.3058C150.698 42.2757 150.668 42.2511 150.634 42.2338C150.6 42.2165 150.562 42.2069 150.523 42.2057C150.12 42.1891 149.716 42.1842 149.314 42.155C149.271 42.1454 149.231 42.1257 149.197 42.0976C149.163 42.0694 149.136 42.0336 149.119 41.9931C149.045 41.6902 149.042 41.3739 149.112 41.0699C149.122 41.0231 149.194 40.9724 149.248 40.9529C149.305 40.9291 149.367 40.9178 149.43 40.9198C150.301 40.9198 151.171 40.9198 152.043 40.9198C152.246 40.9198 152.359 41.0533 152.36 41.2902C152.36 41.882 152.36 42.4728 152.36 43.0636L152.352 43.0684Z" fill="#FFCF1B"/>
<path d="M251.071 41.2084C251.071 40.1191 251.071 39.0301 251.071 37.9415C251.071 37.8177 251.081 37.6929 251.09 37.5691C251.096 37.508 251.121 37.4504 251.163 37.4051C251.204 37.3598 251.259 37.3291 251.32 37.3176C251.417 37.3088 251.506 37.2951 251.598 37.2951C252.501 37.2951 253.403 37.2883 254.306 37.2951C254.617 37.2952 254.928 37.3203 255.236 37.3702C255.911 37.4882 256.484 37.7953 256.776 38.4426C256.957 38.8245 257.048 39.2426 257.042 39.6651C257.036 40.0875 256.934 40.503 256.743 40.8798C256.586 41.1861 256.352 41.4471 256.066 41.6383C255.835 41.8031 255.836 41.9054 255.92 42.1062C256.241 42.8813 256.566 43.6553 256.884 44.4323C256.963 44.6332 257.031 44.8386 257.086 45.0475C257.086 45.075 257.078 45.1019 257.065 45.1257C257.051 45.1494 257.031 45.1692 257.007 45.183C256.579 45.2602 256.141 45.2638 255.712 45.1937C255.652 45.1778 255.6 45.1399 255.567 45.0875C255.519 45.0077 255.479 44.9234 255.447 44.8359C255.147 44.0853 254.847 43.3346 254.547 42.5839C254.501 42.469 254.447 42.3579 254.385 42.2515C254.339 42.1755 254.287 42.0848 254.176 42.0848C253.711 42.0848 253.245 42.0848 252.78 42.0955C252.735 42.0955 252.667 42.1686 252.653 42.2203C252.623 42.3405 252.607 42.4639 252.606 42.5878C252.601 43.241 252.606 43.8942 252.606 44.5484C252.61 44.7035 252.601 44.8587 252.579 45.0124C252.574 45.0592 252.555 45.1031 252.523 45.1373C252.49 45.1716 252.448 45.1942 252.401 45.2015C252.279 45.2205 252.156 45.2322 252.032 45.2366C251.016 45.2366 251.069 45.3341 251.069 44.289L251.071 41.2084ZM253.698 38.6736V38.6814C253.419 38.6814 253.139 38.6814 252.86 38.6814C252.799 38.6868 252.742 38.7141 252.699 38.7584C252.657 38.8026 252.632 38.8609 252.629 38.9223C252.629 39.4487 252.629 39.9755 252.629 40.5025C252.636 40.5633 252.665 40.6195 252.71 40.661C252.755 40.7026 252.813 40.7269 252.874 40.7297C253.401 40.7342 253.929 40.7369 254.457 40.7375C254.55 40.7391 254.643 40.7282 254.734 40.7053C255.275 40.5542 255.48 40.2686 255.505 39.7899C255.508 39.6968 255.504 39.6037 255.495 39.5111C255.486 39.3547 255.433 39.204 255.342 39.0768C255.251 38.9496 255.125 38.8513 254.979 38.7936C254.839 38.7304 254.688 38.6915 254.535 38.6785C254.252 38.659 253.972 38.6717 253.693 38.6717L253.698 38.6736Z" fill="#FFCE14"/>
<path d="M242.193 37.1684C242.74 37.1387 243.288 37.2306 243.796 37.4375C244.919 37.9025 245.577 38.7624 245.89 39.9088C246.136 40.7844 246.14 41.7104 245.901 42.5878C245.59 43.7294 244.964 44.6195 243.836 45.0806C243.317 45.2983 242.76 45.4104 242.198 45.4104C241.635 45.4104 241.078 45.2983 240.559 45.0806C239.767 44.767 239.129 44.1547 238.784 43.3756C238.427 42.609 238.275 41.7627 238.344 40.9198C238.37 40.5153 238.441 40.115 238.557 39.7265C239.086 37.9717 240.554 37.1733 241.968 37.1645L242.193 37.1684ZM244.46 41.0777C244.455 40.87 244.436 40.6629 244.403 40.4577C244.272 39.7558 243.953 39.1533 243.31 38.8004C242.175 38.1755 240.714 38.542 240.179 39.8435C239.986 40.3052 239.888 40.8013 239.892 41.3019C239.896 41.8025 240.002 42.2971 240.203 42.7555C240.549 43.5852 241.229 44.0151 242.103 44.0424C243.01 44.0697 243.73 43.6826 244.156 42.8384C244.401 42.35 244.468 41.8304 244.46 41.0738V41.0777Z" fill="#FFCF1B"/>
<path d="M202.321 37.2717L204.186 37.3478C204.53 37.3687 204.864 37.4709 205.161 37.6461C205.496 37.8192 205.763 38.101 205.918 38.4455C206.268 39.2595 206.288 40.0755 205.883 40.8769C205.796 41.0414 205.686 41.1933 205.558 41.3283C205.434 41.4657 205.278 41.5739 205.142 41.7026C205.094 41.742 205.059 41.796 205.044 41.8565C205.028 41.917 205.032 41.981 205.056 42.039C205.143 42.271 205.23 42.504 205.324 42.735C205.534 43.2537 205.741 43.7743 205.961 44.289C206.414 45.3477 206.389 45.2278 205.288 45.2356C205.164 45.2428 205.04 45.2336 204.918 45.2083C204.83 45.1859 204.753 45.1309 204.703 45.0543C204.589 44.8349 204.495 44.6029 204.403 44.3719C204.137 43.707 203.877 43.0411 203.612 42.3763C203.538 42.192 203.417 42.0614 203.198 42.0633C202.825 42.0633 202.451 42.0633 202.077 42.0633C201.864 42.0633 201.759 42.1832 201.757 42.427C201.75 42.9866 201.757 43.5471 201.749 44.1077C201.749 44.3875 201.741 44.6673 201.733 44.9471C201.733 45.0088 201.711 45.0683 201.671 45.1154C201.631 45.1624 201.576 45.1939 201.515 45.2044C201.144 45.2044 200.771 45.2044 200.399 45.1937C200.356 45.1937 200.294 45.1157 200.278 45.0631C200.254 44.9729 200.242 44.8796 200.245 44.7862C200.245 42.451 200.245 40.1165 200.245 37.7826C200.237 37.69 200.248 37.5968 200.277 37.5086C200.314 37.4275 200.379 37.3629 200.461 37.3273C200.581 37.297 200.704 37.2849 200.828 37.2912C201.327 37.2912 201.825 37.2912 202.323 37.2912L202.321 37.2717ZM202.87 40.7316C203.118 40.7316 203.368 40.7433 203.615 40.7316C204.369 40.6868 204.729 40.2442 204.633 39.4877C204.623 39.4261 204.61 39.3652 204.593 39.3054C204.551 39.1547 204.462 39.0215 204.338 38.9261C204.175 38.7792 203.966 38.6919 203.747 38.6785C203.162 38.6717 202.568 38.6785 201.978 38.6785C201.917 38.6873 201.861 38.7183 201.821 38.7655C201.781 38.8128 201.76 38.8731 201.762 38.9349C201.757 39.4314 201.755 39.928 201.755 40.4245C201.752 40.4628 201.757 40.5013 201.769 40.5377C201.782 40.574 201.801 40.6074 201.827 40.6356C201.853 40.6639 201.885 40.6865 201.92 40.702C201.955 40.7176 201.993 40.7256 202.032 40.7258C202.311 40.7355 202.591 40.7326 202.87 40.7326V40.7316Z" fill="#FFCE14"/>
<path d="M312.657 41.2786C312.657 40.2218 312.657 39.1644 312.657 38.1063C312.653 37.9201 312.664 37.7339 312.691 37.5496C312.703 37.5076 312.725 37.469 312.755 37.4366C312.784 37.4042 312.82 37.3789 312.861 37.3624C312.981 37.329 313.105 37.3155 313.229 37.3225C314.162 37.3225 315.095 37.3225 316.028 37.3225C316.246 37.3228 316.464 37.3348 316.68 37.3585C317.685 37.4716 318.321 38.0624 318.532 39.0471C318.62 39.4422 318.62 39.852 318.532 40.2472C318.443 40.7085 318.208 41.1291 317.863 41.4472C317.771 41.5311 317.668 41.6052 317.578 41.688C317.519 41.7385 317.479 41.8075 317.464 41.8839C317.449 41.9603 317.461 42.0394 317.497 42.1082C317.673 42.5401 317.843 42.9739 318.018 43.4058C318.227 43.9245 318.439 44.4421 318.646 44.9608C318.656 44.9893 318.659 45.0196 318.655 45.0495C318.652 45.0794 318.641 45.108 318.625 45.1334C318.609 45.1587 318.587 45.18 318.561 45.1957C318.535 45.2113 318.507 45.221 318.477 45.224C316.975 45.224 317.273 45.4814 316.734 44.135C316.491 43.5296 316.254 42.9213 316.005 42.3178C315.979 42.244 315.93 42.1803 315.865 42.1355C315.801 42.0908 315.724 42.0673 315.645 42.0682C315.241 42.0682 314.837 42.0715 314.433 42.078C314.372 42.0817 314.314 42.1069 314.269 42.1492C314.225 42.1914 314.196 42.248 314.189 42.3091C314.18 42.4943 314.168 42.6805 314.167 42.8667C314.167 43.4263 314.167 43.9859 314.167 44.5464C314.174 44.7014 314.164 44.8566 314.138 45.0095C314.122 45.0826 314.031 45.1908 313.968 45.1938C313.598 45.2133 313.226 45.2152 312.855 45.1938C312.796 45.1938 312.703 45.0758 312.693 44.9988C312.67 44.7826 312.66 44.565 312.664 44.3475C312.658 43.3285 312.656 42.3055 312.657 41.2786ZM315.32 38.6776V38.6688C315.039 38.6688 314.759 38.6688 314.478 38.6688C314.439 38.6655 314.401 38.6704 314.364 38.6829C314.328 38.6955 314.294 38.7155 314.266 38.7417C314.237 38.7679 314.214 38.7998 314.199 38.8352C314.184 38.8707 314.176 38.9089 314.176 38.9476C314.167 39.3522 314.16 39.7568 314.162 40.1623C314.162 40.7093 314.196 40.7375 314.747 40.7473C315.121 40.7473 315.495 40.7473 315.87 40.7473C316.025 40.7494 316.181 40.7337 316.333 40.7005C316.455 40.6755 316.572 40.6264 316.676 40.5559C316.78 40.4855 316.868 40.3951 316.937 40.29C317.352 39.6076 316.959 38.74 316.165 38.6863C315.88 38.661 315.6 38.6776 315.32 38.6776Z" fill="#FFCE14"/>
<path d="M307.42 40.2062C307.42 40.9227 307.42 41.6393 307.42 42.3558C307.42 42.7298 307.367 43.1019 307.264 43.4614C307.167 43.8582 306.97 44.2235 306.692 44.5224C306.413 44.8213 306.063 45.0437 305.674 45.1684C304.695 45.5161 303.625 45.5071 302.652 45.1431C301.826 44.8506 301.32 44.2403 301.109 43.3999C301.024 43.0682 300.978 42.7276 300.972 42.3851C300.959 40.8252 300.967 39.2654 300.972 37.7114C300.967 37.6494 300.977 37.5871 301.003 37.5301C301.047 37.457 301.111 37.3585 301.182 37.3439C301.549 37.2755 301.926 37.2709 302.295 37.3303C302.355 37.3444 302.41 37.3774 302.45 37.4246C302.491 37.4717 302.515 37.5305 302.52 37.5925C302.528 37.8421 302.533 38.0907 302.533 38.3402C302.533 39.5862 302.533 40.8321 302.533 42.078C302.526 42.358 302.542 42.6382 302.582 42.9154C302.68 43.4545 302.999 43.8026 303.538 43.943C303.993 44.0624 304.472 44.0556 304.923 43.9235C305.12 43.8717 305.3 43.7698 305.446 43.6277C305.592 43.4855 305.699 43.308 305.756 43.1124C305.852 42.7831 305.894 42.4403 305.881 42.0975C305.881 41.0066 305.881 39.9166 305.881 38.8257C305.881 38.701 305.881 38.5771 305.881 38.4524C305.889 37.1207 305.75 37.2952 307.112 37.3078C307.151 37.3063 307.19 37.3125 307.226 37.3261C307.263 37.3397 307.296 37.3605 307.324 37.3872C307.353 37.4139 307.375 37.446 307.391 37.4816C307.407 37.5172 307.415 37.5555 307.416 37.5945C307.416 38.466 307.416 39.3385 307.416 40.2111L307.42 40.2062Z" fill="#FFCF1B"/>
<path d="M164.702 42.6454C164.858 42.6454 165.013 42.6454 165.169 42.6454C165.231 42.6451 165.292 42.6624 165.345 42.6951C165.398 42.7279 165.441 42.7748 165.468 42.8306C165.526 42.9408 165.574 43.0558 165.629 43.1669C165.734 43.3769 165.883 43.5614 166.067 43.7073C166.251 43.8532 166.464 43.9569 166.692 44.0112C167.25 44.1623 167.803 44.1545 168.324 43.8689C168.476 43.7873 168.603 43.6646 168.689 43.5146C168.775 43.3647 168.818 43.1935 168.811 43.0207C168.812 42.8636 168.77 42.7093 168.69 42.5742C168.61 42.4392 168.494 42.3286 168.356 42.2544C168.03 42.0715 167.677 41.9428 167.309 41.8733C166.976 41.7962 166.64 41.7329 166.308 41.652C165.883 41.5538 165.474 41.398 165.091 41.1889C164.729 40.9842 164.428 40.7092 164.288 40.3115C163.973 39.4165 164.093 38.233 165.138 37.6081C165.379 37.4647 165.639 37.3576 165.911 37.2903C166.843 37.0631 167.763 37.0953 168.64 37.5389C169.006 37.7147 169.327 37.9737 169.576 38.2953C169.825 38.6169 169.995 38.9921 170.073 39.3912C170.078 39.4214 170.077 39.4524 170.069 39.4819C170.06 39.5115 170.046 39.5388 170.026 39.562C170.006 39.5853 169.981 39.6037 169.953 39.6162C169.925 39.6286 169.894 39.6347 169.864 39.6339C169.522 39.6398 169.182 39.6456 168.838 39.6339C168.776 39.6369 168.713 39.6213 168.659 39.5893C168.605 39.5572 168.562 39.5101 168.534 39.4536C168.127 38.5762 167.395 38.3812 166.515 38.4894C166.33 38.5165 166.154 38.5877 166.001 38.6971C165.897 38.7664 165.812 38.8602 165.752 38.9704C165.693 39.0805 165.661 39.2036 165.66 39.3288C165.652 39.4536 165.676 39.5785 165.731 39.691C165.786 39.8035 165.869 39.8998 165.972 39.9703C166.23 40.1456 166.519 40.2703 166.824 40.3378C167.154 40.4236 167.493 40.4811 167.825 40.561C168.339 40.6858 168.846 40.8301 169.311 41.0972C169.545 41.2233 169.75 41.3957 169.915 41.6039C170.08 41.8121 170.201 42.0517 170.27 42.3081C170.506 43.163 170.294 44.3495 169.217 44.9666C168.945 45.1194 168.651 45.2292 168.346 45.2922C167.368 45.5243 166.339 45.4107 165.435 44.9705C165.064 44.8039 164.737 44.5529 164.481 44.2373C164.224 43.9218 164.044 43.5505 163.957 43.1533C163.859 42.7468 163.928 42.6405 164.334 42.6337C164.459 42.6337 164.583 42.6337 164.707 42.6337L164.702 42.6454Z" fill="#FFCF1B"/>
<path d="M116.133 41.2367C116.133 40.1487 116.133 39.06 116.133 37.9708C116.133 37.8167 116.153 37.6627 116.167 37.5087C116.176 37.3936 116.275 37.3537 116.362 37.3332C116.483 37.3051 116.607 37.292 116.731 37.2942C118.132 37.2942 119.532 37.2942 120.932 37.2942C121.055 37.2962 121.178 37.3146 121.296 37.3488C121.324 37.3591 121.35 37.3755 121.372 37.3969C121.393 37.4183 121.41 37.4441 121.421 37.4726C121.506 37.8043 121.508 38.1517 121.427 38.4845C121.419 38.5143 121.404 38.5417 121.383 38.5644C121.362 38.5872 121.336 38.6046 121.307 38.6152C121.186 38.6446 121.062 38.659 120.938 38.6581C120.067 38.6581 119.196 38.6581 118.324 38.6581C118.17 38.661 118.015 38.6718 117.861 38.6902C117.815 38.6937 117.771 38.7133 117.737 38.7456C117.703 38.778 117.681 38.8211 117.675 38.8677C117.654 39.2713 117.645 39.6752 117.647 40.0795C117.647 40.486 117.729 40.5669 118.14 40.5669C118.92 40.5718 119.699 40.5669 120.473 40.5669C120.598 40.5689 120.722 40.5786 120.845 40.5961C120.89 40.6048 120.932 40.6273 120.965 40.6606C120.997 40.6939 121.018 40.7364 121.026 40.7824C121.056 40.9027 121.071 41.026 121.073 41.1499C121.081 41.8879 121.073 41.9454 120.305 41.9376C119.651 41.9308 118.998 41.9376 118.344 41.9376C118.22 41.9376 118.095 41.9444 117.972 41.9532C117.894 41.9593 117.822 41.9916 117.766 42.0448C117.71 42.0981 117.674 42.169 117.664 42.2457C117.653 42.4621 117.644 42.6805 117.645 42.8979C117.645 43.1455 117.656 43.3941 117.666 43.6427C117.674 43.7037 117.703 43.7599 117.748 43.8019C117.793 43.8438 117.852 43.8688 117.913 43.8728C118.099 43.8815 118.285 43.8893 118.471 43.8893C119.251 43.8893 120.031 43.8893 120.806 43.8893C120.96 43.8843 121.115 43.8971 121.267 43.9274C121.308 43.9412 121.346 43.965 121.376 43.9965C121.407 44.0281 121.429 44.0666 121.442 44.1087C121.464 44.3865 121.46 44.6663 121.459 44.9451C121.456 45.0068 121.432 45.0656 121.391 45.112C121.35 45.1584 121.295 45.1896 121.234 45.2006C121.112 45.2103 120.988 45.224 120.864 45.224C119.495 45.224 118.126 45.224 116.756 45.224C116.601 45.2229 116.447 45.2065 116.295 45.1752C116.266 45.1651 116.24 45.1483 116.219 45.1261C116.197 45.1039 116.181 45.077 116.172 45.0475C116.148 44.8941 116.136 44.7388 116.137 44.5835C116.133 43.4727 116.132 42.3571 116.133 41.2367Z" fill="#FFCE18"/>
<path d="M285.376 40.2023C285.376 40.95 285.376 41.6968 285.376 42.4446C285.376 42.8184 285.318 43.1901 285.205 43.5462C285.098 43.9232 284.899 44.268 284.627 44.5501C284.355 44.8322 284.018 45.0429 283.645 45.1635C282.697 45.5035 281.662 45.508 280.711 45.1762C279.748 44.8418 279.178 44.1389 279.024 43.1289C278.972 42.7588 278.947 42.3854 278.949 42.0117C278.94 40.6118 278.949 39.2108 278.949 37.8099C278.941 37.7171 278.95 37.6237 278.975 37.534C279.005 37.457 279.073 37.3556 279.143 37.339C279.51 37.2729 279.886 37.2696 280.255 37.3293C280.315 37.3434 280.369 37.3761 280.409 37.4227C280.449 37.4692 280.474 37.5273 280.479 37.5886C280.484 37.8372 280.489 38.0868 280.489 38.3354C280.489 39.5803 280.489 40.8253 280.489 42.0702C280.48 42.3502 280.496 42.6305 280.536 42.9076C280.572 43.1561 280.683 43.3878 280.853 43.5722C281.023 43.7565 281.246 43.8848 281.491 43.94C281.941 44.0732 282.421 44.0691 282.87 43.9283C283.064 43.8734 283.243 43.7726 283.391 43.6344C283.539 43.4962 283.651 43.3245 283.719 43.1338C283.829 42.8089 283.877 42.4664 283.862 42.1238C283.862 40.848 283.862 39.5719 283.862 38.2954C283.862 38.0468 283.868 37.7982 283.876 37.5496C283.881 37.4874 283.909 37.4292 283.954 37.386C283.999 37.3429 284.059 37.3178 284.121 37.3156C284.462 37.3156 284.803 37.3215 285.144 37.3293C285.205 37.3424 285.259 37.375 285.299 37.422C285.339 37.469 285.363 37.5279 285.366 37.5896C285.366 37.7758 285.376 37.963 285.376 38.1492C285.376 38.8316 285.376 39.514 285.376 40.2033V40.2023Z" fill="#FFCE18"/>
<path d="M194.689 45.2386H194.592C193.892 45.2386 193.97 45.2386 193.753 44.6147C193.373 43.5423 193.558 43.6281 192.414 43.6252C191.853 43.6252 191.292 43.6281 190.732 43.634C190.638 43.6315 190.545 43.6608 190.47 43.7172C190.394 43.7736 190.339 43.8538 190.314 43.9449C190.191 44.2969 190.072 44.6508 189.949 45.0027C189.932 45.0633 189.897 45.1169 189.847 45.1557C189.798 45.1945 189.738 45.2164 189.675 45.2182C189.302 45.2279 188.928 45.224 188.555 45.2182C188.423 45.2182 188.354 45.0982 188.397 44.9579C188.44 44.8175 188.489 44.6654 188.541 44.5133C189.328 42.2841 190.116 40.0545 190.905 37.8246C190.939 37.7056 190.986 37.5908 191.046 37.4824C191.069 37.4431 191.099 37.4087 191.135 37.3812C191.171 37.3538 191.213 37.3338 191.257 37.3225C191.691 37.3101 192.126 37.3101 192.561 37.3225C192.605 37.3308 192.648 37.3479 192.686 37.3728C192.724 37.3978 192.757 37.43 192.783 37.4678C192.849 37.5734 192.9 37.6875 192.935 37.807C193.719 40.0376 194.503 42.2688 195.286 44.5006C195.336 44.6469 195.383 44.7931 195.419 44.9462C195.426 44.9753 195.427 45.0055 195.422 45.035C195.417 45.0645 195.406 45.0926 195.389 45.1177C195.373 45.1428 195.352 45.1643 195.327 45.1809C195.302 45.1975 195.274 45.2089 195.245 45.2143C195.058 45.2143 194.871 45.2143 194.685 45.2143L194.689 45.2386ZM191.936 42.2759H192.215C193.002 42.2701 193.004 42.2691 192.759 41.5058C192.57 40.9156 192.378 40.3265 192.183 39.7383C192.136 39.5911 192.086 39.4458 192.026 39.3015C192.014 39.2735 191.996 39.2487 191.973 39.2294C191.926 39.2528 191.856 39.2762 191.842 39.3161C191.569 40.1048 191.297 40.8955 191.034 41.6881C190.864 42.2028 190.917 42.2672 191.471 42.273C191.622 42.2779 191.781 42.2759 191.936 42.2759Z" fill="#FFCE18"/>
<path d="M323.716 41.2951C323.716 40.2071 323.716 39.1191 323.716 38.0311C323.716 37.8761 323.728 37.7201 323.738 37.5661C323.751 37.5059 323.783 37.4513 323.829 37.4106C323.875 37.3699 323.933 37.3451 323.995 37.3399C324.056 37.3341 324.118 37.3234 324.18 37.3234C325.642 37.3234 327.104 37.3234 328.565 37.3234C328.658 37.3232 328.749 37.339 328.836 37.3702C328.892 37.3969 328.936 37.4425 328.96 37.4988C328.984 37.5562 328.995 37.618 328.993 37.6802C329.013 38.6999 329.07 38.6619 328.061 38.6551C327.281 38.6551 326.503 38.6551 325.727 38.6551C325.635 38.6551 325.542 38.6707 325.45 38.6794C325.404 38.6849 325.361 38.7041 325.326 38.7343C325.291 38.7645 325.267 38.8045 325.255 38.8491C325.229 38.939 325.219 39.0327 325.226 39.1259C325.254 40.7901 324.949 40.5454 326.629 40.5678C327.188 40.5756 327.749 40.5756 328.308 40.5824C328.385 40.5846 328.458 40.6162 328.512 40.6705C328.567 40.7249 328.598 40.798 328.6 40.8749C328.607 41.0923 328.61 41.3097 328.606 41.5271C328.606 41.7699 328.509 41.8829 328.29 41.8937C327.917 41.9132 327.544 41.9268 327.171 41.9317C326.705 41.9385 326.238 41.9317 325.771 41.9317C325.674 41.9317 325.586 41.9463 325.495 41.9561C325.434 41.9671 325.378 41.9957 325.334 42.0383C325.289 42.081 325.258 42.1358 325.245 42.1959C325.238 42.6609 325.232 43.1269 325.234 43.5929C325.233 43.6318 325.24 43.6705 325.255 43.7064C325.269 43.7424 325.291 43.7749 325.32 43.8016C325.348 43.8284 325.381 43.8488 325.418 43.8616C325.455 43.8743 325.494 43.8791 325.533 43.8756C326.155 43.8824 326.777 43.8824 327.399 43.8863C327.834 43.8863 328.269 43.8922 328.705 43.9C328.743 43.8994 328.781 43.9067 328.816 43.9213C328.852 43.9358 328.884 43.9574 328.911 43.9848C328.937 44.0121 328.958 44.0447 328.972 44.0804C328.986 44.1161 328.993 44.1542 328.991 44.1925C328.991 44.4407 328.989 44.6893 328.985 44.9383C328.985 45.105 328.868 45.2024 328.68 45.2122C328.583 45.2171 328.494 45.222 328.402 45.222C327.033 45.222 325.664 45.222 324.296 45.222C324.172 45.2286 324.047 45.2167 323.926 45.1868C323.885 45.1725 323.848 45.1492 323.817 45.1185C323.786 45.0878 323.762 45.0505 323.747 45.0094C323.721 44.8251 323.71 44.6389 323.715 44.4528C323.714 43.4051 323.715 42.3525 323.716 41.2951Z" fill="#FFCE14"/>
<path d="M268.834 41.2094C268.834 40.1194 268.834 39.0298 268.834 37.9405C268.834 37.8167 268.843 37.6929 268.852 37.5691C268.858 37.5077 268.884 37.4498 268.926 37.4043C268.967 37.3587 269.023 37.328 269.083 37.3166C269.207 37.3069 269.331 37.2932 269.455 37.2932C270.794 37.2932 272.133 37.2932 273.472 37.2932C273.627 37.2935 273.782 37.3066 273.935 37.3322C273.981 37.3383 274.024 37.3589 274.058 37.3909C274.092 37.4229 274.115 37.4648 274.124 37.5106C274.141 37.6015 274.151 37.6939 274.152 37.7865C274.152 38.6639 274.227 38.6639 273.298 38.6639C272.552 38.6639 271.804 38.6639 271.057 38.6639C270.901 38.6581 270.746 38.6686 270.593 38.6951C270.551 38.7078 270.513 38.7301 270.481 38.7602C270.45 38.7904 270.426 38.8275 270.412 38.8686C270.38 39.0525 270.368 39.2389 270.374 39.4253C270.387 40.7044 270.216 40.5669 271.513 40.5757C272.136 40.5757 272.758 40.5757 273.381 40.5815C273.652 40.5815 273.757 40.7014 273.761 40.9929C273.761 41.2103 273.761 41.4287 273.753 41.6461C273.748 41.7242 273.713 41.7972 273.654 41.8494C273.596 41.9017 273.52 41.9291 273.442 41.9259C273.193 41.9376 272.944 41.9444 272.696 41.9464C272.104 41.9464 271.513 41.9464 270.92 41.9464C270.823 41.9464 270.735 41.963 270.643 41.9727C270.582 41.9806 270.525 42.0082 270.481 42.0513C270.437 42.0944 270.409 42.1507 270.4 42.2116C270.387 42.4914 270.376 42.7711 270.373 43.0509C270.366 43.6729 270.367 44.2949 270.36 44.9179C270.362 44.996 270.334 45.0719 270.281 45.1294C270.228 45.187 270.155 45.2216 270.077 45.2259C269.985 45.2318 269.891 45.2357 269.798 45.2357C268.78 45.2357 268.833 45.3332 268.833 44.2881V41.2064L268.834 41.2094Z" fill="#FFCE18"/>
<path d="M228.44 41.2502C228.44 40.1928 228.44 39.1343 228.44 38.075C228.435 37.889 228.447 37.7031 228.476 37.5193C228.489 37.4462 228.579 37.3769 228.649 37.3243C228.705 37.2972 228.768 37.2863 228.83 37.2931C230.325 37.2931 231.819 37.2931 233.313 37.2931C233.406 37.2951 233.498 37.3139 233.584 37.3487C233.612 37.3592 233.637 37.3751 233.658 37.3955C233.679 37.416 233.696 37.4405 233.707 37.4676C233.783 37.8013 233.783 38.1478 233.707 38.4815C233.698 38.5101 233.681 38.536 233.66 38.5574C233.639 38.5787 233.613 38.5947 233.584 38.6043C233.433 38.6345 233.279 38.6501 233.125 38.6511C232.284 38.6511 231.443 38.6511 230.602 38.6511C230.448 38.6517 230.293 38.6651 230.141 38.6911C230.111 38.7026 230.084 38.7215 230.063 38.746C230.042 38.7705 230.027 38.7999 230.02 38.8315C229.993 38.9527 229.98 39.0767 229.981 39.201C229.981 39.5744 229.991 39.9468 230.001 40.3201C230.007 40.3812 230.034 40.4383 230.077 40.4816C230.121 40.525 230.178 40.552 230.239 40.558C230.425 40.5668 230.611 40.5775 230.797 40.5775C231.421 40.5775 232.044 40.5775 232.666 40.5775C232.821 40.5775 232.976 40.5902 233.131 40.6009C233.191 40.6144 233.246 40.6465 233.286 40.6928C233.327 40.739 233.352 40.7969 233.358 40.8583C233.358 41.1381 233.366 41.4179 233.345 41.6957C233.334 41.7394 233.313 41.78 233.284 41.8139C233.254 41.8478 233.217 41.8742 233.175 41.8907C233.026 41.9306 232.872 41.9496 232.717 41.9472C232.063 41.9531 231.409 41.9472 230.755 41.9531C230.569 41.9531 230.384 41.9755 230.199 41.994C230.152 42.0006 230.109 42.0222 230.077 42.0555C230.044 42.0888 230.023 42.1319 230.016 42.1783C229.989 42.3629 229.977 42.5494 229.979 42.7359C229.979 43.3901 229.979 44.0433 229.979 44.6974C229.979 44.8209 229.965 44.9439 229.937 45.064C229.927 45.0927 229.912 45.119 229.891 45.141C229.87 45.1629 229.845 45.1799 229.817 45.1907C229.421 45.2711 229.013 45.2731 228.616 45.1966C228.588 45.1874 228.563 45.1718 228.542 45.151C228.521 45.1301 228.506 45.1046 228.497 45.0767C228.466 44.894 228.449 44.7092 228.446 44.5239C228.438 43.4301 228.44 42.3411 228.44 41.2502Z" fill="#FFCE18"/>
<path d="M213.107 41.9649C213.107 41.1245 213.107 40.2852 213.107 39.4458C213.107 39.2605 213.084 39.0743 213.072 38.8891C213.066 38.776 212.975 38.7282 212.895 38.6941C212.806 38.6681 212.712 38.6572 212.619 38.662C212.278 38.6581 211.935 38.6581 211.593 38.662C210.639 38.662 210.716 38.6893 210.716 37.7183C210.711 37.656 210.716 37.5933 210.733 37.533C210.764 37.4502 210.795 37.3527 210.905 37.3381C211.026 37.3158 211.149 37.3021 211.272 37.2971C213.015 37.2971 214.757 37.2971 216.499 37.2971C216.623 37.2911 216.747 37.3073 216.865 37.3449C216.906 37.3622 216.943 37.3888 216.972 37.4226C217.001 37.4564 217.023 37.4965 217.034 37.5399C217.058 37.8167 217.054 38.0965 217.051 38.3753C217.045 38.4533 217.01 38.526 216.952 38.5784C216.894 38.6307 216.818 38.6586 216.74 38.6561C216.335 38.662 215.931 38.6561 215.526 38.6649C215.309 38.6617 215.092 38.6718 214.875 38.6951C214.833 38.7055 214.794 38.7261 214.761 38.7551C214.728 38.7842 214.703 38.8208 214.688 38.8618C214.66 39.077 214.647 39.294 214.65 39.5111C214.65 41.0969 214.65 42.6827 214.65 44.2686C214.65 44.5172 214.65 44.7667 214.624 45.0134C214.62 45.0602 214.601 45.1044 214.569 45.1389C214.537 45.1734 214.495 45.1962 214.449 45.2035C214.358 45.2224 214.265 45.2342 214.173 45.2386C213.023 45.2318 213.115 45.3809 213.112 44.2052C213.105 43.4575 213.107 42.7107 213.107 41.9649Z" fill="#FFCE18"/>
<path d="M293.27 37.2921C294.079 37.2921 294.889 37.2921 295.698 37.2921C295.853 37.2867 296.008 37.3011 296.16 37.335C296.202 37.3496 296.24 37.3741 296.271 37.4065C296.302 37.4389 296.325 37.4783 296.337 37.5212C296.363 37.7677 296.373 38.0154 296.368 38.2631C296.368 38.5478 296.26 38.6531 295.971 38.6531C295.41 38.6609 294.85 38.6589 294.29 38.6658C294.074 38.6658 293.97 38.7886 293.961 39.0216C293.961 39.1191 293.956 39.2078 293.956 39.3014C293.956 39.5188 293.956 39.7372 293.956 39.9546V44.3416C293.956 44.5278 293.956 44.715 293.947 44.9012C293.938 45.1196 293.827 45.2219 293.585 45.2268C293.343 45.2317 293.087 45.2336 292.838 45.2268C292.545 45.2209 292.454 45.1293 292.448 44.8368C292.442 44.0569 292.443 43.277 292.442 42.5029C292.442 41.4764 292.442 40.4498 292.442 39.4223C292.446 39.2362 292.435 39.05 292.41 38.8656C292.403 38.8182 292.38 38.7746 292.344 38.7426C292.308 38.7105 292.263 38.6919 292.215 38.6901C291.843 38.6784 291.47 38.6687 291.098 38.6589C290.818 38.6511 290.538 38.6589 290.259 38.6316C290.216 38.6226 290.176 38.6033 290.142 38.5752C290.108 38.5472 290.081 38.5114 290.064 38.4708C289.981 38.1393 289.981 37.7923 290.064 37.4608C290.074 37.433 290.091 37.408 290.112 37.3875C290.134 37.3671 290.159 37.3518 290.188 37.3428C290.339 37.3114 290.492 37.2945 290.647 37.2921C291.524 37.2902 292.393 37.2921 293.27 37.2921Z" fill="#FFCE18"/>
<path d="M128.044 41.2972C128.044 42.3552 128.044 43.4133 128.044 44.4714C128.048 44.6578 128.037 44.8442 128.013 45.029C128.006 45.076 127.984 45.1194 127.95 45.1519C127.915 45.1844 127.871 45.204 127.824 45.2075C127.482 45.2182 127.141 45.2279 126.8 45.2289C126.632 45.2289 126.527 45.1109 126.516 44.9296C126.516 44.8682 126.506 44.8058 126.506 44.7434C126.506 42.4102 126.506 40.0766 126.506 37.7427C126.504 37.6496 126.517 37.5568 126.545 37.4678C126.556 37.439 126.573 37.4129 126.594 37.3914C126.616 37.3698 126.643 37.3533 126.672 37.343C127.067 37.2581 127.477 37.2611 127.871 37.3518C127.9 37.3616 127.926 37.3779 127.948 37.3994C127.969 37.4208 127.986 37.4469 127.996 37.4756C128.025 37.6276 128.04 37.782 128.041 37.9367C128.045 39.0565 128.046 40.1767 128.044 41.2972Z" fill="#FFCF1B"/>
</svg>
